# Sources:
# -Misc-Fixed-Medium-R-Normal--13-120-75-75-C-70-ISO10646-1 $ucs-fonts: 7x13.bdf,v 1.52 2008-04-19 22:55:01+01 mgk25 Rel $
# -windows-proggyclean-medium-r-normal--13-80-96-96-c-70-iso8859-1

name: terminal Medium 13
family: terminal
foundry: dylex
copyright: Public domain font.  Share and enjoy.
point-size: 13
weight: medium
dpi: 78 78
spacing: character-cell
x-height: 6
cap-height: 8
offset: 0 -3
encoding: unicode
default-char: u+0000
converter: monobit v0.12
source-name: 7x13.bdf
source-format: BDF v2.1
bdf.FONTNAME-REGISTRY: ""
bdf.DESTINATION: 1
bdf.-GBDFED-INFO: "Edited with gbdfed 1.6."

u+0000:
char0:
    .......
    .@.@.@.
    .......
    .@...@.
    .......
    .@...@.
    .......
    .@...@.
    .......
    .@...@.
    .......
    .@.@.@.
    .......

u+0001:
char1:
    .......
    .......
    .......
    .......
    ...@...
    ..@@@..
    .@@@@@.
    ..@@@..
    ...@...
    .......
    .......
    .......
    .......

u+0002:
char2:
    @.@.@.@
    .@.@.@.
    @.@.@.@
    .@.@.@.
    @.@.@.@
    .@.@.@.
    @.@.@.@
    .@.@.@.
    @.@.@.@
    .@.@.@.
    @.@.@.@
    .@.@.@.
    @.@.@.@

u+0003:
char3:
    .......
    .@.@...
    .@.@...
    .@@@...
    .@.@...
    .@.@@@@
    .....@.
    .....@.
    .....@.
    .....@.
    .......
    .......
    .......

u+0004:
char4:
    .......
    .@@@...
    .@.....
    .@@....
    .@.....
    .@..@@@
    ....@..
    ....@@.
    ....@..
    ....@..
    .......
    .......
    .......

u+0005:
char5:
    .......
    ..@@...
    .@.....
    .@.....
    .@.....
    ..@@@@@
    ....@.@
    ....@@.
    ....@.@
    ....@.@
    .......
    .......
    .......

u+0006:
char6:
    .......
    .@.....
    .@.....
    .@.....
    .@.....
    .@@@@@@
    ....@..
    ....@@.
    ....@..
    ....@..
    .......
    .......
    .......

u+0007:
char7:
    .......
    .......
    ...@...
    ..@.@..
    ..@.@..
    ...@...
    .......
    .......
    .......
    .......
    .......
    .......
    .......

u+0008:
char8:
    .......
    .......
    .......
    ...@...
    ...@...
    .@@@@@.
    ...@...
    ...@...
    .......
    .@@@@@.
    .......
    .......
    .......

u+0009:
char9:
    .......
    .@@....
    .@.@...
    .@.@...
    .@.@...
    .@.@@..
    ....@..
    ....@..
    ....@..
    ....@@@
    .......
    .......
    .......

u+000a:
char10:
    .......
    .@.@...
    .@.@...
    .@.@...
    ..@....
    ..@.@@@
    .....@.
    .....@.
    .....@.
    .....@.
    .......
    .......
    .......

u+000b:
char11:
    ...@...
    ...@...
    ...@...
    ...@...
    ...@...
    ...@...
    @@@@...
    .......
    .......
    .......
    .......
    .......
    .......

u+000c:
char12:
    .......
    .......
    .......
    .......
    .......
    .......
    @@@@...
    ...@...
    ...@...
    ...@...
    ...@...
    ...@...
    ...@...

u+000d:
char13:
    .......
    .......
    .......
    .......
    .......
    .......
    ...@@@@
    ...@...
    ...@...
    ...@...
    ...@...
    ...@...
    ...@...

u+000e:
char14:
    ...@...
    ...@...
    ...@...
    ...@...
    ...@...
    ...@...
    ...@@@@
    .......
    .......
    .......
    .......
    .......
    .......

u+000f:
char15:
    ...@...
    ...@...
    ...@...
    ...@...
    ...@...
    ...@...
    @@@@@@@
    ...@...
    ...@...
    ...@...
    ...@...
    ...@...
    ...@...

u+0010:
char16:
    @@@@@@@
    .......
    .......
    .......
    .......
    .......
    .......
    .......
    .......
    .......
    .......
    .......
    .......

u+0011:
char17:
    .......
    .......
    .......
    @@@@@@@
    .......
    .......
    .......
    .......
    .......
    .......
    .......
    .......
    .......

u+0012:
char18:
    .......
    .......
    .......
    .......
    .......
    .......
    @@@@@@@
    .......
    .......
    .......
    .......
    .......
    .......

u+0013:
char19:
    .......
    .......
    .......
    .......
    .......
    .......
    .......
    .......
    .......
    @@@@@@@
    .......
    .......
    .......

u+0014:
char20:
    .......
    .......
    .......
    .......
    .......
    .......
    .......
    .......
    .......
    .......
    .......
    .......
    @@@@@@@

u+0015:
char21:
    ...@...
    ...@...
    ...@...
    ...@...
    ...@...
    ...@...
    ...@@@@
    ...@...
    ...@...
    ...@...
    ...@...
    ...@...
    ...@...

u+0016:
char22:
    ...@...
    ...@...
    ...@...
    ...@...
    ...@...
    ...@...
    @@@@...
    ...@...
    ...@...
    ...@...
    ...@...
    ...@...
    ...@...

u+0017:
char23:
    ...@...
    ...@...
    ...@...
    ...@...
    ...@...
    ...@...
    @@@@@@@
    .......
    .......
    .......
    .......
    .......
    .......

u+0018:
char24:
    .......
    .......
    .......
    .......
    .......
    .......
    @@@@@@@
    ...@...
    ...@...
    ...@...
    ...@...
    ...@...
    ...@...

u+0019:
char25:
    ...@...
    ...@...
    ...@...
    ...@...
    ...@...
    ...@...
    ...@...
    ...@...
    ...@...
    ...@...
    ...@...
    ...@...
    ...@...

u+001a:
char26:
    .......
    .......
    .......
    ....@@.
    ..@@...
    @@.....
    ..@@...
    ....@@.
    .......
    @@@@@@.
    .......
    .......
    .......

u+001b:
char27:
    .......
    .......
    .......
    @@.....
    ..@@...
    ....@@.
    ..@@...
    @@.....
    .......
    @@@@@@.
    .......
    .......
    .......

u+001c:
char28:
    .......
    .......
    .......
    .......
    @@@@@@.
    .@..@..
    .@..@..
    .@..@..
    .@..@..
    .@..@..
    .......
    .......
    .......

u+001d:
char29:
    .......
    .......
    .......
    .......
    ....@..
    .@@@@@.
    ...@...
    .@@@@@.
    ..@....
    .......
    .......
    .......
    .......

u+001e:
char30:
    .......
    .......
    ...@@..
    ..@....
    ..@....
    .@@@@..
    ..@....
    ..@....
    .@.....
    .@@@@@.
    .......
    .......
    .......

u+001f:
char31:
    .......
    .......
    .......
    .......
    .......
    .......
    ..@@@..
    .......
    .......
    .......
    .......
    .......
    .......

u+0020:
char32:
    .......
    .......
    .......
    .......
    .......
    .......
    .......
    .......
    .......
    .......
    .......
    .......
    .......

u+0021:
char33:
    .......
    .......
    ...@...
    ...@...
    ...@...
    ...@...
    ...@...
    ...@...
    .......
    ...@...
    .......
    .......
    .......

u+0022:
char34:
    .......
    ..@.@..
    ..@.@..
    ..@.@..
    .......
    .......
    .......
    .......
    .......
    .......
    .......
    .......
    .......

u+0023:
char35:
    .......
    .......
    ..@.@..
    ..@.@..
    .@@@@@.
    ..@.@..
    ..@.@..
    .@@@@@.
    ..@.@..
    ..@.@..
    .......
    .......
    .......

u+0024:
char36:
    .......
    .......
    ...@...
    ..@@@@.
    .@.@...
    .@.@...
    ..@@@..
    ...@.@.
    ...@.@.
    .@@@@..
    ...@...
    .......
    .......

u+0025:
char37:
    .......
    .......
    .@...@.
    @.@.@..
    .@..@..
    ...@...
    ...@...
    ..@..@.
    ..@.@.@
    .@...@.
    .......
    .......
    .......

u+0026:
char38:
    .......
    .......
    .@@....
    @..@...
    @..@...
    .@@..@.
    @..@.@.
    @...@..
    @...@..
    .@@@.@.
    .......
    .......
    .......

u+0027:
char39:
    .......
    ...@...
    ...@...
    ...@...
    .......
    .......
    .......
    .......
    .......
    .......
    .......
    .......
    .......

u+0028:
char40:
    .......
    ....@..
    ...@...
    ...@...
    ..@....
    ..@....
    ..@....
    ..@....
    ..@....
    ...@...
    ...@...
    ....@..
    .......

u+0029:
char41:
    .......
    ..@....
    ...@...
    ...@...
    ....@..
    ....@..
    ....@..
    ....@..
    ....@..
    ...@...
    ...@...
    ..@....
    .......

u+002a:
char42:
    .......
    .......
    .......
    .......
    ...@...
    .@.@.@.
    ..@@@..
    .@.@.@.
    ...@...
    .......
    .......
    .......
    .......

u+002b:
char43:
    .......
    .......
    .......
    .......
    ...@...
    ...@...
    .@@@@@.
    ...@...
    ...@...
    .......
    .......
    .......
    .......

u+002c:
char44:
    .......
    .......
    .......
    .......
    .......
    .......
    .......
    .......
    ..@....
    ..@....
    ..@....
    .@.....
    .......

u+002d:
char45:
    .......
    .......
    .......
    .......
    .......
    .......
    .@@@@@.
    .......
    .......
    .......
    .......
    .......
    .......

u+002e:
char46:
    .......
    .......
    .......
    .......
    .......
    .......
    .......
    .......
    ..@....
    ..@....
    .......
    .......
    .......

u+002f:
char47:
    .......
    .....@.
    .....@.
    ....@..
    ....@..
    ...@...
    ...@...
    ..@....
    ..@....
    .@.....
    .@.....
    .......
    .......

u+0030:
char48:
    .......
    .......
    ..@@@..
    .@...@.
    .@...@.
    .@.@.@.
    .@.@.@.
    .@...@.
    .@...@.
    ..@@@..
    .......
    .......
    .......

u+0031:
char49:
    .......
    .......
    ...@...
    ..@@...
    .@.@...
    ...@...
    ...@...
    ...@...
    ...@...
    .@@@@@.
    .......
    .......
    .......

u+0032:
char50:
    .......
    .......
    ..@@@..
    .@...@.
    .....@.
    ....@..
    ...@...
    ..@....
    .@.....
    .@@@@@.
    .......
    .......
    .......

u+0033:
char51:
    .......
    .......
    ..@@@..
    .@...@.
    .....@.
    ...@@..
    .....@.
    .....@.
    .@...@.
    ..@@@..
    .......
    .......
    .......

u+0034:
char52:
    .......
    .......
    ....@..
    ...@@..
    ..@.@..
    .@..@..
    @...@..
    @@@@@@.
    ....@..
    ....@..
    .......
    .......
    .......

u+0035:
char53:
    .......
    .......
    .@@@@@.
    .@.....
    .@.....
    .@@@@..
    .....@.
    .....@.
    .@...@.
    ..@@@..
    .......
    .......
    .......

u+0036:
char54:
    .......
    .......
    ...@@..
    ..@....
    .@.....
    .@@@@..
    .@...@.
    .@...@.
    .@...@.
    ..@@@..
    .......
    .......
    .......

u+0037:
char55:
    .......
    .......
    .@@@@@.
    .....@.
    ....@..
    ....@..
    ...@...
    ...@...
    ..@....
    ..@....
    .......
    .......
    .......

u+0038:
char56:
    .......
    .......
    ..@@@..
    .@...@.
    .@...@.
    ..@@@..
    .@...@.
    .@...@.
    .@...@.
    ..@@@..
    .......
    .......
    .......

u+0039:
char57:
    .......
    .......
    ..@@@..
    .@...@.
    .@...@.
    .@...@.
    ..@@@@.
    .....@.
    ....@..
    ..@@...
    .......
    .......
    .......

u+003a:
char58:
    .......
    .......
    .......
    .......
    ...@...
    ...@...
    .......
    .......
    ...@...
    ...@...
    .......
    .......
    .......

u+003b:
char59:
    .......
    .......
    .......
    .......
    ..@....
    ..@....
    .......
    .......
    ..@....
    ..@....
    ..@....
    .@.....
    .......

u+003c:
char60:
    .......
    .......
    .......
    .....@.
    ....@..
    ...@...
    ..@....
    ...@...
    ....@..
    .....@.
    .......
    .......
    .......

u+003d:
char61:
    .......
    .......
    .......
    .......
    .......
    .@@@@@.
    .......
    .@@@@@.
    .......
    .......
    .......
    .......
    .......

u+003e:
char62:
    .......
    .......
    .......
    .@.....
    ..@....
    ...@...
    ....@..
    ...@...
    ..@....
    .@.....
    .......
    .......
    .......

u+003f:
char63:
    .......
    .......
    ..@@@..
    .@...@.
    .....@.
    ....@..
    ...@...
    ...@...
    .......
    ...@...
    .......
    .......
    .......

u+0040:
char64:
    .......
    .......
    ..@@@..
    .@...@.
    @..@@.@
    @.@.@.@
    @.@.@.@
    @..@@@.
    .@.....
    ..@@@@.
    .......
    .......
    .......

u+0041:
char65:
    .......
    .......
    ...@@..
    ...@@..
    ..@..@.
    ..@..@.
    ..@@@@.
    .@....@
    .@....@
    .@....@
    .......
    .......
    .......

u+0042:
char66:
    .......
    .......
    .@@@@..
    .@...@.
    .@...@.
    .@@@@@.
    .@....@
    .@....@
    .@....@
    .@@@@@.
    .......
    .......
    .......

u+0043:
char67:
    .......
    .......
    ...@@@.
    ..@...@
    .@.....
    .@.....
    .@.....
    .@.....
    ..@...@
    ...@@@.
    .......
    .......
    .......

u+0044:
char68:
    .......
    .......
    .@@@@..
    .@...@.
    .@....@
    .@....@
    .@....@
    .@....@
    .@...@.
    .@@@@..
    .......
    .......
    .......

u+0045:
char69:
    .......
    .......
    .@@@@@@
    .@.....
    .@.....
    .@@@@@.
    .@.....
    .@.....
    .@.....
    .@@@@@@
    .......
    .......
    .......

u+0046:
char70:
    .......
    .......
    .@@@@@.
    .@.....
    .@.....
    .@@@@..
    .@.....
    .@.....
    .@.....
    .@.....
    .......
    .......
    .......

u+0047:
char71:
    .......
    .......
    ...@@@.
    ..@...@
    .@.....
    .@.....
    .@..@@@
    .@....@
    ..@...@
    ...@@@.
    .......
    .......
    .......

u+0048:
char72:
    .......
    .......
    .@....@
    .@....@
    .@....@
    .@@@@@@
    .@....@
    .@....@
    .@....@
    .@....@
    .......
    .......
    .......

u+0049:
char73:
    .......
    .......
    ..@@@..
    ...@...
    ...@...
    ...@...
    ...@...
    ...@...
    ...@...
    ..@@@..
    .......
    .......
    .......

u+004a:
char74:
    .......
    .......
    ...@@@.
    .....@.
    .....@.
    .....@.
    .....@.
    .....@.
    .@...@.
    ..@@@..
    .......
    .......
    .......

u+004b:
char75:
    .......
    .......
    .@....@
    .@...@.
    .@..@..
    .@@@...
    .@.@...
    .@..@..
    .@...@.
    .@....@
    .......
    .......
    .......

u+004c:
char76:
    .......
    .......
    .@.....
    .@.....
    .@.....
    .@.....
    .@.....
    .@.....
    .@.....
    .@@@@@.
    .......
    .......
    .......

u+004d:
char77:
    .......
    .......
    .@....@
    .@@..@@
    .@@..@@
    .@.@@.@
    .@.@@.@
    .@....@
    .@....@
    .@....@
    .......
    .......
    .......

u+004e:
char78:
    .......
    .......
    .@@...@
    .@@...@
    .@.@..@
    .@.@..@
    .@..@.@
    .@..@.@
    .@...@@
    .@...@@
    .......
    .......
    .......

u+004f:
char79:
    .......
    .......
    ...@@..
    ..@..@.
    .@....@
    .@....@
    .@....@
    .@....@
    ..@..@.
    ...@@..
    .......
    .......
    .......

u+0050:
char80:
    .......
    .......
    .@@@@..
    .@...@.
    .@...@.
    .@...@.
    .@@@@..
    .@.....
    .@.....
    .@.....
    .......
    .......
    .......

u+0051:
char81:
    .......
    .......
    ...@@..
    ..@..@.
    .@....@
    .@....@
    .@....@
    .@....@
    ..@..@.
    ...@@.@
    ......@
    .......
    .......

u+0052:
char82:
    .......
    .......
    .@@@@..
    .@...@.
    .@...@.
    .@...@.
    .@@@@..
    .@..@..
    .@...@.
    .@....@
    .......
    .......
    .......

u+0053:
char83:
    .......
    .......
    ..@@@@.
    .@....@
    .@.....
    ..@@...
    ....@@.
    ......@
    .@....@
    ..@@@@.
    .......
    .......
    .......

u+0054:
char84:
    .......
    .......
    @@@@@@@
    ...@...
    ...@...
    ...@...
    ...@...
    ...@...
    ...@...
    ...@...
    .......
    .......
    .......

u+0055:
char85:
    .......
    .......
    .@....@
    .@....@
    .@....@
    .@....@
    .@....@
    .@....@
    .@....@
    ..@@@@.
    .......
    .......
    .......

u+0056:
char86:
    .......
    .......
    .@....@
    .@....@
    .@....@
    ..@..@.
    ..@..@.
    ..@..@.
    ...@@..
    ...@@..
    .......
    .......
    .......

u+0057:
char87:
    .......
    .......
    @.....@
    @..@..@
    @..@..@
    @.@.@.@
    @.@.@.@
    .@...@.
    .@...@.
    .@...@.
    .......
    .......
    .......

u+0058:
char88:
    .......
    .......
    .@....@
    .@....@
    ..@..@.
    ...@@..
    ...@@..
    ..@..@.
    .@....@
    .@....@
    .......
    .......
    .......

u+0059:
char89:
    .......
    .......
    @.....@
    @.....@
    .@...@.
    ..@.@..
    ...@...
    ...@...
    ...@...
    ...@...
    .......
    .......
    .......

u+005a:
char90:
    .......
    .......
    .@@@@@@
    ......@
    .....@.
    ....@..
    ...@...
    ..@....
    .@.....
    .@@@@@@
    .......
    .......
    .......

u+005b:
char91:
    .......
    ..@@@..
    ..@....
    ..@....
    ..@....
    ..@....
    ..@....
    ..@....
    ..@....
    ..@....
    ..@....
    ..@@@..
    .......

u+005c:
char92:
    .......
    .@.....
    .@.....
    ..@....
    ..@....
    ...@...
    ...@...
    ....@..
    ....@..
    .....@.
    .....@.
    .......
    .......

u+005d:
char93:
    .......
    ..@@@..
    ....@..
    ....@..
    ....@..
    ....@..
    ....@..
    ....@..
    ....@..
    ....@..
    ....@..
    ..@@@..
    .......

u+005e:
char94:
    .......
    ...@...
    ...@...
    ..@.@..
    ..@.@..
    .@...@.
    .@...@.
    .......
    .......
    .......
    .......
    .......
    .......

u+005f:
char95:
    .......
    .......
    .......
    .......
    .......
    .......
    .......
    .......
    .......
    .......
    @@@@@@@
    .......
    .......

u+0060:
char96:
    .......
    ..@....
    ...@...
    .......
    .......
    .......
    .......
    .......
    .......
    .......
    .......
    .......
    .......

u+0061:
char97:
    .......
    .......
    .......
    .......
    ..@@@..
    .....@.
    ..@@@@.
    .@...@.
    .@...@.
    ..@@@@.
    .......
    .......
    .......

u+0062:
char98:
    .......
    .@.....
    .@.....
    .@.....
    .@@@@..
    .@...@.
    .@...@.
    .@...@.
    .@...@.
    .@@@@..
    .......
    .......
    .......

u+0063:
char99:
    .......
    .......
    .......
    .......
    ..@@@..
    .@...@.
    .@.....
    .@.....
    .@...@.
    ..@@@..
    .......
    .......
    .......

u+0064:
char100:
    .......
    .....@.
    .....@.
    .....@.
    ..@@@@.
    .@...@.
    .@...@.
    .@...@.
    .@...@.
    ..@@@@.
    .......
    .......
    .......

u+0065:
char101:
    .......
    .......
    .......
    .......
    ..@@@..
    .@...@.
    .@@@@@.
    .@.....
    .@...@.
    ..@@@..
    .......
    .......
    .......

u+0066:
char102:
    .......
    ...@@@.
    ..@....
    ..@....
    .@@@@..
    ..@....
    ..@....
    ..@....
    ..@....
    ..@....
    .......
    .......
    .......

u+0067:
char103:
    .......
    .......
    .......
    .......
    ..@@@@.
    .@...@.
    .@...@.
    .@...@.
    .@...@.
    ..@@@@.
    .....@.
    .....@.
    ..@@@..

u+0068:
char104:
    .......
    .@.....
    .@.....
    .@.....
    .@@@@..
    .@...@.
    .@...@.
    .@...@.
    .@...@.
    .@...@.
    .......
    .......
    .......

u+0069:
char105:
    .......
    ...@...
    .......
    .......
    ..@@...
    ...@...
    ...@...
    ...@...
    ...@...
    ...@...
    .......
    .......
    .......

u+006a:
char106:
    .......
    ....@..
    .......
    .......
    ...@@..
    ....@..
    ....@..
    ....@..
    ....@..
    ....@..
    ....@..
    .@@@...
    .......

u+006b:
char107:
    .......
    .@.....
    .@.....
    .@.....
    .@...@.
    .@..@..
    .@.@...
    .@@@...
    .@..@..
    .@...@.
    .......
    .......
    .......

u+006c:
char108:
    .......
    ..@@...
    ...@...
    ...@...
    ...@...
    ...@...
    ...@...
    ...@...
    ...@...
    ...@...
    .......
    .......
    .......

u+006d:
char109:
    .......
    .......
    .......
    .......
    @@@.@@.
    @..@..@
    @..@..@
    @..@..@
    @..@..@
    @..@..@
    .......
    .......
    .......

u+006e:
char110:
    .......
    .......
    .......
    .......
    .@@@@..
    .@...@.
    .@...@.
    .@...@.
    .@...@.
    .@...@.
    .......
    .......
    .......

u+006f:
char111:
    .......
    .......
    .......
    .......
    ..@@@..
    .@...@.
    .@...@.
    .@...@.
    .@...@.
    ..@@@..
    .......
    .......
    .......

u+0070:
char112:
    .......
    .......
    .......
    .......
    .@@@@..
    .@...@.
    .@...@.
    .@...@.
    .@...@.
    .@@@@..
    .@.....
    .@.....
    .@.....

u+0071:
char113:
    .......
    .......
    .......
    .......
    ..@@@@.
    .@...@.
    .@...@.
    .@...@.
    .@...@.
    ..@@@@.
    .....@.
    .....@.
    .....@.

u+0072:
char114:
    .......
    .......
    .......
    .......
    .@.@@..
    .@@..@.
    .@.....
    .@.....
    .@.....
    .@.....
    .......
    .......
    .......

u+0073:
char115:
    .......
    .......
    .......
    .......
    ..@@@@.
    .@.....
    ..@@...
    ....@..
    .....@.
    .@@@@..
    .......
    .......
    .......

u+0074:
char116:
    .......
    .......
    ..@....
    ..@....
    .@@@@..
    ..@....
    ..@....
    ..@....
    ..@....
    ...@@@.
    .......
    .......
    .......

u+0075:
char117:
    .......
    .......
    .......
    .......
    .@...@.
    .@...@.
    .@...@.
    .@...@.
    .@...@.
    ..@@@@.
    .......
    .......
    .......

u+0076:
char118:
    .......
    .......
    .......
    .......
    .@...@.
    .@...@.
    ..@.@..
    ..@.@..
    ...@...
    ...@...
    .......
    .......
    .......

u+0077:
char119:
    .......
    .......
    .......
    .......
    @.....@
    @..@..@
    @..@..@
    @.@.@.@
    .@@.@@.
    .@...@.
    .......
    .......
    .......

u+0078:
char120:
    .......
    .......
    .......
    .......
    .@...@.
    ..@.@..
    ...@...
    ...@...
    ..@.@..
    .@...@.
    .......
    .......
    .......

u+0079:
char121:
    .......
    .......
    .......
    .......
    .@...@.
    .@...@.
    .@...@.
    .@...@.
    .@...@.
    ..@@@@.
    .....@.
    .@...@.
    ..@@@..

u+007a:
char122:
    .......
    .......
    .......
    .......
    .@@@@@.
    .....@.
    ....@..
    ...@...
    ..@....
    .@@@@@.
    .......
    .......
    .......

u+007b:
char123:
    .......
    ....@@.
    ...@...
    ...@...
    ...@...
    ...@...
    .@@....
    ...@...
    ...@...
    ...@...
    ...@...
    ....@@.
    .......

u+007c:
char124:
    .......
    ...@...
    ...@...
    ...@...
    ...@...
    ...@...
    ...@...
    ...@...
    ...@...
    ...@...
    ...@...
    ...@...
    .......

u+007d:
char125:
    .......
    .@@....
    ...@...
    ...@...
    ...@...
    ...@...
    ....@@.
    ...@...
    ...@...
    ...@...
    ...@...
    .@@....
    .......

u+007e:
char126:
    .......
    .......
    .......
    .......
    .......
    .@@@..@
    @..@@@.
    .......
    .......
    .......
    .......
    .......
    .......

u+007f:
char127:
    .......
    .......
    .......
    .......
    .......
    .......
    .......
    .......
    .......
    .......
    .......
    .......
    .......

u+0080:
char128:
    .......
    .......
    .......
    ...@@@.
    ..@...@
    .@@@@..
    ..@....
    .@@@@..
    ..@...@
    ...@@@.
    .......
    .......
    .......

u+0081:
char129:
    .......
    .......
    .......
    .......
    .......
    .......
    .......
    .......
    .......
    .......
    .......
    .......
    .......

u+0082:
char130:
    .......
    .......
    .......
    .......
    .......
    .......
    .......
    .......
    ...@...
    ...@...
    ...@...
    ..@....
    .......

u+0083:
char131:
    .......
    ....@@.
    ...@...
    ...@...
    ..@@@@.
    ...@...
    ...@...
    ...@...
    ...@...
    ...@...
    ...@...
    .@@....
    .......

u+0084:
char132:
    .......
    .......
    .......
    .......
    .......
    .......
    .......
    .......
    ..@.@..
    ..@.@..
    ..@.@..
    .......
    .......

u+0085:
char133:
    .......
    .......
    .......
    .......
    .......
    .......
    .......
    .......
    .......
    .@.@.@.
    .......
    .......
    .......

u+0086:
char134:
    .......
    ...@...
    ...@...
    .@@@@@.
    ...@...
    ...@...
    ...@...
    ...@...
    ...@...
    ...@...
    .......
    .......
    .......

u+0087:
char135:
    .......
    ...@...
    ...@...
    .@@@@@.
    ...@...
    .@@@@@.
    ...@...
    ...@...
    ...@...
    ...@...
    .......
    .......
    .......

u+0088:
char136:
    .......
    ...@...
    ..@.@..
    .@...@.
    .......
    .......
    .......
    .......
    .......
    .......
    .......
    .......
    .......

u+0089:
char137:
    .......
    .......
    ....@..
    .@..@..
    .@.@...
    ...@...
    ..@....
    ..@.@.@
    .@..@.@
    .@.....
    .......
    .......
    .......

u+008a:
char138:
    ..@.@..
    ...@...
    ..@@@@.
    .@....@
    .@.....
    ..@@...
    ....@@.
    ......@
    .@....@
    ..@@@@.
    .......
    .......
    .......

u+008b:
char139:
    .......
    .......
    .......
    .......
    ...@...
    ..@....
    .@.....
    ..@....
    ...@...
    .......
    .......
    .......
    .......

u+008c:
char140:
    .......
    .......
    .@@.@@@
    @..@...
    @..@...
    @..@@@.
    @..@...
    @..@...
    @..@...
    .@@.@@@
    .......
    .......
    .......

u+008d:
char141:
    .......
    .......
    .......
    .......
    .......
    .......
    .......
    .......
    .......
    .......
    .......
    .......
    .......

u+008e:
char142:
    ..@.@..
    ...@...
    .@@@@@@
    ......@
    .....@.
    ....@..
    ...@...
    ..@....
    .@.....
    .@@@@@@
    .......
    .......
    .......

u+008f:
char143:
    .......
    .......
    .......
    .......
    .......
    .......
    .......
    .......
    .......
    .......
    .......
    .......
    .......

u+0090:
char144:
    .......
    .......
    .......
    .......
    .......
    .......
    .......
    .......
    .......
    .......
    .......
    .......
    .......

u+0091:
char145:
    .......
    ...@...
    ...@...
    ....@..
    .......
    .......
    .......
    .......
    .......
    .......
    .......
    .......
    .......

u+0092:
char146:
    .......
    ...@...
    ...@...
    ..@....
    .......
    .......
    .......
    .......
    .......
    .......
    .......
    .......
    .......

u+0093:
char147:
    .......
    ..@.@..
    ..@.@..
    ...@.@.
    .......
    .......
    .......
    .......
    .......
    .......
    .......
    .......
    .......

u+0094:
char148:
    .......
    ..@.@..
    ..@.@..
    .@.@...
    .......
    .......
    .......
    .......
    .......
    .......
    .......
    .......
    .......

u+0095:
char149:
    .......
    .......
    .......
    .......
    ...@...
    ..@@@..
    .@@@@@.
    ..@@@..
    ...@...
    .......
    .......
    .......
    .......

u+0096:
char150:
    .......
    .......
    .......
    .......
    .......
    .......
    .@@@@@.
    .......
    .......
    .......
    .......
    .......
    .......

u+0097:
char151:
    .......
    .......
    .......
    .......
    .......
    .......
    @@@@@@@
    .......
    .......
    .......
    .......
    .......
    .......

u+0098:
char152:
    .......
    .......
    ..@.@..
    .@.@...
    .......
    .......
    .......
    .......
    .......
    .......
    .......
    .......
    .......

u+0099:
char153:
    .......
    .......
    @@@.@@@
    .@..@@@
    .@..@.@
    .@..@.@
    .......
    .......
    .......
    .......
    .......
    .......
    .......

u+009a:
char154:
    .......
    ..@.@..
    ...@...
    .......
    ..@@@@.
    .@.....
    ..@@...
    ....@..
    .....@.
    .@@@@..
    .......
    .......
    .......

u+009b:
char155:
    .......
    .......
    .......
    .......
    .@.....
    ..@....
    ...@...
    ..@....
    .@.....
    .......
    .......
    .......
    .......

u+009c:
char156:
    .......
    .......
    .......
    .......
    .@@.@@.
    @..@..@
    @..@@@@
    @..@...
    @..@..@
    .@@.@@.
    .......
    .......
    .......

u+009d:
char157:
    .......
    .......
    .......
    .......
    .......
    .......
    .......
    .......
    .......
    .......
    .......
    .......
    .......

u+009e:
char158:
    .......
    ..@.@..
    ...@...
    .......
    .@@@@@.
    .....@.
    ....@..
    ...@...
    ..@....
    .@@@@@.
    .......
    .......
    .......

u+009f:
char159:
    .......
    ..@.@..
    .......
    @.....@
    @.....@
    .@...@.
    ..@.@..
    ...@...
    ...@...
    ...@...
    .......
    .......
    .......

u+00a0:
char160:
    .......
    .......
    .......
    .......
    .......
    .......
    .......
    .......
    .......
    .......
    .......
    .......
    .......

u+00a1:
char161:
    .......
    .......
    ...@...
    .......
    ...@...
    ...@...
    ...@...
    ...@...
    ...@...
    ...@...
    .......
    .......
    .......

u+00a2:
char162:
    .......
    .......
    .......
    ...@...
    ..@@@..
    .@.@.@.
    .@.@...
    .@.@...
    .@.@.@.
    ..@@@..
    ...@...
    .......
    .......

u+00a3:
char163:
    .......
    .......
    ...@@..
    ..@....
    ..@....
    .@@@@..
    ..@....
    ..@....
    .@.....
    .@@@@@.
    .......
    .......
    .......

u+00a4:
char164:
    .......
    .......
    .......
    @.....@
    .@@@@@.
    .@...@.
    .@...@.
    .@...@.
    .@@@@@.
    @.....@
    .......
    .......
    .......

u+00a5:
char165:
    .......
    .......
    @.....@
    @.....@
    .@...@.
    ..@.@..
    ...@...
    .@@@@@.
    ...@...
    ...@...
    .......
    .......
    .......

u+00a6:
char166:
    .......
    ...@...
    ...@...
    ...@...
    ...@...
    ...@...
    .......
    ...@...
    ...@...
    ...@...
    ...@...
    ...@...
    .......

u+00a7:
char167:
    .......
    ..@@@..
    .@...@.
    .@.....
    ..@@...
    ..@.@..
    ...@@..
    .....@.
    .@...@.
    ..@@@..
    .......
    .......
    .......

u+00a8:
char168:
    .......
    ..@.@..
    .......
    .......
    .......
    .......
    .......
    .......
    .......
    .......
    .......
    .......
    .......

u+00a9:
char169:
    .......
    .......
    .@@@@@.
    @.....@
    @..@@.@
    @.@...@
    @.@...@
    @..@@.@
    @.....@
    .@@@@@.
    .......
    .......
    .......

u+00aa:
char170:
    .......
    .......
    ..@@...
    ....@..
    ..@@@..
    .@..@..
    ..@@@..
    .......
    .......
    .......
    .......
    .......
    .......

u+00ab:
char171:
    .......
    .......
    .......
    .......
    ...@.@.
    ..@.@..
    .@.@...
    ..@.@..
    ...@.@.
    .......
    .......
    .......
    .......

u+00ac:
char172:
    .......
    .......
    .......
    .......
    .......
    .......
    .@@@@..
    ....@..
    ....@..
    ....@..
    .......
    .......
    .......

u+00ad:
char173:
    .......
    .......
    .......
    .......
    .......
    .......
    .......
    .......
    .......
    .......
    .......
    .......
    .......

u+00ae:
char174:
    .......
    .......
    .@@@@@.
    @.....@
    @.@@..@
    @.@.@.@
    @.@@..@
    @.@.@.@
    @.....@
    .@@@@@.
    .......
    .......
    .......

u+00af:
char175:
    @@@@@@@
    .......
    .......
    .......
    .......
    .......
    .......
    .......
    .......
    .......
    .......
    .......
    .......

u+00b0:
char176:
    .......
    ..@@...
    .@..@..
    .@..@..
    ..@@...
    .......
    .......
    .......
    .......
    .......
    .......
    .......
    .......

u+00b1:
char177:
    .......
    .......
    .......
    ...@...
    ...@...
    .@@@@@.
    ...@...
    ...@...
    .......
    .@@@@@.
    .......
    .......
    .......

u+00b2:
char178:
    .......
    .@@@...
    ....@..
    ...@...
    ..@....
    .@@@@..
    .......
    .......
    .......
    .......
    .......
    .......
    .......

u+00b3:
char179:
    .......
    .@@@...
    ....@..
    ..@@...
    ....@..
    .@@@...
    .......
    .......
    .......
    .......
    .......
    .......
    .......

u+00b4:
char180:
    .......
    ....@..
    ...@...
    .......
    .......
    .......
    .......
    .......
    .......
    .......
    .......
    .......
    .......

u+00b5:
char181:
    .......
    .......
    .......
    .......
    .@...@.
    .@...@.
    .@...@.
    .@...@.
    .@@..@.
    .@.@@.@
    .@.....
    @......
    .......

u+00b6:
char182:
    .......
    .......
    ..@@@@@
    .@@@.@.
    .@@@.@.
    ..@@.@.
    ...@.@.
    ...@.@.
    ...@.@.
    ...@.@.
    ...@.@.
    .......
    .......

u+00b7:
char183:
    .......
    .......
    .......
    .......
    .......
    ..@@@..
    ..@@@..
    ..@@@..
    .......
    .......
    .......
    .......
    .......

u+00b8:
char184:
    .......
    .......
    .......
    .......
    .......
    .......
    .......
    .......
    .......
    .......
    ...@@..
    ....@..
    ...@...

u+00b9:
char185:
    .......
    ..@....
    .@@....
    ..@....
    ..@....
    .@@@...
    .......
    .......
    .......
    .......
    .......
    .......
    .......

u+00ba:
char186:
    .......
    ..@@...
    .@..@..
    .@..@..
    .@..@..
    ..@@...
    .......
    .......
    .......
    .......
    .......
    .......
    .......

u+00bb:
char187:
    .......
    .......
    .......
    .......
    .@.@...
    ..@.@..
    ...@.@.
    ..@.@..
    .@.@...
    .......
    .......
    .......
    .......

u+00bc:
char188:
    .....@.
    .@...@.
    .@..@..
    .@..@..
    .@.@...
    ...@...
    ..@..@.
    ..@.@@.
    .@.@@@@
    .@...@.
    .......
    .......
    .......

u+00bd:
char189:
    .....@.
    .@...@.
    .@..@..
    .@..@..
    .@.@...
    ...@@@.
    ..@...@
    ..@..@.
    .@..@..
    .@..@@@
    .......
    .......
    .......

u+00be:
char190:
    .....@.
    @@...@.
    ..@.@..
    .@@.@..
    ..@@...
    @@.@...
    ..@..@.
    ..@.@@.
    .@.@@@@
    .@...@.
    .......
    .......
    .......

u+00bf:
char191:
    .......
    .......
    ...@...
    .......
    ...@...
    ...@...
    ..@....
    .@.....
    .@...@.
    ..@@@..
    .......
    .......
    .......

u+00c0:
char192:
    ...@...
    ....@..
    .......
    ...@@..
    ..@..@.
    ..@..@.
    ..@@@@.
    .@....@
    .@....@
    .@....@
    .......
    .......
    .......

u+00c1:
char193:
    ....@..
    ...@...
    .......
    ...@@..
    ..@..@.
    ..@..@.
    ..@@@@.
    .@....@
    .@....@
    .@....@
    .......
    .......
    .......

u+00c2:
char194:
    ...@@..
    ..@..@.
    .......
    ...@@..
    ..@..@.
    ..@..@.
    ..@@@@.
    .@....@
    .@....@
    .@....@
    .......
    .......
    .......

u+00c3:
char195:
    ...@.@.
    ..@.@..
    .......
    ...@@..
    ..@..@.
    ..@..@.
    ..@@@@.
    .@....@
    .@....@
    .@....@
    .......
    .......
    .......

u+00c4:
char196:
    .......
    ..@..@.
    .......
    ...@@..
    ..@..@.
    ..@..@.
    ..@@@@.
    .@....@
    .@....@
    .@....@
    .......
    .......
    .......

u+00c5:
char197:
    ...@@..
    ..@..@.
    ..@..@.
    ...@@..
    ..@..@.
    ..@..@.
    ..@@@@.
    .@....@
    .@....@
    .@....@
    .......
    .......
    .......

u+00c6:
char198:
    .......
    .......
    ...@@@@
    ..@.@..
    ..@.@..
    .@..@@.
    .@@@@..
    @...@..
    @...@..
    @...@@@
    .......
    .......
    .......

u+00c7:
char199:
    .......
    .......
    ...@@@.
    ..@...@
    .@.....
    .@.....
    .@.....
    .@.....
    ..@...@
    ...@@@.
    ....@..
    ....@..
    ...@...

u+00c8:
char200:
    ..@....
    ...@...
    .......
    .@@@@@.
    .@.....
    .@.....
    .@@@@..
    .@.....
    .@.....
    .@@@@@.
    .......
    .......
    .......

u+00c9:
char201:
    ....@..
    ...@...
    .......
    .@@@@@.
    .@.....
    .@.....
    .@@@@..
    .@.....
    .@.....
    .@@@@@.
    .......
    .......
    .......

u+00ca:
char202:
    ...@...
    ..@.@..
    .......
    .@@@@@.
    .@.....
    .@.....
    .@@@@..
    .@.....
    .@.....
    .@@@@@.
    .......
    .......
    .......

u+00cb:
char203:
    .......
    ..@.@..
    .......
    .@@@@@.
    .@.....
    .@.....
    .@@@@..
    .@.....
    .@.....
    .@@@@@.
    .......
    .......
    .......

u+00cc:
char204:
    ...@...
    ....@..
    .......
    ..@@@..
    ...@...
    ...@...
    ...@...
    ...@...
    ...@...
    ..@@@..
    .......
    .......
    .......

u+00cd:
char205:
    ....@..
    ...@...
    .......
    ..@@@..
    ...@...
    ...@...
    ...@...
    ...@...
    ...@...
    ..@@@..
    .......
    .......
    .......

u+00ce:
char206:
    ...@...
    ..@.@..
    .......
    ..@@@..
    ...@...
    ...@...
    ...@...
    ...@...
    ...@...
    ..@@@..
    .......
    .......
    .......

u+00cf:
char207:
    .......
    ..@.@..
    .......
    ..@@@..
    ...@...
    ...@...
    ...@...
    ...@...
    ...@...
    ..@@@..
    .......
    .......
    .......

u+00d0:
char208:
    .......
    .......
    .......
    .@@@@..
    .@...@.
    .@....@
    @@@@..@
    .@....@
    .@...@.
    .@@@@..
    .......
    .......
    .......

u+00d1:
char209:
    ...@.@.
    ..@.@..
    .......
    .@@...@
    .@.@..@
    .@.@..@
    .@..@.@
    .@..@.@
    .@...@@
    .@...@@
    .......
    .......
    .......

u+00d2:
char210:
    ...@...
    ....@..
    .......
    ...@@..
    ..@..@.
    .@....@
    .@....@
    .@....@
    ..@..@.
    ...@@..
    .......
    .......
    .......

u+00d3:
char211:
    ....@..
    ...@...
    .......
    ...@@..
    ..@..@.
    .@....@
    .@....@
    .@....@
    ..@..@.
    ...@@..
    .......
    .......
    .......

u+00d4:
char212:
    ...@@..
    ..@..@.
    .......
    ...@@..
    ..@..@.
    .@....@
    .@....@
    .@....@
    ..@..@.
    ...@@..
    .......
    .......
    .......

u+00d5:
char213:
    ...@.@.
    ..@.@..
    .......
    ...@@..
    ..@..@.
    .@....@
    .@....@
    .@....@
    ..@..@.
    ...@@..
    .......
    .......
    .......

u+00d6:
char214:
    .......
    ..@..@.
    .......
    ...@@..
    ..@..@.
    .@....@
    .@....@
    .@....@
    ..@..@.
    ...@@..
    .......
    .......
    .......

u+00d7:
char215:
    .......
    .......
    .......
    .......
    .@...@.
    ..@.@..
    ...@...
    ..@.@..
    .@...@.
    .......
    .......
    .......
    .......

u+00d8:
char216:
    .......
    .......
    ...@@.@
    ..@..@.
    .@..@.@
    .@..@.@
    .@.@..@
    .@.@..@
    ..@..@.
    .@.@@..
    .......
    .......
    .......

u+00d9:
char217:
    ...@...
    ....@..
    .......
    .@....@
    .@....@
    .@....@
    .@....@
    .@....@
    .@....@
    ..@@@@.
    .......
    .......
    .......

u+00da:
char218:
    ....@..
    ...@...
    .......
    .@....@
    .@....@
    .@....@
    .@....@
    .@....@
    .@....@
    ..@@@@.
    .......
    .......
    .......

u+00db:
char219:
    ...@@..
    ..@..@.
    .......
    .@....@
    .@....@
    .@....@
    .@....@
    .@....@
    .@....@
    ..@@@@.
    .......
    .......
    .......

u+00dc:
char220:
    .......
    ..@..@.
    .......
    .@....@
    .@....@
    .@....@
    .@....@
    .@....@
    .@....@
    ..@@@@.
    .......
    .......
    .......

u+00dd:
char221:
    ....@..
    ...@...
    .......
    @.....@
    @.....@
    .@...@.
    ..@.@..
    ...@...
    ...@...
    ...@...
    .......
    .......
    .......

u+00de:
char222:
    .......
    .......
    .@.....
    .@.....
    .@@@@..
    .@...@.
    .@...@.
    .@@@@..
    .@.....
    .@.....
    .......
    .......
    .......

u+00df:
char223:
    .......
    ..@@@..
    .@...@.
    .@...@.
    .@@@@..
    .@...@.
    .@....@
    .@....@
    .@....@
    .@@@@@.
    @......
    .......
    .......

u+00e0:
char224:
    .......
    ...@...
    ....@..
    .......
    ..@@@..
    .....@.
    ..@@@@.
    .@...@.
    .@...@.
    ..@@@@.
    .......
    .......
    .......

u+00e1:
char225:
    .......
    ....@..
    ...@...
    .......
    ..@@@..
    .....@.
    ..@@@@.
    .@...@.
    .@...@.
    ..@@@@.
    .......
    .......
    .......

u+00e2:
char226:
    .......
    ...@...
    ..@.@..
    .......
    ..@@@..
    .....@.
    ..@@@@.
    .@...@.
    .@...@.
    ..@@@@.
    .......
    .......
    .......

u+00e3:
char227:
    .......
    ...@.@.
    ..@.@..
    .......
    ..@@@..
    .....@.
    ..@@@@.
    .@...@.
    .@...@.
    ..@@@@.
    .......
    .......
    .......

u+00e4:
char228:
    .......
    .......
    ..@.@..
    .......
    ..@@@..
    .....@.
    ..@@@@.
    .@...@.
    .@...@.
    ..@@@@.
    .......
    .......
    .......

u+00e5:
char229:
    ...@...
    ..@.@..
    ...@...
    .......
    ..@@@..
    .....@.
    ..@@@@.
    .@...@.
    .@...@.
    ..@@@@.
    .......
    .......
    .......

u+00e6:
char230:
    .......
    .......
    .......
    .......
    .@@.@@.
    ...@..@
    .@@@@@@
    @..@...
    @..@..@
    .@@@@@.
    .......
    .......
    .......

u+00e7:
char231:
    .......
    .......
    .......
    .......
    ..@@@..
    .@...@.
    .@.....
    .@.....
    .@...@.
    ..@@@..
    ...@...
    ...@...
    ..@....

u+00e8:
char232:
    .......
    ..@....
    ...@...
    .......
    ..@@@..
    .@...@.
    .@@@@@.
    .@.....
    .@...@.
    ..@@@..
    .......
    .......
    .......

u+00e9:
char233:
    .......
    ...@...
    ..@....
    .......
    ..@@@..
    .@...@.
    .@@@@@.
    .@.....
    .@...@.
    ..@@@..
    .......
    .......
    .......

u+00ea:
char234:
    .......
    ...@...
    ..@.@..
    .......
    ..@@@..
    .@...@.
    .@@@@@.
    .@.....
    .@...@.
    ..@@@..
    .......
    .......
    .......

u+00eb:
char235:
    .......
    .......
    ..@.@..
    .......
    ..@@@..
    .@...@.
    .@@@@@.
    .@.....
    .@...@.
    ..@@@..
    .......
    .......
    .......

u+00ec:
char236:
    .......
    ..@....
    ...@...
    .......
    ..@@...
    ...@...
    ...@...
    ...@...
    ...@...
    ...@...
    .......
    .......
    .......

u+00ed:
char237:
    .......
    ...@...
    ..@....
    .......
    ..@@...
    ...@...
    ...@...
    ...@...
    ...@...
    ...@...
    .......
    .......
    .......

u+00ee:
char238:
    .......
    ...@...
    ..@.@..
    .......
    ..@@...
    ...@...
    ...@...
    ...@...
    ...@...
    ...@...
    .......
    .......
    .......

u+00ef:
char239:
    .......
    ..@.@..
    .......
    .......
    ..@@...
    ...@...
    ...@...
    ...@...
    ...@...
    ...@...
    .......
    .......
    .......

u+00f0:
char240:
    .......
    ..@@.@.
    ....@..
    ...@.@.
    .....@.
    ..@@@@.
    .@...@.
    .@...@.
    .@...@.
    ..@@@..
    .......
    .......
    .......

u+00f1:
char241:
    .......
    ..@.@..
    .@.@...
    .......
    .@@@@..
    .@...@.
    .@...@.
    .@...@.
    .@...@.
    .@...@.
    .......
    .......
    .......

u+00f2:
char242:
    .......
    ..@....
    ...@...
    .......
    ..@@@..
    .@...@.
    .@...@.
    .@...@.
    .@...@.
    ..@@@..
    .......
    .......
    .......

u+00f3:
char243:
    .......
    ....@..
    ...@...
    .......
    ..@@@..
    .@...@.
    .@...@.
    .@...@.
    .@...@.
    ..@@@..
    .......
    .......
    .......

u+00f4:
char244:
    .......
    ...@...
    ..@.@..
    .......
    ..@@@..
    .@...@.
    .@...@.
    .@...@.
    .@...@.
    ..@@@..
    .......
    .......
    .......

u+00f5:
char245:
    .......
    ...@.@.
    ..@.@..
    .......
    ..@@@..
    .@...@.
    .@...@.
    .@...@.
    .@...@.
    ..@@@..
    .......
    .......
    .......

u+00f6:
char246:
    .......
    .......
    ..@.@..
    .......
    ..@@@..
    .@...@.
    .@...@.
    .@...@.
    .@...@.
    ..@@@..
    .......
    .......
    .......

u+00f7:
char247:
    .......
    .......
    .......
    .......
    ...@...
    .......
    .@@@@@.
    .......
    ...@...
    .......
    .......
    .......
    .......

u+00f8:
char248:
    .......
    .......
    .......
    .....@.
    ..@@@..
    .@..@@.
    .@.@.@.
    .@.@.@.
    .@@..@.
    ..@@@..
    .@.....
    .......
    .......

u+00f9:
char249:
    .......
    ..@....
    ...@...
    .......
    .@...@.
    .@...@.
    .@...@.
    .@...@.
    .@...@.
    ..@@@@.
    .......
    .......
    .......

u+00fa:
char250:
    .......
    ...@...
    ..@....
    .......
    .@...@.
    .@...@.
    .@...@.
    .@...@.
    .@...@.
    ..@@@@.
    .......
    .......
    .......

u+00fb:
char251:
    .......
    ...@...
    ..@.@..
    .......
    .@...@.
    .@...@.
    .@...@.
    .@...@.
    .@...@.
    ..@@@@.
    .......
    .......
    .......

u+00fc:
char252:
    .......
    .......
    ..@.@..
    .......
    .@...@.
    .@...@.
    .@...@.
    .@...@.
    .@...@.
    ..@@@@.
    .......
    .......
    .......

u+00fd:
char253:
    .......
    ....@..
    ...@...
    .......
    .@...@.
    .@...@.
    .@...@.
    .@...@.
    .@...@.
    ..@@@@.
    .....@.
    .....@.
    ..@@@..

u+00fe:
char254:
    .......
    .......
    .@.....
    .@.....
    .@@@@..
    .@...@.
    .@...@.
    .@...@.
    .@...@.
    .@@@@..
    .@.....
    .@.....
    .......

u+00ff:
char255:
    .......
    .......
    ..@.@..
    .......
    .@...@.
    .@...@.
    .@...@.
    .@...@.
    .@...@.
    ..@@@@.
    .....@.
    .....@.
    ..@@@..

u+0100:
Amacron:
    .......
    .@@@@..
    .......
    ..@@...
    .@..@..
    @....@.
    @....@.
    @@@@@@.
    @....@.
    @....@.
    @....@.
    .......
    .......

u+0101:
amacron:
    .......
    .......
    .......
    .@@@@..
    .......
    .@@@@..
    .....@.
    .@@@@@.
    @....@.
    @...@@.
    .@@@.@.
    .......
    .......

u+0102:
Abreve:
    .......
    @....@.
    .@@@@..
    .......
    ..@@...
    .@..@..
    @....@.
    @....@.
    @@@@@@.
    @....@.
    @....@.
    .......
    .......

u+0103:
abreve:
    .......
    .......
    @....@.
    .@@@@..
    .......
    .@@@@..
    .....@.
    .@@@@@.
    @....@.
    @...@@.
    .@@@.@.
    .......
    .......

u+0104:
Aogonek:
    .......
    .......
    ..@@...
    .@..@..
    @....@.
    @....@.
    @....@.
    @@@@@@.
    @....@.
    @....@.
    @....@.
    ....@..
    .....@@

u+0105:
aogonek:
    .......
    .......
    .......
    .......
    .......
    .@@@@..
    .....@.
    .@@@@@.
    @....@.
    @....@.
    .@@@@@.
    ....@..
    .....@@

u+0106:
Cacute:
    .......
    ...@...
    ..@....
    .......
    .@@@@..
    @....@.
    @......
    @......
    @......
    @....@.
    .@@@@..
    .......
    .......

u+0107:
cacute:
    .......
    .......
    ....@..
    ...@...
    .......
    .@@@@..
    @....@.
    @......
    @......
    @....@.
    .@@@@..
    .......
    .......

u+0108:
Ccircumflex:
    .......
    ..@@...
    .@..@..
    .......
    .@@@@..
    @....@.
    @......
    @......
    @......
    @....@.
    .@@@@..
    .......
    .......

u+0109:
ccircumflex:
    .......
    .......
    ..@@...
    .@..@..
    .......
    .@@@@..
    @....@.
    @......
    @......
    @....@.
    .@@@@..
    .......
    .......

u+010a:
Cdotaccent:
    .......
    ..@@...
    .......
    .@@@@..
    @....@.
    @......
    @......
    @......
    @......
    @....@.
    .@@@@..
    .......
    .......

u+010b:
cdotaccent:
    .......
    .......
    .......
    ..@@...
    .......
    .@@@@..
    @....@.
    @......
    @......
    @....@.
    .@@@@..
    .......
    .......

u+010c:
Ccaron:
    .......
    .@..@..
    ..@@...
    .......
    .@@@@..
    @....@.
    @......
    @......
    @......
    @....@.
    .@@@@..
    .......
    .......

u+010d:
ccaron:
    .......
    .......
    .@..@..
    ..@@...
    .......
    .@@@@..
    @....@.
    @......
    @......
    @....@.
    .@@@@..
    .......
    .......

u+010e:
Dcaron:
    .......
    .@..@..
    ..@@...
    .......
    @@@@@..
    .@...@.
    .@...@.
    .@...@.
    .@...@.
    .@...@.
    @@@@@..
    .......
    .......

u+010f:
dcaron:
    .......
    .@..@..
    ..@@...
    .....@.
    .....@.
    .@@@.@.
    @...@@.
    @....@.
    @....@.
    @...@@.
    .@@@.@.
    .......
    .......

u+0110:
Dcroat:
    .......
    .......
    @@@@@..
    .@...@.
    .@...@.
    .@...@.
    @@@..@.
    .@...@.
    .@...@.
    .@...@.
    @@@@@..
    .......
    .......

u+0111:
dcroat:
    .......
    .......
    .....@.
    ...@@@@
    .....@.
    .@@@.@.
    @...@@.
    @....@.
    @....@.
    @...@@.
    .@@@.@.
    .......
    .......

u+0112:
Emacron:
    .......
    .......
    .@@@@..
    .......
    @@@@@@.
    @......
    @......
    @@@@...
    @......
    @......
    @@@@@@.
    .......
    .......

u+0113:
emacron:
    .......
    .......
    .......
    .@@@@..
    .......
    .@@@@..
    @....@.
    @@@@@@.
    @......
    @....@.
    .@@@@..
    .......
    .......

u+0114:
Ebreve:
    .......
    @....@.
    .@@@@..
    .......
    @@@@@@.
    @......
    @......
    @@@@...
    @......
    @......
    @@@@@@.
    .......
    .......

u+0115:
ebreve:
    .......
    .......
    @....@.
    .@@@@..
    .......
    .@@@@..
    @....@.
    @@@@@@.
    @......
    @....@.
    .@@@@..
    .......
    .......

u+0116:
Edotaccent:
    .......
    ..@@...
    .......
    @@@@@@.
    @......
    @......
    @@@@...
    @......
    @......
    @......
    @@@@@@.
    .......
    .......

u+0117:
edotaccent:
    .......
    .......
    .......
    ..@@...
    .......
    .@@@@..
    @....@.
    @@@@@@.
    @......
    @....@.
    .@@@@..
    .......
    .......

u+0118:
Eogonek:
    .......
    .......
    @@@@@@.
    @......
    @......
    @......
    @@@@...
    @......
    @......
    @......
    @@@@@@.
    ..@....
    ...@@..

u+0119:
eogonek:
    .......
    .......
    .......
    .......
    .......
    .@@@@..
    @....@.
    @@@@@@.
    @......
    @....@.
    .@@@@..
    .@.....
    ..@@...

u+011a:
Ecaron:
    .......
    .@..@..
    ..@@...
    .......
    @@@@@@.
    @......
    @......
    @@@@...
    @......
    @......
    @@@@@@.
    .......
    .......

u+011b:
ecaron:
    .......
    .......
    .@..@..
    ..@@...
    .......
    .@@@@..
    @....@.
    @@@@@@.
    @......
    @....@.
    .@@@@..
    .......
    .......

u+011c:
Gcircumflex:
    .......
    ..@@...
    .@..@..
    .......
    .@@@@..
    @....@.
    @......
    @..@@@.
    @....@.
    @...@@.
    .@@@.@.
    .......
    .......

u+011d:
gcircumflex:
    .......
    .......
    ..@@...
    .@..@..
    .......
    .@@@.@.
    @...@..
    @...@..
    .@@@...
    @......
    .@@@@..
    @....@.
    .@@@@..

u+011e:
Gbreve:
    .......
    @....@.
    .@@@@..
    .......
    .@@@@..
    @....@.
    @......
    @..@@@.
    @....@.
    @...@@.
    .@@@.@.
    .......
    .......

u+011f:
gbreve:
    .......
    .......
    @....@.
    .@@@@..
    .......
    .@@@.@.
    @...@..
    @...@..
    .@@@...
    @......
    .@@@@..
    @....@.
    .@@@@..

u+0120:
Gdotaccent:
    .......
    ..@@...
    .......
    .@@@@..
    @....@.
    @......
    @......
    @..@@@.
    @....@.
    @...@@.
    .@@@.@.
    .......
    .......

u+0121:
gdotaccent:
    .......
    .......
    .......
    ..@@...
    .......
    .@@@.@.
    @...@..
    @...@..
    .@@@...
    @......
    .@@@@..
    @....@.
    .@@@@..

u+0122:
Gcommaaccent:
    .......
    .......
    .@@@@..
    @....@.
    @......
    @......
    @......
    @..@@@.
    @....@.
    @...@@.
    .@@@.@.
    ...@...
    ..@....

u+0123:
gcommaaccent:
    .......
    ...@...
    ..@....
    ..@@...
    .......
    .@@@.@.
    @...@..
    @...@..
    .@@@...
    @......
    .@@@@..
    @....@.
    .@@@@..

u+0124:
Hcircumflex:
    .......
    ..@@...
    .@..@..
    .......
    @....@.
    @....@.
    @....@.
    @@@@@@.
    @....@.
    @....@.
    @....@.
    .......
    .......

u+0125:
hcircumflex:
    .......
    ...@@..
    ..@..@.
    @......
    @......
    @......
    @.@@@..
    @@...@.
    @....@.
    @....@.
    @....@.
    .......
    .......

u+0126:
Hbar:
    .......
    .......
    .@...@.
    .@...@.
    @@@@@@@
    .@...@.
    .@@@@@.
    .@...@.
    .@...@.
    .@...@.
    .@...@.
    .......
    .......

u+0127:
hbar:
    .......
    .......
    .@.....
    @@@@@..
    .@.....
    .@.@@..
    .@@..@.
    .@...@.
    .@...@.
    .@...@.
    .@...@.
    .......
    .......

u+0128:
Itilde:
    .......
    ..@..@.
    .@.@@..
    .......
    .@@@@@.
    ...@...
    ...@...
    ...@...
    ...@...
    ...@...
    .@@@@@.
    .......
    .......

u+0129:
itilde:
    .......
    .......
    ..@..@.
    .@.@@..
    .......
    ..@@...
    ...@...
    ...@...
    ...@...
    ...@...
    .@@@@@.
    .......
    .......

u+012a:
Imacron:
    .......
    .@@@@@.
    .......
    .@@@@@.
    ...@...
    ...@...
    ...@...
    ...@...
    ...@...
    ...@...
    .@@@@@.
    .......
    .......

u+012b:
imacron:
    .......
    .......
    .......
    .@@@@@.
    .......
    ..@@...
    ...@...
    ...@...
    ...@...
    ...@...
    .@@@@@.
    .......
    .......

u+012c:
Ibreve:
    .......
    .@...@.
    ..@@@..
    .......
    .@@@@@.
    ...@...
    ...@...
    ...@...
    ...@...
    ...@...
    .@@@@@.
    .......
    .......

u+012d:
ibreve:
    .......
    .......
    .@...@.
    ..@@@..
    .......
    ..@@...
    ...@...
    ...@...
    ...@...
    ...@...
    .@@@@@.
    .......
    .......

u+012e:
Iogonek:
    .......
    .......
    .@@@@@.
    ...@...
    ...@...
    ...@...
    ...@...
    ...@...
    ...@...
    ...@...
    .@@@@@.
    ..@....
    ...@@..

u+012f:
iogonek:
    .......
    .......
    .......
    ...@...
    .......
    ..@@...
    ...@...
    ...@...
    ...@...
    ...@...
    .@@@@@.
    ..@....
    ...@@..

u+0130:
Idotaccent:
    .......
    ...@...
    .......
    .@@@@@.
    ...@...
    ...@...
    ...@...
    ...@...
    ...@...
    ...@...
    .@@@@@.
    .......
    .......

u+0131:
dotlessi:
    .......
    .......
    .......
    .......
    .......
    ..@@...
    ...@...
    ...@...
    ...@...
    ...@...
    .@@@@@.
    .......
    .......

u+0132:
IJ:
    .......
    .......
    @..@@@.
    @...@..
    @...@..
    @...@..
    @...@..
    @...@..
    @...@..
    @.@.@..
    @..@...
    .......
    .......

u+0133:
ij:
    .......
    .......
    .......
    .@...@.
    .......
    .@..@@.
    .@...@.
    .@...@.
    .@...@.
    .@...@.
    .@.@.@.
    ...@.@.
    ....@..

u+0134:
Jcircumflex:
    .......
    ...@@..
    ..@..@.
    .......
    ...@@@.
    ....@..
    ....@..
    ....@..
    ....@..
    @...@..
    .@@@...
    .......
    .......

u+0135:
jcircumflex:
    .......
    .......
    ...@@..
    ..@..@.
    .......
    ...@@..
    ....@..
    ....@..
    ....@..
    ....@..
    @...@..
    @...@..
    .@@@...

u+0136:
Kcommaaccent:
    .......
    .......
    @....@.
    @...@..
    @..@...
    @.@....
    @@.....
    @.@....
    @..@...
    @...@..
    @....@.
    .@.....
    @......

u+0137:
kcommaaccent:
    .......
    .......
    @......
    @......
    @......
    @...@..
    @..@...
    @@@....
    @..@...
    @...@..
    @....@.
    .@.....
    @......

u+0138:
kgreenlandic:
    .......
    .......
    .......
    .......
    @....@.
    @...@..
    @..@...
    @@@....
    @..@...
    @...@..
    @....@.
    .......
    .......

u+0139:
Lacute:
    .......
    .@.....
    @......
    .......
    @......
    @......
    @......
    @......
    @......
    @......
    @@@@@@.
    .......
    .......

u+013a:
lacute:
    .......
    ...@...
    ..@....
    .......
    ..@@...
    ...@...
    ...@...
    ...@...
    ...@...
    ...@...
    .@@@@@.
    .......
    .......

u+013b:
Lcommaaccent:
    .......
    .......
    @......
    @......
    @......
    @......
    @......
    @......
    @......
    @......
    @@@@@@.
    ...@...
    ..@....

u+013c:
lcommaaccent:
    .......
    .......
    ..@@...
    ...@...
    ...@...
    ...@...
    ...@...
    ...@...
    ...@...
    ...@...
    .@@@@@.
    ...@...
    ..@....

u+013d:
Lcaron:
    .......
    @..@...
    .@@....
    .......
    @......
    @......
    @......
    @......
    @......
    @......
    @@@@@@.
    .......
    .......

u+013e:
lcaron:
    .......
    .@..@..
    ..@@...
    .......
    ..@@...
    ...@...
    ...@...
    ...@...
    ...@...
    ...@...
    .@@@@@.
    .......
    .......

u+013f:
Ldot:
    .......
    .......
    @......
    @......
    @......
    @..@...
    @..@...
    @......
    @......
    @......
    @@@@@@.
    .......
    .......

u+0140:
ldot:
    .......
    .......
    .@@....
    ..@....
    ..@....
    ..@..@.
    ..@..@.
    ..@....
    ..@....
    ..@....
    @@@@@..
    .......
    .......

u+0141:
Lslash:
    .......
    .......
    .@.....
    .@.....
    .@.@...
    .@@....
    @@.....
    .@.....
    .@.....
    .@.....
    .@@@@@.
    .......
    .......

u+0142:
lslash:
    .......
    .......
    .@@....
    ..@....
    ..@.@..
    ..@@...
    .@@....
    ..@....
    ..@....
    ..@....
    @@@@@..
    .......
    .......

u+0143:
Nacute:
    .......
    ...@...
    ..@....
    .......
    @....@.
    @@...@.
    @.@..@.
    @.@..@.
    @..@.@.
    @...@@.
    @....@.
    .......
    .......

u+0144:
nacute:
    .......
    .......
    ...@...
    ..@....
    .......
    @.@@@..
    @@...@.
    @....@.
    @....@.
    @....@.
    @....@.
    .......
    .......

u+0145:
Ncommaaccent:
    .......
    .......
    @....@.
    @....@.
    @@...@.
    @.@..@.
    @..@.@.
    @...@@.
    @....@.
    @....@.
    @....@.
    .@.....
    @......

u+0146:
ncommaaccent:
    .......
    .......
    .......
    .......
    .......
    @.@@@..
    @@...@.
    @....@.
    @....@.
    @....@.
    @....@.
    .@.....
    @......

u+0147:
Ncaron:
    .......
    .@..@..
    ..@@...
    .......
    @....@.
    @@...@.
    @.@..@.
    @.@..@.
    @..@.@.
    @...@@.
    @....@.
    .......
    .......

u+0148:
ncaron:
    .......
    .......
    .@..@..
    ..@@...
    .......
    @.@@@..
    @@...@.
    @....@.
    @....@.
    @....@.
    @....@.
    .......
    .......

u+0149:
napostrophe:
    .......
    @@.....
    .@.....
    @......
    .......
    .@.@@..
    .@@..@.
    .@...@.
    .@...@.
    .@...@.
    .@...@.
    .......
    .......

u+014a:
Eng:
    .......
    .......
    @....@.
    @....@.
    @@...@.
    @.@..@.
    @..@.@.
    @...@@.
    @....@.
    @....@.
    @....@.
    .....@.
    ...@@..

u+014b:
eng:
    .......
    .......
    .......
    .......
    .......
    @.@@@..
    @@...@.
    @....@.
    @....@.
    @....@.
    @....@.
    .....@.
    ...@@..

u+014c:
Omacron:
    .......
    .......
    .@@@@..
    .......
    .@@@@..
    @....@.
    @....@.
    @....@.
    @....@.
    @....@.
    .@@@@..
    .......
    .......

u+014d:
omacron:
    .......
    .......
    .......
    .@@@@..
    .......
    .@@@@..
    @....@.
    @....@.
    @....@.
    @....@.
    .@@@@..
    .......
    .......

u+014e:
Obreve:
    .......
    @....@.
    .@@@@..
    .......
    .@@@@..
    @....@.
    @....@.
    @....@.
    @....@.
    @....@.
    .@@@@..
    .......
    .......

u+014f:
obreve:
    .......
    .......
    @....@.
    .@@@@..
    .......
    .@@@@..
    @....@.
    @....@.
    @....@.
    @....@.
    .@@@@..
    .......
    .......

u+0150:
Ohungarumlaut:
    .......
    ..@..@.
    .@..@..
    .......
    .@@@@..
    @....@.
    @....@.
    @....@.
    @....@.
    @....@.
    .@@@@..
    .......
    .......

u+0151:
ohungarumlaut:
    .......
    .......
    ..@..@.
    .@..@..
    .......
    .@@@@..
    @....@.
    @....@.
    @....@.
    @....@.
    .@@@@..
    .......
    .......

u+0152:
OE:
    .......
    .......
    .@@@@@.
    @..@...
    @..@...
    @..@...
    @..@@@.
    @..@...
    @..@...
    @..@...
    .@@@@@.
    .......
    .......

u+0153:
oe:
    .......
    .......
    .......
    .......
    .......
    .@@.@..
    @..@.@.
    @..@@@.
    @..@...
    @..@.@.
    .@@.@..
    .......
    .......

u+0154:
Racute:
    .......
    ...@...
    ..@....
    .......
    @@@@@..
    @....@.
    @....@.
    @@@@@..
    @..@...
    @...@..
    @....@.
    .......
    .......

u+0155:
racute:
    .......
    .......
    ...@...
    ..@....
    .......
    @.@@@..
    .@...@.
    .@.....
    .@.....
    .@.....
    .@.....
    .......
    .......

u+0156:
Rcommaaccent:
    .......
    .......
    @@@@@..
    @....@.
    @....@.
    @....@.
    @@@@@@.
    @.@....
    @..@...
    @...@..
    @....@.
    .@.....
    @......

u+0157:
rcommaaccent:
    .......
    .......
    .......
    .......
    .......
    @.@@@..
    .@...@.
    .@.....
    .@.....
    .@.....
    .@.....
    .@.....
    @......

u+0158:
Rcaron:
    .......
    .@..@..
    ..@@...
    .......
    @@@@@..
    @....@.
    @....@.
    @@@@@..
    @..@...
    @...@..
    @....@.
    .......
    .......

u+0159:
rcaron:
    .......
    .......
    .@..@..
    ..@@...
    .......
    @.@@@..
    .@...@.
    .@.....
    .@.....
    .@.....
    .@.....
    .......
    .......

u+015a:
Sacute:
    .......
    ...@...
    ..@....
    .......
    .@@@@..
    @....@.
    @......
    .@@@@..
    .....@.
    @....@.
    .@@@@..
    .......
    .......

u+015b:
sacute:
    .......
    .......
    ...@...
    ..@....
    .......
    .@@@@..
    @....@.
    .@@....
    ...@@..
    @....@.
    .@@@@..
    .......
    .......

u+015c:
Scircumflex:
    .......
    ..@@...
    .@..@..
    .......
    .@@@@..
    @....@.
    @......
    .@@@@..
    .....@.
    @....@.
    .@@@@..
    .......
    .......

u+015d:
scircumflex:
    .......
    .......
    ..@@...
    .@..@..
    .......
    .@@@@..
    @....@.
    .@@....
    ...@@..
    @....@.
    .@@@@..
    .......
    .......

u+015e:
Scedilla:
    .......
    .......
    .@@@@..
    @....@.
    @......
    @......
    .@@@@..
    .....@.
    .....@.
    @....@.
    .@@@@..
    ...@...
    ..@....

u+015f:
scedilla:
    .......
    .......
    .......
    .......
    .......
    .@@@@..
    @....@.
    .@@....
    ...@@..
    @....@.
    .@@@@..
    ...@...
    ..@....

u+0160:
Scaron:
    .......
    .@..@..
    ..@@...
    .......
    .@@@@..
    @....@.
    @......
    .@@@@..
    .....@.
    @....@.
    .@@@@..
    .......
    .......

u+0161:
scaron:
    .......
    .......
    .@..@..
    ..@@...
    .......
    .@@@@..
    @....@.
    .@@....
    ...@@..
    @....@.
    .@@@@..
    .......
    .......

u+0162:
Tcommaaccent:
    .......
    .......
    .@@@@@.
    ...@...
    ...@...
    ...@...
    ...@...
    ...@...
    ...@...
    ...@...
    ...@...
    ....@..
    ...@...

u+0163:
tcommaaccent:
    .......
    .......
    .......
    .@.....
    .@.....
    @@@@...
    .@.....
    .@.....
    .@.....
    .@...@.
    ..@@@..
    ...@...
    ..@....

u+0164:
Tcaron:
    .......
    ..@..@.
    ...@@..
    .......
    .@@@@@.
    ...@...
    ...@...
    ...@...
    ...@...
    ...@...
    ...@...
    .......
    .......

u+0165:
tcaron:
    .......
    .@..@..
    ..@@...
    .......
    .@.....
    @@@@...
    .@.....
    .@.....
    .@.....
    .@...@.
    ..@@@..
    .......
    .......

u+0166:
Tbar:
    .......
    .......
    .@@@@@.
    ...@...
    ...@...
    ...@...
    .@@@@@.
    ...@...
    ...@...
    ...@...
    ...@...
    .......
    .......

u+0167:
tbar:
    .......
    .......
    .@.....
    @@@@...
    .@.....
    .@.....
    @@@@...
    .@.....
    .@.....
    .@...@.
    ..@@@..
    .......
    .......

u+0168:
Utilde:
    .......
    .@@..@.
    @..@@..
    .......
    @....@.
    @....@.
    @....@.
    @....@.
    @....@.
    @....@.
    .@@@@..
    .......
    .......

u+0169:
utilde:
    .......
    .......
    .@@..@.
    @..@@..
    .......
    @....@.
    @....@.
    @....@.
    @....@.
    @...@@.
    .@@@.@.
    .......
    .......

u+016a:
Umacron:
    .......
    .......
    .@@@@..
    .......
    @....@.
    @....@.
    @....@.
    @....@.
    @....@.
    @....@.
    .@@@@..
    .......
    .......

u+016b:
umacron:
    .......
    .......
    .......
    .@@@@..
    .......
    @....@.
    @....@.
    @....@.
    @....@.
    @...@@.
    .@@@.@.
    .......
    .......

u+016c:
Ubreve:
    .......
    @....@.
    .@@@@..
    .......
    @....@.
    @....@.
    @....@.
    @....@.
    @....@.
    @....@.
    .@@@@..
    .......
    .......

u+016d:
ubreve:
    .......
    .......
    @....@.
    .@@@@..
    .......
    @....@.
    @....@.
    @....@.
    @....@.
    @...@@.
    .@@@.@.
    .......
    .......

u+016e:
Uring:
    .......
    ..@@...
    .@..@..
    ..@@...
    @....@.
    @....@.
    @....@.
    @....@.
    @....@.
    @....@.
    .@@@@..
    .......
    .......

u+016f:
uring:
    .......
    ..@@...
    .@..@..
    ..@@...
    .......
    @....@.
    @....@.
    @....@.
    @....@.
    @...@@.
    .@@@.@.
    .......
    .......

u+0170:
Uhungarumlaut:
    .......
    ..@..@.
    .@..@..
    .......
    @....@.
    @....@.
    @....@.
    @....@.
    @....@.
    @....@.
    .@@@@..
    .......
    .......

u+0171:
uhungarumlaut:
    .......
    .......
    ..@..@.
    .@..@..
    .......
    @....@.
    @....@.
    @....@.
    @....@.
    @...@@.
    .@@@.@.
    .......
    .......

u+0172:
Uogonek:
    .......
    .......
    @....@.
    @....@.
    @....@.
    @....@.
    @....@.
    @....@.
    @....@.
    @....@.
    .@@@@..
    ..@....
    ...@...

u+0173:
uogonek:
    .......
    .......
    .......
    .......
    .......
    @....@.
    @....@.
    @....@.
    @....@.
    @...@@.
    .@@@.@.
    ..@....
    ...@...

u+0174:
Wcircumflex:
    .......
    ..@@...
    .@..@..
    .......
    @....@.
    @....@.
    @.@@.@.
    @.@@.@.
    @@..@@.
    @@..@@.
    @....@.
    .......
    .......

u+0175:
wcircumflex:
    .......
    .......
    ...@...
    ..@.@..
    .......
    .@...@.
    .@...@.
    .@.@.@.
    .@.@.@.
    .@.@.@.
    ..@.@..
    .......
    .......

u+0176:
Ycircumflex:
    .......
    ...@...
    ..@.@..
    .......
    .@...@.
    .@...@.
    ..@.@..
    ...@...
    ...@...
    ...@...
    ...@...
    .......
    .......

u+0177:
ycircumflex:
    .......
    .......
    ..@@...
    .@..@..
    .......
    @....@.
    @....@.
    @....@.
    @...@@.
    .@@@.@.
    .....@.
    @....@.
    .@@@@..

u+0178:
Ydieresis:
    .......
    .@...@.
    .@...@.
    .......
    .@...@.
    .@...@.
    ..@.@..
    ...@...
    ...@...
    ...@...
    ...@...
    .......
    .......

u+0179:
Zacute:
    .......
    ...@...
    ..@....
    .......
    @@@@@@.
    ....@..
    ...@...
    ..@....
    .@.....
    @......
    @@@@@@.
    .......
    .......

u+017a:
zacute:
    .......
    .......
    ...@...
    ..@....
    .......
    @@@@@@.
    ....@..
    ...@...
    ..@....
    .@.....
    @@@@@@.
    .......
    .......

u+017b:
Zdotaccent:
    .......
    ..@@...
    .......
    @@@@@@.
    .....@.
    ....@..
    ...@...
    ..@....
    .@.....
    @......
    @@@@@@.
    .......
    .......

u+017c:
zdotaccent:
    .......
    .......
    .......
    ..@@...
    .......
    @@@@@@.
    ....@..
    ...@...
    ..@....
    .@.....
    @@@@@@.
    .......
    .......

u+017d:
Zcaron:
    .......
    .@..@..
    ..@@...
    .......
    @@@@@@.
    ....@..
    ...@...
    ..@....
    .@.....
    @......
    @@@@@@.
    .......
    .......

u+017e:
zcaron:
    .......
    .......
    .@..@..
    ..@@...
    .......
    @@@@@@.
    ....@..
    ...@...
    ..@....
    .@.....
    @@@@@@.
    .......
    .......

u+017f:
longs:
    .......
    .......
    ..@@...
    .@..@..
    .@.....
    @@.....
    .@.....
    .@.....
    .@.....
    .@.....
    .@.....
    .......
    .......

u+0180:
uni0180:
    .......
    .......
    .@.....
    @@@@...
    .@.....
    .@@@@..
    .@...@.
    .@...@.
    .@...@.
    .@...@.
    .@@@@..
    .......
    .......

u+0181:
uni0181:
    .......
    .......
    @@@@@..
    ..@..@.
    ..@..@.
    ..@..@.
    ..@@@..
    ..@..@.
    ..@..@.
    ..@..@.
    ..@@@..
    .......
    .......

u+0182:
uni0182:
    .......
    .......
    @@@@@..
    .@.....
    .@.....
    .@.....
    .@@@@..
    .@...@.
    .@...@.
    .@...@.
    @@@@@..
    .......
    .......

u+0183:
uni0183:
    .......
    .......
    @@@@@..
    @......
    @......
    @.@@@..
    @@...@.
    @....@.
    @....@.
    @@...@.
    @.@@@..
    .......
    .......

u+0184:
uni0184:
    .......
    .......
    ..@....
    .@@....
    @@@....
    @@@....
    ..@@@..
    ..@..@.
    ..@..@.
    ..@..@.
    .@@@@..
    .......
    .......

u+0185:
uni0185:
    .......
    .......
    .@.....
    @@.....
    @@.....
    @@.@@..
    .@@..@.
    .@...@.
    .@...@.
    .@@..@.
    .@.@@..
    .......
    .......

u+0186:
uni0186:
    .......
    .......
    .@@@@..
    @....@.
    .....@.
    .....@.
    .....@.
    .....@.
    .....@.
    @....@.
    .@@@@..
    .......
    .......

u+0187:
uni0187:
    .......
    .....@@
    .@@@@@.
    @....@.
    @......
    @......
    @......
    @......
    @......
    @....@.
    .@@@@..
    .......
    .......

u+0188:
uni0188:
    .......
    .......
    .......
    .......
    .....@@
    .@@@@@.
    @....@.
    @......
    @......
    @....@.
    .@@@@..
    .......
    .......

u+0189:
uni0189:
    .......
    .......
    @@@@@..
    .@...@.
    .@...@.
    .@...@.
    @@@..@.
    .@...@.
    .@...@.
    .@...@.
    @@@@@..
    .......
    .......

u+018a:
uni018A:
    .......
    .......
    @@@@@..
    ..@..@.
    ..@..@.
    ..@..@.
    ..@..@.
    ..@..@.
    ..@..@.
    ..@..@.
    ..@@@..
    .......
    .......

u+018b:
uni018B:
    .......
    .......
    .@@@@@.
    .....@.
    .....@.
    .@@@@@.
    @....@.
    @....@.
    @....@.
    @....@.
    .@@@@@.
    .......
    .......

u+018c:
uni018C:
    .......
    .......
    ..@@@@.
    .....@.
    .....@.
    ..@@.@.
    .@..@@.
    .@...@.
    .@...@.
    .@..@@.
    ..@@.@.
    .......
    .......

u+018d:
uni018D:
    .......
    .......
    .......
    .......
    .......
    .@@@@..
    @....@.
    @....@.
    @....@.
    @....@.
    .@@@@..
    .@..@..
    ..@@...

u+018e:
uni018E:
    .......
    .......
    @@@@@@.
    .....@.
    .....@.
    .....@.
    ..@@@@.
    .....@.
    .....@.
    .....@.
    @@@@@@.
    .......
    .......

u+018f:
uni018F:
    .......
    .......
    .@@@@..
    @....@.
    .....@.
    .....@.
    @@@@@@.
    @....@.
    @....@.
    @....@.
    .@@@@..
    .......
    .......

u+0190:
uni0190:
    .......
    .......
    .@@@@..
    @....@.
    @......
    @......
    .@@@...
    @......
    @......
    @....@.
    .@@@@..
    .......
    .......

u+0191:
uni0191:
    .......
    .......
    .@@@@@.
    .@.....
    .@.....
    .@.....
    .@@@...
    .@.....
    .@.....
    .@.....
    .@.....
    @......
    .......

u+0192:
florin:
    .......
    .......
    ...@@..
    ..@..@.
    ..@....
    ..@....
    .@@@@..
    ..@....
    ..@....
    ..@....
    @.@....
    .@.....
    .......

u+0193:
uni0193:
    .......
    ....@@.
    .@@@@..
    @...@..
    @......
    @......
    @......
    @.@@@..
    @...@..
    @..@@..
    .@@.@..
    .......
    .......

u+0194:
uni0194:
    .......
    .......
    @....@.
    @....@.
    @....@.
    .@..@..
    .@..@..
    .@..@..
    ..@@...
    .@..@..
    .@..@..
    ..@@...
    .......

u+0195:
uni0195:
    .......
    .......
    @......
    @......
    @......
    @@..@..
    @.@..@.
    @.@..@.
    @.@..@.
    @.@..@.
    @..@@..
    .......
    .......

u+0196:
uni0196:
    .......
    .......
    .@@....
    ..@....
    ..@....
    ..@....
    ..@....
    ..@....
    ..@....
    ..@....
    ...@@..
    .......
    .......

u+0197:
uni0197:
    .......
    .......
    .@@@@@.
    ...@...
    ...@...
    ...@...
    ..@@@..
    ...@...
    ...@...
    ...@...
    .@@@@@.
    .......
    .......

u+0198:
uni0198:
    .......
    .......
    @....@.
    @...@.@
    @..@..@
    @.@....
    @@.....
    @.@....
    @..@...
    @...@..
    @....@.
    .......
    .......

u+0199:
uni0199:
    .......
    .@@....
    @..@...
    @......
    @......
    @...@..
    @..@...
    @@@....
    @..@...
    @...@..
    @....@.
    .......
    .......

u+019a:
uni019A:
    .......
    .......
    ..@@...
    ...@...
    ...@...
    ...@...
    .@@@@@.
    ...@...
    ...@...
    ...@...
    .@@@@@.
    .......
    .......

u+019b:
uni019B:
    .......
    .....@.
    .@@.@..
    ...@...
    ..@@...
    .@.@...
    @..@@..
    ..@.@..
    ..@.@..
    .@...@.
    .@...@.
    .......
    .......

u+019c:
uni019C:
    .......
    .......
    .@.@.@.
    .@.@.@.
    .@.@.@.
    .@.@.@.
    .@.@.@.
    .@.@.@.
    .@.@.@.
    .@.@.@.
    ..@.@@.
    .......
    .......

u+019d:
uni019D:
    .......
    .......
    .@...@.
    .@...@.
    .@@..@.
    .@.@.@.
    .@..@@.
    .@...@.
    .@...@.
    .@...@.
    .@...@.
    @......
    .......

u+019e:
uni019E:
    .......
    .......
    .......
    .......
    .......
    @.@@@..
    @@...@.
    @....@.
    @....@.
    @....@.
    @....@.
    .....@.
    .....@.

u+019f:
uni019F:
    .......
    .......
    .......
    .......
    .......
    .@@@@..
    @....@.
    @@@@@@.
    @....@.
    @....@.
    .@@@@..
    .......
    .......

u+01a0:
Ohorn:
    .......
    ......@
    .@@@@.@
    @....@.
    @....@.
    @....@.
    @....@.
    @....@.
    @....@.
    @....@.
    .@@@@..
    .......
    .......

u+01a1:
ohorn:
    .......
    .......
    .......
    .......
    ......@
    .@@@@.@
    @....@.
    @....@.
    @....@.
    @....@.
    .@@@@..
    .......
    .......

u+01a2:
uni01A2:
    .......
    .......
    .@@....
    @..@@..
    @..@.@.
    @..@.@.
    @..@.@.
    @..@.@.
    @..@.@.
    @..@.@.
    .@@..@.
    .....@.
    .......

u+01a3:
uni01A3:
    .......
    .......
    .......
    .......
    .......
    .@@....
    @..@@..
    @..@.@.
    @..@.@.
    @..@.@.
    .@@..@.
    .....@.
    .....@.

u+01a4:
uni01A4:
    .......
    .......
    @@@@@..
    ..@..@.
    ..@..@.
    ..@..@.
    ..@@@..
    ..@....
    ..@....
    ..@....
    ..@....
    .......
    .......

u+01a5:
uni01A5:
    .......
    .......
    .......
    .....@.
    ....@..
    @.@@...
    @@..@..
    @...@..
    @@..@..
    @.@@...
    @......
    @......
    @......

u+01a6:
uni01A6:
    .......
    @......
    @......
    @@@@@..
    @....@.
    @....@.
    @@@@@..
    @@.....
    @.@....
    @..@...
    @...@..
    .....@.
    .......

u+01a7:
uni01A7:
    .......
    .......
    .@@@@..
    @....@.
    .....@.
    .....@.
    .@@@@..
    @......
    @......
    @....@.
    .@@@@..
    .......
    .......

u+01a8:
uni01A8:
    .......
    .......
    .......
    .......
    .......
    .@@@@..
    @....@.
    ...@@..
    .@@....
    @....@.
    .@@@@..
    .......
    .......

u+01a9:
uni01A9:
    .......
    .......
    @@@@@@.
    @......
    .@.....
    ..@....
    ...@...
    ..@....
    .@.....
    @......
    @@@@@@.
    .......
    .......

u+01aa:
uni01AA:
    ..@....
    .@.@...
    ..@@...
    ...@...
    ...@...
    ...@...
    ...@...
    ...@...
    ...@...
    ...@.@.
    ....@..
    .......
    .......

u+01ab:
uni01AB:
    .......
    .......
    .......
    .@.....
    .@.....
    @@@@...
    .@.....
    .@.....
    .@.....
    .@...@.
    ..@@@@.
    .....@.
    ...@@..

u+01ac:
uni01AC:
    .......
    .......
    .@@@@@.
    @..@...
    @..@...
    ...@...
    ...@...
    ...@...
    ...@...
    ...@...
    ...@...
    .......
    .......

u+01ad:
uni01AD:
    .......
    ..@@...
    .@..@..
    .@.....
    .@.....
    @@@@...
    .@.....
    .@.....
    .@.....
    .@...@.
    ..@@@..
    .......
    .......

u+01ae:
uni01AE:
    .......
    .......
    @@@@@..
    ..@....
    ..@....
    ..@....
    ..@....
    ..@....
    ..@....
    ..@....
    ..@....
    ..@..@.
    ...@@..

u+01af:
Uhorn:
    .....@.
    .....@.
    @...@@.
    @...@..
    @...@..
    @...@..
    @...@..
    @...@..
    @...@..
    @...@..
    .@@@...
    .......
    .......

u+01b0:
uhorn:
    .......
    .......
    .......
    .....@.
    .....@.
    @...@@.
    @...@..
    @...@..
    @...@..
    @..@@..
    .@@.@..
    .......
    .......

u+01b1:
uni01B1:
    .......
    .......
    .@..@..
    .@..@..
    @....@.
    @....@.
    @....@.
    @....@.
    @....@.
    .@..@..
    ..@@...
    .......
    .......

u+01b2:
uni01B2:
    .......
    .......
    @...@..
    @...@..
    @....@.
    @....@.
    @....@.
    @....@.
    @....@.
    .@..@..
    ..@@...
    .......
    .......

u+01b3:
uni01B3:
    .......
    .......
    @....@.
    .@...@.
    ..@.@..
    ..@.@..
    ...@...
    ...@...
    ...@...
    ...@...
    ...@...
    .......
    .......

u+01b4:
uni01B4:
    .......
    .......
    .......
    .......
    ......@
    @....@.
    @....@.
    @....@.
    @...@@.
    .@@@.@.
    .....@.
    @....@.
    .@@@@..

u+01b5:
uni01B5:
    .......
    .......
    @@@@@@.
    .....@.
    ....@..
    ...@...
    .@@@@..
    ..@....
    .@.....
    @......
    @@@@@@.
    .......
    .......

u+01b6:
uni01B6:
    .......
    .......
    .......
    .......
    .......
    @@@@@@.
    ....@..
    .@@@@..
    ..@....
    .@.....
    @@@@@@.
    .......
    .......

u+01b7:
uni01B7:
    .......
    .......
    @@@@@..
    ...@...
    ..@....
    .@@@...
    ....@..
    .....@.
    .....@.
    @....@.
    .@@@@..
    .......
    .......

u+01b8:
uni01B8:
    .......
    .......
    .@@@@@.
    ..@....
    ...@...
    ..@@@..
    .@.....
    @......
    @......
    @....@.
    .@@@@..
    .......
    .......

u+01b9:
uni01B9:
    .......
    .......
    .......
    .......
    .......
    @@@@@@.
    .@.....
    ..@....
    .@@@...
    @......
    @......
    @....@.
    .@@@@..

u+01ba:
uni01BA:
    .......
    .......
    .......
    .......
    .......
    @@@@@@.
    ....@..
    ...@...
    ..@@...
    ....@..
    .@@@...
    @....@.
    .@@@@..

u+01bb:
uni01BB:
    .......
    .......
    .@@@@..
    @....@.
    @....@.
    .....@.
    ....@..
    @@@@@@.
    .@.....
    @......
    @@@@@@.
    .......
    .......

u+01bc:
uni01BC:
    .......
    .......
    @@@@@@.
    @....@.
    @......
    @@.....
    ..@@...
    ....@..
    .....@.
    @....@.
    .@@@@..
    .......
    .......

u+01bd:
uni01BD:
    .......
    .......
    .......
    .......
    .......
    .@@@@..
    .@.....
    ..@@...
    ....@..
    .@..@..
    ..@@...
    .......
    .......

u+01be:
uni01BE:
    .......
    .......
    ...@...
    ...@...
    ..@@@..
    ...@...
    ...@@..
    .....@.
    .....@.
    .@...@.
    ..@@@..
    .......
    .......

u+01bf:
uni01BF:
    .......
    .......
    .......
    .......
    .......
    @.@@@..
    @@...@.
    @...@..
    @..@...
    @.@....
    @@.....
    @......
    @......

u+01c0:
uni01C0:
    .......
    .......
    ...@...
    ...@...
    ...@...
    ...@...
    ...@...
    ...@...
    ...@...
    ...@...
    ...@...
    .......
    .......

u+01c1:
uni01C1:
    .......
    .......
    ..@.@..
    ..@.@..
    ..@.@..
    ..@.@..
    ..@.@..
    ..@.@..
    ..@.@..
    ..@.@..
    ..@.@..
    .......
    .......

u+01c2:
uni01C2:
    .......
    .......
    ...@...
    ...@...
    ...@...
    ..@@@..
    ...@...
    ..@@@..
    ...@...
    ...@...
    ...@...
    .......
    .......

u+01c3:
uni01C3:
    .......
    .......
    ...@...
    ...@...
    ...@...
    ...@...
    ...@...
    ...@...
    ...@...
    .......
    ...@...
    .......
    .......

u+01c4:
uni01C4:
    ...@.@.
    ....@..
    .......
    @@.@@@.
    @.@..@.
    @.@.@..
    @.@.@..
    @.@.@..
    @.@@...
    @.@@...
    @@.@@@.
    .......
    .......

u+01c5:
uni01C5:
    .......
    .......
    @@.@.@.
    @.@.@..
    @.@....
    @.@@@@.
    @.@..@.
    @.@.@..
    @.@.@..
    @.@@...
    @@.@@@.
    .......
    .......

u+01c6:
uni01C6:
    .......
    .......
    ..@@.@.
    ..@.@..
    ..@....
    .@@@@@.
    @.@..@.
    @.@.@..
    @.@.@..
    @.@@...
    .@@@@@.
    .......
    .......

u+01c7:
uni01C7:
    .......
    .......
    @....@.
    @....@.
    @....@.
    @....@.
    @....@.
    @....@.
    @....@.
    @..@.@.
    @@@.@..
    .......
    .......

u+01c8:
uni01C8:
    .......
    .......
    @......
    @....@.
    @......
    @...@@.
    @....@.
    @....@.
    @....@.
    @....@.
    @@@@.@.
    ...@.@.
    ....@..

u+01c9:
uni01C9:
    .......
    .......
    @@.....
    .@...@.
    .@.....
    .@..@@.
    .@...@.
    .@...@.
    .@...@.
    .@...@.
    @@@..@.
    .....@.
    ...@@..

u+01ca:
uni01CA:
    .......
    .......
    @..@.@@
    @..@..@
    @@.@..@
    @.@@..@
    @..@..@
    @..@..@
    @..@..@
    @..@@.@
    @..@.@.
    .......
    .......

u+01cb:
uni01CB:
    .......
    .......
    @..@...
    @..@..@
    @@.@...
    @.@@..@
    @..@..@
    @..@..@
    @..@..@
    @..@..@
    @..@..@
    ...@..@
    ....@@.

u+01cc:
uni01CC:
    .......
    .......
    .......
    .....@.
    .......
    @@..@@.
    @.@..@.
    @.@..@.
    @.@..@.
    @.@..@.
    @.@..@.
    ..@..@.
    ...@@..

u+01cd:
uni01CD:
    .......
    .@..@..
    ..@@...
    .......
    ..@@...
    .@..@..
    @....@.
    @....@.
    @@@@@@.
    @....@.
    @....@.
    .......
    .......

u+01ce:
uni01CE:
    .......
    .......
    .@..@..
    ..@@...
    .......
    .@@@@..
    .....@.
    .@@@@@.
    @....@.
    @...@@.
    .@@@.@.
    .......
    .......

u+01cf:
uni01CF:
    .......
    ..@.@..
    ...@...
    .......
    .@@@@@.
    ...@...
    ...@...
    ...@...
    ...@...
    ...@...
    .@@@@@.
    .......
    .......

u+01d0:
uni01D0:
    .......
    .......
    ..@.@..
    ...@...
    .......
    ..@@...
    ...@...
    ...@...
    ...@...
    ...@...
    .@@@@@.
    .......
    .......

u+01d1:
uni01D1:
    .......
    .@..@..
    ..@@...
    .......
    .@@@@..
    @....@.
    @....@.
    @....@.
    @....@.
    @....@.
    .@@@@..
    .......
    .......

u+01d2:
uni01D2:
    .......
    .......
    .@..@..
    ..@@...
    .......
    .@@@@..
    @....@.
    @....@.
    @....@.
    @....@.
    .@@@@..
    .......
    .......

u+01d3:
uni01D3:
    .......
    .@..@..
    ..@@...
    .......
    @....@.
    @....@.
    @....@.
    @....@.
    @....@.
    @....@.
    .@@@@..
    .......
    .......

u+01d4:
uni01D4:
    .......
    .......
    .@..@..
    ..@@...
    .......
    @....@.
    @....@.
    @....@.
    @....@.
    @...@@.
    .@@@.@.
    .......
    .......

u+01d5:
uni01D5:
    .@@@@..
    .......
    .@..@..
    .......
    @....@.
    @....@.
    @....@.
    @....@.
    @....@.
    @....@.
    .@@@@..
    .......
    .......

u+01d6:
uni01D6:
    .......
    .@@@@..
    .......
    .@..@..
    .......
    @....@.
    @....@.
    @....@.
    @....@.
    @...@@.
    .@@@.@.
    .......
    .......

u+01d7:
uni01D7:
    ...@...
    ..@....
    @...@..
    .......
    @....@.
    @....@.
    @....@.
    @....@.
    @....@.
    @....@.
    .@@@@..
    .......
    .......

u+01d8:
uni01D8:
    .......
    ...@...
    ..@....
    @...@..
    .......
    @....@.
    @....@.
    @....@.
    @....@.
    @...@@.
    .@@@.@.
    .......
    .......

u+01d9:
uni01D9:
    .@.@...
    ..@....
    @...@..
    .......
    @....@.
    @....@.
    @....@.
    @....@.
    @....@.
    @....@.
    .@@@@..
    .......
    .......

u+01da:
uni01DA:
    .......
    .@.@...
    ..@....
    @...@..
    .......
    @....@.
    @....@.
    @....@.
    @....@.
    @...@@.
    .@@@.@.
    .......
    .......

u+01db:
uni01DB:
    .@.....
    ..@....
    @...@..
    .......
    @....@.
    @....@.
    @....@.
    @....@.
    @....@.
    @....@.
    .@@@@..
    .......
    .......

u+01dc:
uni01DC:
    .......
    .@.....
    ..@....
    @...@..
    .......
    @....@.
    @....@.
    @....@.
    @....@.
    @...@@.
    .@@@.@.
    .......
    .......

u+01dd:
uni01DD:
    .......
    .......
    .......
    .......
    .......
    .@@@@..
    @....@.
    .....@.
    @@@@@@.
    @....@.
    .@@@@..
    .......
    .......

u+01de:
uni01DE:
    .@@@@..
    .......
    .@..@..
    .......
    ..@@...
    .@..@..
    @....@.
    @....@.
    @@@@@@.
    @....@.
    @....@.
    .......
    .......

u+01df:
uni01DF:
    .......
    .@@@@..
    .......
    .@..@..
    .......
    .@@@@..
    .....@.
    .@@@@@.
    @....@.
    @...@@.
    .@@@.@.
    .......
    .......

u+01e0:
uni01E0:
    .@@@@@.
    .......
    ...@...
    .......
    ..@@...
    .@..@..
    @....@.
    @....@.
    @@@@@@.
    @....@.
    @....@.
    .......
    .......

u+01e1:
uni01E1:
    .......
    .@@@@@.
    .......
    ...@...
    .......
    .@@@@..
    .....@.
    .@@@@@.
    @....@.
    @...@@.
    .@@@.@.
    .......
    .......

u+01e2:
uni01E2:
    .@@@@@.
    .......
    .@@@@@.
    @.@....
    @.@....
    @.@....
    @.@@@..
    @@@....
    @.@....
    @.@....
    @.@@@@.
    .......
    .......

u+01e3:
uni01E3:
    .......
    .......
    .......
    .@@@@@.
    .......
    .@@.@..
    ...@.@.
    .@@@@@.
    @..@...
    @..@.@.
    .@@.@..
    .......
    .......

u+01e4:
uni01E4:
    .......
    .......
    .@@@@..
    @....@.
    @......
    @......
    @..@@@.
    @....@.
    @..@@@@
    @....@.
    .@@@@..
    .......
    .......

u+01e5:
uni01E5:
    .......
    .......
    .......
    .......
    .......
    .@@@.@.
    @...@..
    @...@..
    .@@@...
    @......
    .@@@@..
    @..@@@@
    .@@@@..

u+01e6:
Gcaron:
    .@..@..
    ..@@...
    .......
    .@@@@..
    @....@.
    @......
    @......
    @..@@@.
    @....@.
    @...@@.
    .@@@.@.
    .......
    .......

u+01e7:
gcaron:
    .......
    .......
    .@..@..
    ..@@...
    .......
    .@@@.@.
    @...@..
    @...@..
    .@@@...
    @......
    .@@@@..
    @....@.
    .@@@@..

u+01e8:
uni01E8:
    .@..@..
    ..@@...
    @....@.
    @...@..
    @..@...
    @.@....
    @@.....
    @.@....
    @..@...
    @...@..
    @....@.
    .......
    .......

u+01e9:
uni01E9:
    .@..@..
    ..@@...
    @......
    @......
    @......
    @...@..
    @..@...
    @@@....
    @..@...
    @...@..
    @....@.
    .......
    .......

u+01ea:
uni01EA:
    .......
    .......
    .@@@@..
    @....@.
    @....@.
    @....@.
    @....@.
    @....@.
    @....@.
    @....@.
    .@@@@..
    ..@....
    ..@@...

u+01eb:
uni01EB:
    .......
    .......
    .......
    .......
    .......
    .@@@@..
    @....@.
    @....@.
    @....@.
    @....@.
    .@@@@..
    ..@....
    ..@@...

u+01ec:
uni01EC:
    .@@@@..
    .......
    .@@@@..
    @....@.
    @....@.
    @....@.
    @....@.
    @....@.
    @....@.
    @....@.
    .@@@@..
    ..@....
    ..@@...

u+01ed:
uni01ED:
    .......
    .......
    .......
    .@@@@..
    .......
    .@@@@..
    @....@.
    @....@.
    @....@.
    @....@.
    .@@@@..
    ..@....
    ..@@...

u+01ee:
uni01EE:
    .@..@..
    ..@@...
    .......
    @@@@@@.
    ....@..
    ...@...
    ..@@@..
    .....@.
    .....@.
    @....@.
    .@@@@..
    .......
    .......

u+01ef:
uni01EF:
    .......
    .......
    .@..@..
    ..@@...
    .......
    @@@@@@.
    ....@..
    ...@...
    ..@@@..
    .....@.
    .....@.
    @....@.
    .@@@@..

u+01f0:
uni01F0:
    .......
    .......
    ..@..@.
    ...@@..
    .......
    ...@@..
    ....@..
    ....@..
    ....@..
    ....@..
    @...@..
    @...@..
    .@@@...

u+01f1:
uni01F1:
    .......
    .......
    @@.@@@.
    @.@..@.
    @.@..@.
    @.@.@..
    @.@.@..
    @.@.@..
    @.@@...
    @.@@...
    @@.@@@.
    .......
    .......

u+01f2:
uni01F2:
    .......
    .......
    @@.....
    @.@....
    @.@....
    @.@@@@.
    @.@..@.
    @.@.@..
    @.@.@..
    @.@@...
    @@.@@@.
    .......
    .......

u+01f3:
uni01F3:
    .......
    .......
    ..@....
    ..@....
    ..@....
    .@@@@@.
    @.@..@.
    @.@.@..
    @.@.@..
    @.@@...
    .@@@@@.
    .......
    .......

u+01f4:
uni01F4:
    ...@...
    ..@....
    .......
    .@@@@..
    @....@.
    @......
    @......
    @..@@@.
    @....@.
    @...@@.
    .@@@.@.
    .......
    .......

u+01f5:
uni01F5:
    .......
    .......
    ...@...
    ..@....
    .......
    .@@@.@.
    @...@..
    @...@..
    .@@@...
    @......
    .@@@@..
    @....@.
    .@@@@..

u+01f6:
uni01F6:
    .......
    .......
    @..@...
    @..@...
    @..@...
    @@@@.@.
    @..@.@.
    @..@.@.
    @..@.@.
    @..@.@.
    @...@..
    .......
    .......

u+01f7:
uni01F7:
    .......
    .......
    @.@@@..
    @@...@.
    @....@.
    @...@..
    @..@...
    @.@....
    @@.....
    @......
    @......
    .......
    .......

u+01f8:
uni01F8:
    .......
    ..@....
    ...@...
    .......
    @....@.
    @@...@.
    @.@..@.
    @.@..@.
    @..@.@.
    @...@@.
    @....@.
    .......
    .......

u+01f9:
uni01F9:
    .......
    .......
    ..@....
    ...@...
    .......
    @.@@@..
    @@...@.
    @....@.
    @....@.
    @....@.
    @....@.
    .......
    .......

u+01fa:
Aringacute:
    ...@...
    ..@....
    ..@@...
    .@..@..
    ..@@...
    ..@@...
    .@..@..
    @....@.
    @@@@@@.
    @....@.
    @....@.
    .......
    .......

u+01fb:
aringacute:
    ...@...
    ..@....
    ..@@...
    .@..@..
    ..@@...
    .@@@@..
    .....@.
    .@@@@@.
    @....@.
    @...@@.
    .@@@.@.
    .......
    .......

u+01fc:
AEacute:
    ...@...
    ..@....
    .......
    .@@@@@.
    @.@....
    @.@....
    @.@@@..
    @@@....
    @.@....
    @.@....
    @.@@@@.
    .......
    .......

u+01fd:
aeacute:
    .......
    .......
    ....@..
    ...@...
    .......
    .@@.@..
    ...@.@.
    .@@@@@.
    @..@...
    @..@.@.
    .@@.@..
    .......
    .......

u+01fe:
Oslashacute:
    ...@...
    ..@....
    .....@.
    .@@@@..
    @...@@.
    @..@.@.
    @..@.@.
    @.@..@.
    @.@..@.
    @@...@.
    .@@@@..
    @......
    .......

u+01ff:
oslashacute:
    .......
    .......
    ...@...
    ..@....
    .....@.
    .@@@@..
    @...@@.
    @..@.@.
    @.@..@.
    @@...@.
    .@@@@..
    @......
    .......

u+0200:
uni0200:
    @..@...
    .@..@..
    .......
    ..@@...
    .@..@..
    @....@.
    @....@.
    @@@@@@.
    @....@.
    @....@.
    @....@.
    .......
    .......

u+0201:
uni0201:
    .......
    .......
    @..@...
    .@..@..
    .......
    .@@@@..
    .....@.
    .@@@@@.
    @....@.
    @...@@.
    .@@@.@.
    .......
    .......

u+0202:
uni0202:
    .@@@@..
    @....@.
    .......
    ..@@...
    .@..@..
    @....@.
    @....@.
    @@@@@@.
    @....@.
    @....@.
    @....@.
    .......
    .......

u+0203:
uni0203:
    .......
    .......
    .@@@@..
    @....@.
    .......
    .@@@@..
    .....@.
    .@@@@@.
    @....@.
    @...@@.
    .@@@.@.
    .......
    .......

u+0204:
uni0204:
    @..@...
    .@..@..
    .......
    @@@@@@.
    @......
    @......
    @@@@...
    @......
    @......
    @......
    @@@@@@.
    .......
    .......

u+0205:
uni0205:
    .......
    .......
    @..@...
    .@..@..
    .......
    .@@@@..
    @....@.
    @@@@@@.
    @......
    @....@.
    .@@@@..
    .......
    .......

u+0206:
uni0206:
    .@@@@..
    @....@.
    .......
    @@@@@@.
    @......
    @......
    @@@@...
    @......
    @......
    @......
    @@@@@@.
    .......
    .......

u+0207:
uni0207:
    .......
    .......
    .@@@@..
    @....@.
    .......
    .@@@@..
    @....@.
    @@@@@@.
    @......
    @....@.
    .@@@@..
    .......
    .......

u+0208:
uni0208:
    .......
    .@..@..
    ..@..@.
    .......
    .@@@@@.
    ...@...
    ...@...
    ...@...
    ...@...
    ...@...
    .@@@@@.
    .......
    .......

u+0209:
uni0209:
    .......
    .......
    .@..@..
    ..@..@.
    .......
    ..@@...
    ...@...
    ...@...
    ...@...
    ...@...
    .@@@@@.
    .......
    .......

u+020a:
uni020A:
    .......
    ..@@@..
    .@...@.
    .......
    .@@@@@.
    ...@...
    ...@...
    ...@...
    ...@...
    ...@...
    .@@@@@.
    .......
    .......

u+020b:
uni020B:
    .......
    .......
    ..@@@..
    .@...@.
    .......
    ..@@...
    ...@...
    ...@...
    ...@...
    ...@...
    .@@@@@.
    .......
    .......

u+020c:
uni020C:
    @..@...
    .@..@..
    .......
    .@@@@..
    @....@.
    @....@.
    @....@.
    @....@.
    @....@.
    @....@.
    .@@@@..
    .......
    .......

u+020d:
uni020D:
    .......
    .......
    @..@...
    .@..@..
    .......
    .@@@@..
    @....@.
    @....@.
    @....@.
    @....@.
    .@@@@..
    .......
    .......

u+020e:
uni020E:
    .@@@@..
    @....@.
    .......
    .@@@@..
    @....@.
    @....@.
    @....@.
    @....@.
    @....@.
    @....@.
    .@@@@..
    .......
    .......

u+020f:
uni020F:
    .......
    .......
    .@@@@..
    @....@.
    .......
    .@@@@..
    @....@.
    @....@.
    @....@.
    @....@.
    .@@@@..
    .......
    .......

u+0210:
uni0210:
    .......
    @..@...
    .@..@..
    .......
    @@@@@..
    @....@.
    @....@.
    @@@@@..
    @..@...
    @...@..
    @....@.
    .......
    .......

u+0211:
uni0211:
    .......
    .......
    @..@...
    .@..@..
    .......
    @.@@@..
    .@...@.
    .@.....
    .@.....
    .@.....
    .@.....
    .......
    .......

u+0212:
uni0212:
    .......
    .@@@@..
    @....@.
    .......
    @@@@@..
    @....@.
    @....@.
    @@@@@..
    @..@...
    @...@..
    @....@.
    .......
    .......

u+0213:
uni0213:
    .......
    .......
    .@@@@..
    @....@.
    .......
    @.@@@..
    .@...@.
    .@.....
    .@.....
    .@.....
    .@.....
    .......
    .......

u+0214:
uni0214:
    .......
    @...@..
    .@...@.
    .......
    @....@.
    @....@.
    @....@.
    @....@.
    @....@.
    @....@.
    .@@@@..
    .......
    .......

u+0215:
uni0215:
    .......
    .......
    @...@..
    .@...@.
    .......
    @....@.
    @....@.
    @....@.
    @....@.
    @...@@.
    .@@@.@.
    .......
    .......

u+0216:
uni0216:
    .......
    .@@@@..
    @....@.
    .......
    @....@.
    @....@.
    @....@.
    @....@.
    @....@.
    @....@.
    .@@@@..
    .......
    .......

u+0217:
uni0217:
    .......
    .......
    .@@@@..
    @....@.
    .......
    @....@.
    @....@.
    @....@.
    @....@.
    @...@@.
    .@@@.@.
    .......
    .......

u+0218:
Scommaaccent:
    .......
    .......
    .@@@@..
    @....@.
    @......
    @......
    .@@@@..
    .....@.
    .....@.
    @....@.
    .@@@@..
    ...@...
    ..@....

u+0219:
scommaaccent:
    .......
    .......
    .......
    .......
    .......
    .@@@@..
    @....@.
    .@@....
    ...@@..
    @....@.
    .@@@@..
    ...@...
    ..@....

u+021a:
Tcommaaccent:
    .......
    .......
    .@@@@@.
    ...@...
    ...@...
    ...@...
    ...@...
    ...@...
    ...@...
    ...@...
    ...@...
    ....@..
    ...@...

u+021b:
tcommaaccent:
    .......
    .......
    .......
    .@.....
    .@.....
    @@@@...
    .@.....
    .@.....
    .@.....
    .@...@.
    ..@@@..
    ...@...
    ..@....

u+021c:
uni021C:
    .......
    .......
    @@@@@..
    ...@...
    ..@....
    .@@@...
    ....@..
    .....@.
    .....@.
    @....@.
    .@@@@..
    .......
    .......

u+021d:
uni021D:
    .......
    .......
    .......
    .......
    .......
    @@@@@@.
    ....@..
    ...@...
    ..@@@..
    .....@.
    .....@.
    @....@.
    .@@@@..

u+021e:
uni021E:
    .......
    .@..@..
    ..@@...
    .......
    @....@.
    @....@.
    @....@.
    @@@@@@.
    @....@.
    @....@.
    @....@.
    .......
    .......

u+021f:
uni021F:
    .......
    .@..@..
    ..@@...
    @......
    @......
    @......
    @.@@@..
    @@...@.
    @....@.
    @....@.
    @....@.
    .......
    .......

u+0222:
uni0222:
    .......
    .......
    .@..@..
    @....@.
    @....@.
    @....@.
    .@@@@..
    @....@.
    @....@.
    @....@.
    .@@@@..
    .......
    .......

u+0223:
uni0223:
    .......
    .......
    .......
    ..@.@..
    .@...@.
    .@...@.
    ..@@@..
    .@...@.
    .@...@.
    .@...@.
    ..@@@..
    .......
    .......

u+0224:
uni0224:
    .......
    .......
    @@@@@@.
    .....@.
    ....@..
    ...@...
    ..@@...
    ..@....
    .@.....
    @......
    @@@@@@.
    .....@.
    ...@@..

u+0225:
uni0225:
    .......
    .......
    .......
    .......
    .......
    @@@@@@.
    ....@..
    ...@...
    ..@....
    .@.....
    @@@@@@.
    .....@.
    ...@@..

u+0226:
uni0226:
    .......
    ..@@...
    .......
    ..@@...
    .@..@..
    @....@.
    @....@.
    @@@@@@.
    @....@.
    @....@.
    @....@.
    .......
    .......

u+0227:
uni0227:
    .......
    .......
    .......
    ..@@...
    .......
    .@@@@..
    .....@.
    .@@@@@.
    @....@.
    @...@@.
    .@@@.@.
    .......
    .......

u+0228:
uni0228:
    .......
    .......
    @@@@@@.
    @......
    @......
    @......
    @@@@...
    @......
    @......
    @......
    @@@@@@.
    ...@...
    .@@....

u+0229:
uni0229:
    .......
    .......
    .......
    .......
    .......
    .@@@@..
    @....@.
    @@@@@@.
    @......
    @....@.
    .@@@@..
    ....@..
    ..@@...

u+022a:
uni022A:
    .@@@@..
    .......
    .@..@..
    .......
    .@@@@..
    @....@.
    @....@.
    @....@.
    @....@.
    @....@.
    .@@@@..
    .......
    .......

u+022b:
uni022B:
    .......
    .@@@@..
    .......
    .@..@..
    .......
    .@@@@..
    @....@.
    @....@.
    @....@.
    @....@.
    .@@@@..
    .......
    .......

u+022c:
uni022C:
    .@@@@..
    ..@.@..
    .@.@...
    .......
    .@@@@..
    @....@.
    @....@.
    @....@.
    @....@.
    @....@.
    .@@@@..
    .......
    .......

u+022d:
uni022D:
    .@@@@..
    .......
    ..@.@..
    .@.@...
    .......
    .@@@@..
    @....@.
    @....@.
    @....@.
    @....@.
    .@@@@..
    .......
    .......

u+022e:
uni022E:
    ..@@...
    .......
    .@@@@..
    @....@.
    @....@.
    @....@.
    @....@.
    @....@.
    @....@.
    @....@.
    .@@@@..
    .......
    .......

u+022f:
uni022F:
    .......
    .......
    .......
    ..@@...
    .......
    .@@@@..
    @....@.
    @....@.
    @....@.
    @....@.
    .@@@@..
    .......
    .......

u+0230:
uni0230:
    .@@@@..
    .......
    ..@@...
    .......
    .@@@@..
    @....@.
    @....@.
    @....@.
    @....@.
    @....@.
    .@@@@..
    .......
    .......

u+0231:
uni0231:
    .......
    .@@@@..
    .......
    ..@@...
    .......
    .@@@@..
    @....@.
    @....@.
    @....@.
    @....@.
    .@@@@..
    .......
    .......

u+0232:
uni0232:
    .@@@@@.
    .......
    .@...@.
    .@...@.
    ..@.@..
    ...@...
    ...@...
    ...@...
    ...@...
    ...@...
    ...@...
    .......
    .......

u+0233:
uni0233:
    .......
    .......
    .......
    .@@@@..
    .......
    @....@.
    @....@.
    @....@.
    @...@@.
    .@@@.@.
    .....@.
    @....@.
    .@@@@..

u+0250:
uni0250:
    .......
    .......
    .......
    .......
    .......
    @.@@@..
    @@...@.
    @....@.
    @@@@@..
    @......
    .@@@@..
    .......
    .......

u+0251:
uni0251:
    .......
    .......
    .......
    .......
    .......
    .@@@.@.
    @...@@.
    @....@.
    @....@.
    @...@@.
    .@@@.@.
    .......
    .......

u+0252:
uni0252:
    .......
    .......
    .......
    .......
    .......
    @.@@@..
    @@...@.
    @....@.
    @....@.
    @@...@.
    @.@@@..
    .......
    .......

u+0253:
uni0253:
    .......
    .......
    .@@@...
    @......
    @......
    @.@@@..
    @@...@.
    @....@.
    @....@.
    @@...@.
    @.@@@..
    .......
    .......

u+0254:
uni0254:
    .......
    .......
    .......
    .......
    .......
    .@@@@..
    @....@.
    .....@.
    .....@.
    @....@.
    .@@@@..
    .......
    .......

u+0255:
uni0255:
    .......
    .......
    .......
    .......
    .......
    .@@@@..
    @....@.
    @......
    @...@..
    @..@.@.
    .@@@@..
    ..@....
    .......

u+0256:
uni0256:
    .......
    .......
    ....@..
    ....@..
    ....@..
    .@@@@..
    @...@..
    @...@..
    @...@..
    @...@..
    .@@@@..
    .....@@
    .......

u+0257:
uni0257:
    .......
    .......
    .....@.
    ....@.@
    ....@.@
    .@@@@..
    @...@..
    @...@..
    @...@..
    @...@..
    .@@@@..
    .......
    .......

u+0258:
uni0258:
    .......
    .......
    .......
    .......
    .......
    .@@@@..
    @....@.
    @@@@@@.
    .....@.
    @....@.
    .@@@@..
    .......
    .......

u+0259:
uni0259:
    .......
    .......
    .......
    .......
    .......
    .@@@@..
    @....@.
    .....@.
    @@@@@@.
    @....@.
    .@@@@..
    .......
    .......

u+025a:
uni025A:
    .......
    .......
    .......
    .......
    .......
    .@@@...
    @...@..
    ....@@.
    @@@@@.@
    @...@..
    .@@@...
    .......
    .......

u+025b:
uni025B:
    .......
    .......
    .......
    .......
    .......
    .@@@...
    @...@..
    .@@....
    @......
    @...@..
    .@@@...
    .......
    .......

u+025c:
uni025C:
    .......
    .......
    .......
    .......
    .......
    .@@@...
    @...@..
    ..@@...
    ....@..
    @...@..
    .@@@...
    .......
    .......

u+025d:
uni025D:
    .......
    .......
    .......
    .......
    .......
    .@@@...
    @...@@.
    ..@@..@
    ....@..
    @...@..
    .@@@...
    .......
    .......

u+025e:
uni025E:
    .......
    .......
    .......
    .......
    .......
    .@@@...
    @...@..
    @.@@...
    @...@..
    @...@..
    .@@@...
    .......
    .......

u+025f:
uni025F:
    .......
    .......
    .......
    .......
    ....@..
    ....@..
    ....@..
    ....@..
    ..@@@@.
    ....@..
    ....@..
    @...@..
    .@@@...

u+0260:
uni0260:
    .......
    .......
    .......
    .......
    ......@
    .@@@.@.
    @...@..
    @...@..
    .@@@...
    @......
    .@@@@..
    @....@.
    .@@@@..

u+0261:
uni0261:
    .......
    .......
    .......
    .......
    .......
    .@@@.@.
    @...@@.
    @....@.
    @...@@.
    .@@@.@.
    .....@.
    @....@.
    .@@@@..

u+0262:
uni0262:
    .......
    .......
    .......
    .......
    .......
    .@@@@..
    @....@.
    @......
    @..@@@.
    @....@.
    .@@@@..
    .......
    .......

u+0263:
uni0263:
    .......
    .......
    .......
    .......
    .......
    .@...@.
    .@...@.
    .@...@.
    ..@.@..
    ..@.@..
    ...@...
    ..@.@..
    ...@...

u+0264:
uni0264:
    .......
    .......
    .......
    .......
    .......
    .@...@.
    .@...@.
    ..@.@..
    ...@...
    ..@.@..
    ...@...
    .......
    .......

u+0265:
uni0265:
    .......
    .......
    .......
    .......
    @....@.
    @....@.
    @....@.
    @....@.
    @...@@.
    .@@@.@.
    .....@.
    .....@.
    .....@.

u+0266:
uni0266:
    .......
    .@@@@..
    @......
    @......
    @......
    @.@@@..
    @@...@.
    @....@.
    @....@.
    @....@.
    @....@.
    .......
    .......

u+0267:
uni0267:
    .......
    .@@@@..
    @......
    @......
    @......
    @.@@@..
    @@...@.
    @....@.
    @....@.
    @....@.
    @....@.
    .....@.
    ..@@@..

u+0268:
uni0268:
    .......
    .......
    .......
    ...@...
    .......
    ..@@...
    ...@...
    .@@@@@.
    ...@...
    ...@...
    .@@@@@.
    .......
    .......

u+0269:
uni0269:
    .......
    .......
    .......
    .......
    .......
    .@.....
    .@.....
    .@.....
    .@.....
    .@..@..
    ..@@...
    .......
    .......

u+026a:
uni026A:
    .......
    .......
    .......
    .......
    .......
    .@@@...
    ..@....
    ..@....
    ..@....
    ..@....
    .@@@...
    .......
    .......

u+026b:
uni026B:
    .......
    .......
    ..@@...
    ...@...
    ...@...
    ..@@.@.
    .@.@@..
    ...@...
    ...@...
    ...@...
    .@@@@@.
    .......
    .......

u+026c:
uni026C:
    .......
    .......
    ..@@...
    ...@...
    ...@...
    ..@@...
    .@.@...
    ..@@@@.
    ...@...
    ...@...
    .@@@@@.
    .......
    .......

u+026d:
uni026D:
    .......
    .......
    .@@....
    ..@....
    ..@....
    ..@....
    ..@....
    ..@....
    ..@....
    ..@....
    ..@....
    ..@.@..
    ...@...

u+026e:
uni026E:
    .......
    .......
    @......
    @......
    @......
    @.@@@..
    @@...@.
    @....@.
    @....@.
    @...@..
    .......
    @..@...
    .@@....

u+026f:
uni026F:
    .......
    .......
    .......
    .......
    .......
    .@...@.
    .@.@.@.
    .@.@.@.
    .@.@.@.
    .@.@.@.
    ..@.@@.
    .......
    .......

u+0270:
uni0270:
    .......
    .......
    .......
    .......
    .......
    .@...@.
    .@.@.@.
    .@.@.@.
    .@.@.@.
    .@.@.@.
    ..@.@@.
    .....@.
    .....@.

u+0271:
uni0271:
    .......
    .......
    .......
    .......
    .......
    .@@.@..
    .@.@.@.
    .@.@.@.
    .@.@.@.
    .@.@.@.
    .@...@.
    .....@.
    ..@@@..

u+0272:
uni0272:
    .......
    .......
    .......
    .......
    .......
    .@.@@..
    .@@..@.
    .@...@.
    .@...@.
    .@...@.
    .@...@.
    @......
    .......

u+0273:
uni0273:
    .......
    .......
    .......
    .......
    .......
    @.@@...
    @@..@..
    @...@..
    @...@..
    @...@..
    @...@..
    .....@.
    .......

u+0274:
uni0274:
    .......
    .......
    .......
    .......
    .......
    @....@.
    @@...@.
    @.@..@.
    @..@.@.
    @...@@.
    @....@.
    .......
    .......

u+0275:
uni0275:
    .......
    .......
    .......
    .......
    .......
    .@@@@..
    @....@.
    @@@@@@.
    @....@.
    @....@.
    .@@@@..
    .......
    .......

u+0276:
uni0276:
    .......
    .......
    .......
    .......
    .......
    .@@@@@.
    @..@...
    @..@@@.
    @..@...
    @..@...
    .@@@@@.
    .......
    .......

u+0277:
uni0277:
    .......
    .......
    .......
    .......
    .......
    .@@@...
    @...@..
    @.@.@..
    @.@.@..
    @.@.@..
    .@.@...
    .......
    .......

u+0278:
uni0278:
    .......
    .......
    .......
    ..@....
    ..@....
    .@@@...
    @.@.@..
    @.@.@..
    @.@.@..
    @.@.@..
    .@@@...
    ..@....
    ..@....

u+0279:
uni0279:
    .......
    .......
    .......
    .......
    .......
    ....@..
    ....@..
    ....@..
    ....@..
    @...@..
    .@@@.@.
    .......
    .......

u+027a:
uni027A:
    .......
    .......
    ....@..
    ....@..
    ....@..
    ....@..
    ....@..
    ....@..
    ....@..
    @...@..
    .@@@.@.
    .......
    .......

u+027b:
uni027B:
    .......
    .......
    .......
    ....@..
    ....@..
    ....@..
    ....@..
    @..@@..
    .@@.@..
    ....@..
    .....@.
    .......
    .......

u+027c:
uni027C:
    .......
    .......
    .......
    .......
    .......
    @.@@@..
    .@...@.
    .@.....
    .@.....
    .@.....
    .@.....
    .@.....
    .@.....

u+027d:
uni027D:
    .......
    .......
    .......
    .......
    .......
    @.@@@..
    .@...@.
    .@.....
    .@.....
    .@.....
    .@.....
    .@..@..
    ..@@...

u+027e:
uni027E:
    .......
    .......
    .......
    .......
    .......
    ..@@@..
    .@...@.
    .@.....
    .@.....
    .@.....
    .@.....
    .......
    .......

u+027f:
uni027F:
    .......
    .......
    .......
    .......
    .......
    ..@@@..
    .@...@.
    .....@.
    .....@.
    .....@.
    .....@.
    .......
    .......

u+0280:
uni0280:
    .......
    .......
    .......
    .......
    .......
    @@@@...
    @...@..
    @...@..
    @@@@...
    @..@...
    @...@..
    .......
    .......

u+0281:
uni0281:
    .......
    .......
    .......
    .......
    .......
    @...@..
    @..@...
    @@@@...
    @...@..
    @...@..
    @@@@...
    .......
    .......

u+0282:
uni0282:
    .......
    .......
    .......
    .......
    .......
    .@@@@..
    @....@.
    .@@....
    ...@@..
    @....@.
    @@@@@..
    @......
    .@@....

u+0283:
uni0283:
    .......
    .......
    ....@..
    ...@.@.
    ...@...
    ...@...
    ...@...
    ...@...
    ...@...
    ...@...
    ...@...
    .@.@...
    ..@....

u+0284:
uni0284:
    .......
    .......
    .....@.
    ....@..
    ....@..
    ....@..
    ....@..
    ....@..
    ..@@@@.
    ....@..
    ....@..
    @...@..
    .@@@...

u+0285:
uni0285:
    .......
    .......
    ..@....
    .@.@...
    ...@...
    ...@...
    ...@...
    ...@...
    ...@...
    ...@...
    ...@...
    ...@.@.
    ....@..

u+0286:
uni0286:
    .......
    .......
    ....@..
    ...@.@.
    ...@...
    ...@...
    ...@...
    ...@...
    ...@...
    ..@@@..
    .@.@.@.
    .@.@...
    ..@....

u+0287:
uni0287:
    .......
    .......
    .......
    .@@@...
    @...@..
    ....@..
    ....@..
    ....@..
    ..@@@@.
    ....@..
    ....@..
    .......
    .......

u+0288:
uni0288:
    .......
    .......
    .......
    .@.....
    .@.....
    @@@@...
    .@.....
    .@.....
    .@.....
    .@.....
    .@.....
    .@...@.
    ..@@@..

u+0289:
uni0289:
    .......
    .......
    .......
    .......
    .......
    .@...@.
    .@...@.
    @@@@@@@
    .@...@.
    .@..@@.
    ..@@.@.
    .......
    .......

u+028a:
uni028A:
    .......
    .......
    .......
    .......
    .......
    @@..@@.
    .@..@..
    @....@.
    @....@.
    .@..@..
    ..@@...
    .......
    .......

u+028b:
uni028B:
    .......
    .......
    .......
    .......
    .......
    @...@..
    @....@.
    @....@.
    @....@.
    @...@..
    .@@@...
    .......
    .......

u+028c:
uni028C:
    .......
    .......
    .......
    .......
    .......
    ...@...
    ..@.@..
    ..@.@..
    .@...@.
    .@...@.
    .@...@.
    .......
    .......

u+028d:
uni028D:
    .......
    .......
    .......
    .......
    .......
    ..@.@..
    .@.@.@.
    .@.@.@.
    .@.@.@.
    .@...@.
    .@...@.
    .......
    .......

u+028e:
uni028E:
    .......
    .......
    ....@..
    ...@.@.
    ...@...
    ..@....
    ..@....
    .@@@...
    .@..@..
    @...@..
    @....@.
    .......
    .......

u+028f:
uni028F:
    .......
    .......
    .......
    .......
    .......
    .@...@.
    ..@.@..
    ...@...
    ...@...
    ...@...
    ...@...
    .......
    .......

u+0290:
uni0290:
    .......
    .......
    .......
    .......
    .......
    @@@@@@.
    ....@..
    ...@...
    ..@....
    .@.....
    @@@@@..
    ....@..
    .....@@

u+0291:
uni0291:
    .......
    .......
    .......
    .......
    .......
    @@@@@@.
    ....@..
    ...@...
    ..@..@.
    .@..@.@
    @@@@@@.
    ...@...
    .......

u+0292:
uni0292:
    .......
    .......
    .......
    .......
    .......
    @@@@@@.
    ....@..
    ...@...
    ..@@@..
    .....@.
    .....@.
    @....@.
    .@@@@..

u+0293:
uni0293:
    .......
    .......
    .......
    .......
    .......
    @@@@@@.
    ....@..
    ...@...
    ..@@@..
    .....@.
    .@@@@@@
    @....@.
    .@@@@..

u+0294:
uni0294:
    .......
    .......
    ..@@@..
    .@...@.
    .....@.
    .....@.
    ...@@..
    ...@...
    ...@...
    ...@...
    ...@...
    .......
    .......

u+0295:
uni0295:
    .......
    .......
    ..@@@..
    .@...@.
    .@.....
    .@.....
    ..@@...
    ...@...
    ...@...
    ...@...
    ...@...
    .......
    .......

u+0296:
uni0296:
    .......
    .......
    ...@...
    ...@...
    ...@...
    ...@...
    ...@@..
    .....@.
    .....@.
    .@...@.
    ..@@@..
    .......
    .......

u+0297:
uni0297:
    .......
    .......
    ..@@...
    .@..@..
    .@.....
    .@.....
    .@.....
    .@.....
    .@.....
    .@..@..
    ..@@...
    .......
    .......

u+0298:
uni0298:
    .......
    .......
    .......
    .......
    .......
    .@@@@..
    @....@.
    @.@@.@.
    @.@@.@.
    @....@.
    .@@@@..
    .......
    .......

u+0299:
uni0299:
    .......
    .......
    .......
    .......
    .......
    @@@@...
    @...@..
    @@@@...
    @...@..
    @...@..
    @@@@...
    .......
    .......

u+029a:
uni029A:
    .......
    .......
    .......
    .......
    .......
    .@@@...
    @...@..
    .@@.@..
    @...@..
    @...@..
    .@@@...
    .......
    .......

u+029b:
uni029B:
    .......
    .......
    .......
    .......
    .....@@
    .@@@@..
    @....@.
    @......
    @..@@@.
    @....@.
    .@@@@..
    .......
    .......

u+029c:
uni029C:
    .......
    .......
    .......
    .......
    .......
    @...@..
    @...@..
    @@@@@..
    @...@..
    @...@..
    @...@..
    .......
    .......

u+029d:
uni029D:
    .......
    .......
    .......
    ....@..
    .......
    ...@@..
    ....@..
    ....@..
    ....@..
    .@@@@@.
    @...@..
    @...@..
    .@@@...

u+029e:
uni029E:
    .......
    .......
    .......
    .......
    @....@.
    .@...@.
    ..@..@.
    ...@@@.
    ..@..@.
    .@...@.
    .....@.
    .....@.
    .....@.

u+029f:
uni029F:
    .......
    .......
    .......
    .......
    .......
    @......
    @......
    @......
    @......
    @......
    @@@@@..
    .......
    .......

u+02a0:
uni02A0:
    .......
    .......
    .......
    .......
    .....@@
    .@@.@..
    @..@@..
    @...@..
    @..@@..
    .@@.@..
    ....@..
    ....@..
    ....@..

u+02a1:
uni02A1:
    .......
    .......
    ..@@@..
    .@...@.
    .....@.
    .....@.
    ...@@..
    ...@...
    .@@@@@.
    ...@...
    ...@...
    .......
    .......

u+02a2:
uni02A2:
    .......
    .......
    ..@@@..
    .@...@.
    .@.....
    .@.....
    ..@@...
    ...@...
    .@@@@@.
    ...@...
    ...@...
    .......
    .......

u+02a3:
uni02A3:
    .......
    .......
    ..@....
    ..@....
    ..@....
    .@@@@@.
    @.@..@.
    @.@.@..
    @.@.@..
    @.@@...
    .@@@@@.
    .......
    .......

u+02a4:
uni02A4:
    .......
    .......
    ..@....
    ..@....
    ..@....
    .@@@@@.
    @.@..@.
    @.@.@..
    @.@@@@.
    @.@...@
    .@@...@
    .....@.
    ...@@..

u+02a5:
uni02A5:
    .......
    .......
    ..@....
    ..@....
    ..@....
    .@@@@@.
    @.@..@.
    @.@.@..
    @.@.@..
    @.@@@@.
    .@@@@@.
    ....@..
    ...@...

u+02a6:
uni02A6:
    .......
    .......
    .......
    .@.....
    .@.....
    @@@@@..
    .@.@.@.
    .@.@...
    .@..@..
    .@...@.
    ..@@@..
    .......
    .......

u+02a7:
uni02A7:
    .......
    .......
    .....@.
    .@..@.@
    .@..@..
    @@@@@..
    .@..@..
    .@..@..
    .@..@..
    .@..@..
    .@..@..
    ..@.@..
    ...@...

u+02a8:
uni02A8:
    .......
    .......
    .......
    .@.....
    .@.....
    @@@@@..
    .@.@.@.
    .@.@...
    .@.@...
    .@.@.@.
    ..@@@..
    .......
    .......

u+02a9:
uni02A9:
    .......
    .......
    ..@@...
    .@..@..
    .@.....
    .@.....
    @@@@@..
    .@.@.@.
    .@.@.@.
    .@.@.@.
    .@.@.@.
    .....@.
    ...@@..

u+02aa:
uni02AA:
    .......
    .......
    @@.....
    .@.....
    .@.....
    .@.@@..
    .@@..@.
    .@.@...
    .@..@..
    .@@..@.
    @@@@@..
    .......
    .......

u+02ab:
uni02AB:
    .......
    .......
    @@.....
    .@.....
    .@.....
    .@@@@@.
    .@...@.
    .@..@..
    .@.@...
    .@@....
    @@@@@@.
    .......
    .......

u+02ac:
uni02AC:
    .......
    .......
    .......
    .......
    .@.@.@.
    .@.@.@.
    ..@.@..
    .......
    .@.@.@.
    .@.@.@.
    ..@.@..
    .......
    .......

u+02ad:
uni02AD:
    .......
    .......
    .......
    .......
    .@@@@@.
    .@...@.
    .......
    .@@@@@.
    .@...@.
    .......
    .......
    .......
    .......

u+02b0:
uni02B0:
    .......
    .@.....
    .@.....
    .@@....
    .@.@...
    .@.@...
    .@.@...
    .......
    .......
    .......
    .......
    .......
    .......

u+02b1:
uni02B1:
    .......
    ..@....
    .@.....
    .@@....
    .@.@...
    .@.@...
    .@.@...
    .......
    .......
    .......
    .......
    .......
    .......

u+02b2:
uni02B2:
    .......
    .......
    ..@....
    .......
    ..@....
    ..@....
    ..@....
    ..@....
    .@.....
    .......
    .......
    .......
    .......

u+02b3:
uni02B3:
    .......
    .......
    .......
    .@.@...
    .@@....
    .@.....
    .@.....
    .......
    .......
    .......
    .......
    .......
    .......

u+02b4:
uni02B4:
    .......
    .......
    .......
    ...@...
    ...@...
    ..@@...
    .@.@...
    .......
    .......
    .......
    .......
    .......
    .......

u+02b5:
uni02B5:
    .......
    .......
    .......
    ...@...
    ...@...
    ..@@...
    .@.@...
    ...@...
    ....@..
    .......
    .......
    .......
    .......

u+02b6:
uni02B6:
    .......
    .......
    .@..@..
    .@.@...
    .@@@...
    .@..@..
    .@..@..
    .@@@...
    .......
    .......
    .......
    .......
    .......

u+02b7:
uni02B7:
    .......
    .......
    .......
    @...@..
    @...@..
    @.@.@..
    .@.@...
    .......
    .......
    .......
    .......
    .......
    .......

u+02b8:
uni02B8:
    .......
    .......
    .......
    .@.@...
    .@.@...
    .@.@...
    ..@@...
    ...@...
    .@@....
    .......
    .......
    .......
    .......

u+02b9:
uni02B9:
    .......
    .......
    ...@...
    ...@...
    ..@....
    ..@....
    .......
    .......
    .......
    .......
    .......
    .......
    .......

u+02ba:
uni02BA:
    .......
    .......
    ..@..@.
    ..@..@.
    .@..@..
    .@..@..
    .......
    .......
    .......
    .......
    .......
    .......
    .......

u+02bb:
uni02BB:
    .......
    .......
    .@.@.@.
    .@.@.@.
    @.@.@..
    @.@.@..
    .......
    .......
    .......
    .......
    .......
    .......
    .......

u+02bc:
afii57929:
    .......
    .......
    ..@@...
    ...@...
    ..@....
    .......
    .......
    .......
    .......
    .......
    .......
    .......
    .......

u+02bd:
afii64937:
    .......
    .......
    ..@@...
    ..@....
    ...@...
    .......
    .......
    .......
    .......
    .......
    .......
    .......
    .......

u+02be:
uni02BE:
    .......
    .......
    ..@@...
    ....@..
    ....@..
    ..@@...
    .......
    .......
    .......
    .......
    .......
    .......
    .......

u+02bf:
uni02BF:
    .......
    .......
    ..@@...
    .@.....
    .@.....
    ..@@...
    .......
    .......
    .......
    .......
    .......
    .......
    .......

u+02c0:
uni02C0:
    .......
    .......
    ...@...
    ..@.@..
    ....@..
    ...@...
    ...@...
    .......
    .......
    .......
    .......
    .......
    .......

u+02c1:
uni02C1:
    .......
    .......
    ...@...
    ..@.@..
    ..@....
    ...@...
    ...@...
    .......
    .......
    .......
    .......
    .......
    .......

u+02c2:
uni02C2:
    .......
    .......
    ....@..
    ...@...
    ..@....
    ...@...
    ....@..
    .......
    .......
    .......
    .......
    .......
    .......

u+02c3:
uni02C3:
    .......
    .......
    ..@....
    ...@...
    ....@..
    ...@...
    ..@....
    .......
    .......
    .......
    .......
    .......
    .......

u+02c4:
uni02C4:
    .......
    .......
    ...@...
    ..@.@..
    .@...@.
    .......
    .......
    .......
    .......
    .......
    .......
    .......
    .......

u+02c5:
uni02C5:
    .......
    .......
    .@...@.
    ..@.@..
    ...@...
    .......
    .......
    .......
    .......
    .......
    .......
    .......
    .......

u+02c6:
circumflex:
    .......
    ..@@...
    .@..@..
    .......
    .......
    .......
    .......
    .......
    .......
    .......
    .......
    .......
    .......

u+02c7:
caron:
    .......
    .@..@..
    ..@@...
    .......
    .......
    .......
    .......
    .......
    .......
    .......
    .......
    .......
    .......

u+02c8:
uni02C8:
    .......
    ...@...
    ...@...
    ...@...
    .......
    .......
    .......
    .......
    .......
    .......
    .......
    .......
    .......

u+02c9:
macron:
    .......
    .@@@@@.
    .......
    .......
    .......
    .......
    .......
    .......
    .......
    .......
    .......
    .......
    .......

u+02ca:
uni02CA:
    .......
    .......
    ....@..
    ...@...
    ..@....
    .......
    .......
    .......
    .......
    .......
    .......
    .......
    .......

u+02cb:
uni02CB:
    .......
    .......
    ..@....
    ...@...
    ....@..
    .......
    .......
    .......
    .......
    .......
    .......
    .......
    .......

u+02cc:
uni02CC:
    .......
    .......
    .......
    .......
    .......
    .......
    .......
    .......
    .......
    ...@...
    ...@...
    ...@...
    .......

u+02cd:
uni02CD:
    .......
    .......
    .......
    .......
    .......
    .......
    .......
    .......
    .......
    .......
    .......
    ..@@@..
    .......

u+02ce:
uni02CE:
    .......
    .......
    .......
    .......
    .......
    .......
    .......
    .......
    .......
    .......
    ..@....
    ...@...
    ....@..

u+02cf:
uni02CF:
    .......
    .......
    .......
    .......
    .......
    .......
    .......
    .......
    .......
    .......
    ....@..
    ...@...
    ..@....

u+02d0:
uni02D0:
    .......
    .......
    .......
    .......
    .......
    ..@@@..
    ...@...
    .......
    .......
    ...@...
    ..@@@..
    .......
    .......

u+02d1:
uni02D1:
    .......
    .......
    .......
    .......
    .......
    ..@@@..
    ...@...
    .......
    .......
    .......
    .......
    .......
    .......

u+02d2:
uni02D2:
    .......
    .......
    .......
    .......
    .......
    .......
    ..@@...
    ....@..
    ....@..
    ..@@...
    .......
    .......
    .......

u+02d3:
uni02D3:
    .......
    .......
    .......
    .......
    .......
    .......
    ..@@...
    .@.....
    .@.....
    ..@@...
    .......
    .......
    .......

u+02d4:
uni02D4:
    .......
    .......
    .......
    .......
    ...@...
    ...@...
    .@@@@@.
    .......
    .......
    .......
    .......
    .......
    .......

u+02d5:
uni02D5:
    .......
    .......
    .......
    .......
    .......
    .......
    .@@@@@.
    ...@...
    ...@...
    .......
    .......
    .......
    .......

u+02d6:
uni02D6:
    .......
    .......
    .......
    .......
    ...@...
    ...@...
    .@@@@@.
    ...@...
    ...@...
    .......
    .......
    .......
    .......

u+02d7:
uni02D7:
    .......
    .......
    .......
    .......
    .......
    .@...@.
    .@@@@@.
    .@...@.
    .......
    .......
    .......
    .......
    .......

u+02d8:
breve:
    .......
    @....@.
    .@@@@..
    .......
    .......
    .......
    .......
    .......
    .......
    .......
    .......
    .......
    .......

u+02d9:
dotaccent:
    ...@...
    ...@...
    .......
    .......
    .......
    .......
    .......
    .......
    .......
    .......
    .......
    .......
    .......

u+02da:
ring:
    .......
    ..@@...
    .@..@..
    ..@@...
    .......
    .......
    .......
    .......
    .......
    .......
    .......
    .......
    .......

u+02db:
ogonek:
    .......
    .......
    .......
    .......
    .......
    .......
    .......
    .......
    .......
    .......
    .......
    ..@....
    ...@...

u+02dc:
tilde:
    .......
    .@@..@.
    @..@@..
    .......
    .......
    .......
    .......
    .......
    .......
    .......
    .......
    .......
    .......

u+02dd:
hungarumlaut:
    .......
    ..@..@.
    .@..@..
    .......
    .......
    .......
    .......
    .......
    .......
    .......
    .......
    .......
    .......

u+02de:
uni02DE:
    .......
    .......
    .......
    .......
    .......
    ..@@...
    .@.@.@.
    ...@@..
    .......
    .......
    .......
    .......
    .......

u+02df:
uni02DF:
    .......
    ..@.@..
    ...@...
    ..@.@..
    .......
    .......
    .......
    .......
    .......
    .......
    .......
    .......
    .......

u+02e0:
uni02E0:
    .......
    .......
    ..@.@..
    ..@.@..
    ...@...
    ..@.@..
    ...@...
    .......
    .......
    .......
    .......
    .......
    .......

u+02e1:
uni02E1:
    .......
    .......
    .@@....
    ..@....
    ..@....
    ..@....
    .@@@...
    .......
    .......
    .......
    .......
    .......
    .......

u+02e2:
uni02E2:
    .......
    .......
    .......
    ...@...
    ..@....
    ...@...
    ..@....
    .......
    .......
    .......
    .......
    .......
    .......

u+02e3:
uni02E3:
    .......
    .......
    .@.@...
    .@.@...
    ..@....
    .@.@...
    .@.@...
    .......
    .......
    .......
    .......
    .......
    .......

u+02e4:
uni02E4:
    .......
    ..@@...
    .@..@..
    .@.....
    ..@@...
    ...@...
    ...@...
    .......
    .......
    .......
    .......
    .......
    .......

u+02e5:
uni02E5:
    .......
    .......
    .@@@...
    ...@...
    ...@...
    ...@...
    ...@...
    ...@...
    ...@...
    ...@...
    ...@...
    .......
    .......

u+02e6:
uni02E6:
    .......
    .......
    ...@...
    ...@...
    .@@@...
    ...@...
    ...@...
    ...@...
    ...@...
    ...@...
    ...@...
    .......
    .......

u+02e7:
uni02E7:
    .......
    .......
    ...@...
    ...@...
    ...@...
    ...@...
    .@@@...
    ...@...
    ...@...
    ...@...
    ...@...
    .......
    .......

u+02e8:
uni02E8:
    .......
    .......
    ...@...
    ...@...
    ...@...
    ...@...
    ...@...
    ...@...
    .@@@...
    ...@...
    ...@...
    .......
    .......

u+02e9:
uni02E9:
    .......
    .......
    ...@...
    ...@...
    ...@...
    ...@...
    ...@...
    ...@...
    ...@...
    ...@...
    .@@@...
    .......
    .......

u+02ea:
uni02EA:
    .......
    .......
    .......
    .......
    .......
    .......
    .......
    .......
    .......
    .@@@...
    ...@...
    ...@...
    .......

u+02eb:
uni02EB:
    .......
    .......
    .......
    .......
    .......
    .......
    .......
    ..@....
    ..@....
    ..@@@..
    ..@....
    ..@....
    .......

u+02ec:
uni02EC:
    .......
    .......
    .......
    .......
    .......
    .......
    .......
    .......
    .......
    .@...@.
    ..@.@..
    ...@...
    .......

u+02ed:
uni02ED:
    .......
    .......
    .......
    .......
    .......
    ..@@@..
    .......
    ..@@@..
    .......
    .......
    .......
    .......
    .......

u+02ee:
uni02EE:
    .......
    .......
    .@@.@@.
    .@@.@@.
    ..@..@.
    .@..@..
    .......
    .......
    .......
    .......
    .......
    .......
    .......

u+0300:
gravecomb:
    ..@....
    ...@...
    .......
    .......
    .......
    .......
    .......
    .......
    .......
    .......
    .......
    .......
    .......

u+0301:
acutecomb:
    ...@...
    ..@....
    .......
    .......
    .......
    .......
    .......
    .......
    .......
    .......
    .......
    .......
    .......

u+0302:
uni0302:
    ...@...
    ..@.@..
    .......
    .......
    .......
    .......
    .......
    .......
    .......
    .......
    .......
    .......
    .......

u+0303:
tildecomb:
    ..@.@..
    .@.@...
    .......
    .......
    .......
    .......
    .......
    .......
    .......
    .......
    .......
    .......
    .......

u+0304:
uni0304:
    .......
    .@@@@..
    .......
    .......
    .......
    .......
    .......
    .......
    .......
    .......
    .......
    .......
    .......

u+0305:
uni0305:
    .......
    @@@@@@.
    .......
    .......
    .......
    .......
    .......
    .......
    .......
    .......
    .......
    .......
    .......

u+0306:
uni0306:
    .@...@.
    ..@@@..
    .......
    .......
    .......
    .......
    .......
    .......
    .......
    .......
    .......
    .......
    .......

u+0307:
uni0307:
    ...@...
    ...@...
    .......
    .......
    .......
    .......
    .......
    .......
    .......
    .......
    .......
    .......
    .......

u+0308:
uni0308:
    ..@.@..
    ..@.@..
    .......
    .......
    .......
    .......
    .......
    .......
    .......
    .......
    .......
    .......
    .......

u+0309:
hookabovecomb:
    ..@@...
    ....@..
    ...@...
    .......
    .......
    .......
    .......
    .......
    .......
    .......
    .......
    .......
    .......

u+030a:
uni030A:
    ...@...
    ..@.@..
    ...@...
    .......
    .......
    .......
    .......
    .......
    .......
    .......
    .......
    .......
    .......

u+030b:
uni030B:
    ..@..@.
    .@..@..
    .......
    .......
    .......
    .......
    .......
    .......
    .......
    .......
    .......
    .......
    .......

u+030c:
uni030C:
    ..@.@..
    ...@...
    .......
    .......
    .......
    .......
    .......
    .......
    .......
    .......
    .......
    .......
    .......

u+030d:
uni030D:
    ...@...
    ...@...
    ...@...
    .......
    .......
    .......
    .......
    .......
    .......
    .......
    .......
    .......
    .......

u+030e:
uni030E:
    ..@.@..
    ..@.@..
    ..@.@..
    .......
    .......
    .......
    .......
    .......
    .......
    .......
    .......
    .......
    .......

u+030f:
uni030F:
    .@..@..
    ..@..@.
    .......
    .......
    .......
    .......
    .......
    .......
    .......
    .......
    .......
    .......
    .......

u+0310:
uni0310:
    ...@...
    .@...@.
    ..@@@..
    .......
    .......
    .......
    .......
    .......
    .......
    .......
    .......
    .......
    .......

u+0311:
uni0311:
    ..@@@..
    .@...@.
    .......
    .......
    .......
    .......
    .......
    .......
    .......
    .......
    .......
    .......
    .......

u+0323:
dotbelowcomb:
    .......
    .......
    .......
    .......
    .......
    .......
    .......
    .......
    .......
    .......
    .......
    .......
    ...@...

u+0324:
uni0324:
    .......
    .......
    .......
    .......
    .......
    .......
    .......
    .......
    .......
    .......
    .......
    .......
    ..@.@..

u+0325:
uni0325:
    .......
    .......
    .......
    .......
    .......
    .......
    .......
    .......
    .......
    .......
    ...@...
    ..@.@..
    ...@...

u+0326:
uni0326:
    .......
    .......
    .......
    .......
    .......
    .......
    .......
    .......
    .......
    .......
    .......
    ...@...
    ..@....

u+0327:
uni0327:
    .......
    .......
    .......
    .......
    .......
    .......
    .......
    .......
    .......
    .......
    .......
    ...@...
    ..@....

u+0328:
uni0328:
    .......
    .......
    .......
    .......
    .......
    .......
    .......
    .......
    .......
    .......
    .......
    ...@...
    ....@..

u+0329:
uni0329:
    .......
    .......
    .......
    .......
    .......
    .......
    .......
    .......
    .......
    .......
    .......
    ...@...
    ...@...

u+032a:
uni032A:
    .......
    .......
    .......
    .......
    .......
    .......
    .......
    .......
    .......
    .......
    .......
    .@@@@@.
    .@...@.

u+032b:
uni032B:
    .......
    .......
    .......
    .......
    .......
    .......
    .......
    .......
    .......
    .......
    .......
    .@.@.@.
    ..@.@..

u+032c:
uni032C:
    .......
    .......
    .......
    .......
    .......
    .......
    .......
    .......
    .......
    .......
    .......
    ..@.@..
    ...@...

u+032d:
uni032D:
    .......
    .......
    .......
    .......
    .......
    .......
    .......
    .......
    .......
    .......
    .......
    ...@...
    ..@.@..

u+032e:
uni032E:
    .......
    .......
    .......
    .......
    .......
    .......
    .......
    .......
    .......
    .......
    .......
    .@...@.
    ..@@@..

u+032f:
uni032F:
    .......
    .......
    .......
    .......
    .......
    .......
    .......
    .......
    .......
    .......
    .......
    ..@@@..
    .@...@.

u+0330:
uni0330:
    .......
    .......
    .......
    .......
    .......
    .......
    .......
    .......
    .......
    .......
    .......
    .@@..@.
    @..@@..

u+0331:
uni0331:
    .......
    .......
    .......
    .......
    .......
    .......
    .......
    .......
    .......
    .......
    .......
    .......
    @@@@@@.

u+0332:
uni0332:
    .......
    .......
    .......
    .......
    .......
    .......
    .......
    .......
    .......
    .......
    .......
    .......
    @@@@@@@

u+0333:
uni0333:
    .......
    .......
    .......
    .......
    .......
    .......
    .......
    .......
    .......
    .......
    @@@@@@@
    .......
    @@@@@@@

u+0338:
uni0338:
    .......
    .......
    .....@.
    .....@.
    ....@..
    ....@..
    ...@...
    ..@....
    ..@....
    .@.....
    .@.....
    .......
    .......

u+0340:
uni0340:
    ..@....
    ...@...
    .......
    .......
    .......
    .......
    .......
    .......
    .......
    .......
    .......
    .......
    .......

u+0341:
uni0341:
    ...@...
    ..@....
    .......
    .......
    .......
    .......
    .......
    .......
    .......
    .......
    .......
    .......
    .......

u+0360:
uni0360:
    .......
    ..@@..@
    .@..@@.
    .......
    .......
    .......
    .......
    .......
    .......
    .......
    .......
    .......
    .......

u+0361:
uni0361:
    .......
    ..@@@@.
    .@....@
    .......
    .......
    .......
    .......
    .......
    .......
    .......
    .......
    .......
    .......

u+0374:
uni0374:
    .......
    .......
    ...@...
    ..@....
    .......
    .......
    .......
    .......
    .......
    .......
    .......
    .......
    .......

u+0375:
uni0375:
    .......
    .......
    .......
    .......
    .......
    .......
    .......
    .......
    .......
    .......
    .......
    ...@...
    ..@....

u+037a:
uni037A:
    .......
    .......
    .......
    .......
    .......
    .......
    .......
    .......
    .......
    .......
    .......
    ..@....
    ..@@...

u+037e:
uni037E:
    .......
    .......
    .......
    .......
    ...@...
    ..@@@..
    ...@...
    .......
    .......
    ..@@@..
    ..@@...
    .@.....
    .......

u+0384:
tonos:
    .......
    .......
    ...@...
    ..@....
    .......
    .......
    .......
    .......
    .......
    .......
    .......
    .......
    .......

u+0385:
dieresistonos:
    .......
    ....@..
    .@.@.@.
    .@...@.
    .......
    .......
    .......
    .......
    .......
    .......
    .......
    .......
    .......

u+0386:
Alphatonos:
    .......
    .......
    .@.@@..
    @.@..@.
    ..@..@.
    ..@..@.
    ..@..@.
    ..@@@@.
    ..@..@.
    ..@..@.
    ..@..@.
    .......
    .......

u+0387:
anoteleia:
    .......
    .......
    .......
    .......
    .......
    ..@@...
    .......
    .......
    .......
    .......
    .......
    .......
    .......

u+0388:
Epsilontonos:
    .......
    .......
    .@@@@@.
    @.@....
    ..@....
    ..@....
    ..@@@..
    ..@....
    ..@....
    ..@....
    ..@@@@.
    .......
    .......

u+0389:
Etatonos:
    .......
    .......
    .@@..@.
    @.@..@.
    ..@..@.
    ..@..@.
    ..@@@@.
    ..@..@.
    ..@..@.
    ..@..@.
    ..@..@.
    .......
    .......

u+038a:
Iotatonos:
    .......
    .......
    .@.@@@.
    @...@..
    ....@..
    ....@..
    ....@..
    ....@..
    ....@..
    ....@..
    ...@@@.
    .......
    .......

u+038c:
Omicrontonos:
    .......
    .......
    .@.@@..
    @.@..@.
    ..@..@.
    ..@..@.
    ..@..@.
    ..@..@.
    ..@..@.
    ..@..@.
    ...@@..
    .......
    .......

u+038e:
Upsilontonos:
    .......
    .......
    .@.@.@.
    @..@.@.
    ...@.@.
    ....@..
    ....@..
    ....@..
    ....@..
    ....@..
    ....@..
    .......
    .......

u+038f:
Omegatonos:
    .......
    .......
    .@.@@..
    @.@..@.
    ..@..@.
    ..@..@.
    ..@..@.
    ..@..@.
    ...@@..
    ...@@..
    ..@..@.
    .......
    .......

u+0390:
iotadieresistonos:
    .......
    ...@...
    @.@..@.
    @....@.
    .......
    ..@....
    ..@....
    ..@....
    ..@....
    ..@..@.
    ...@@..
    .......
    .......

u+0391:
Alpha:
    .......
    .......
    ..@@...
    .@..@..
    @....@.
    @....@.
    @....@.
    @@@@@@.
    @....@.
    @....@.
    @....@.
    .......
    .......

u+0392:
Beta:
    .......
    .......
    @@@@@..
    @....@.
    @....@.
    @....@.
    @@@@@..
    @....@.
    @....@.
    @....@.
    @@@@@..
    .......
    .......

u+0393:
Gamma:
    .......
    .......
    @@@@@@.
    @......
    @......
    @......
    @......
    @......
    @......
    @......
    @......
    .......
    .......

u+0394:
Delta:
    .......
    .......
    ..@@...
    ..@@...
    ..@@...
    .@..@..
    .@..@..
    .@..@..
    @....@.
    @....@.
    @@@@@@.
    .......
    .......

u+0395:
Epsilon:
    .......
    .......
    @@@@@@.
    @......
    @......
    @......
    @@@@...
    @......
    @......
    @......
    @@@@@@.
    .......
    .......

u+0396:
Zeta:
    .......
    .......
    @@@@@@.
    .....@.
    ....@..
    ...@...
    ..@@...
    ..@....
    .@.....
    @......
    @@@@@@.
    .......
    .......

u+0397:
Eta:
    .......
    .......
    @....@.
    @....@.
    @....@.
    @....@.
    @@@@@@.
    @....@.
    @....@.
    @....@.
    @....@.
    .......
    .......

u+0398:
Theta:
    .......
    .......
    .@@@@..
    @....@.
    @....@.
    @....@.
    @@@@@@.
    @....@.
    @....@.
    @....@.
    .@@@@..
    .......
    .......

u+0399:
Iota:
    .......
    .......
    @@@@@..
    ..@....
    ..@....
    ..@....
    ..@....
    ..@....
    ..@....
    ..@....
    @@@@@..
    .......
    .......

u+039a:
Kappa:
    .......
    .......
    @....@.
    @...@..
    @..@...
    @.@....
    @@.....
    @.@....
    @..@...
    @...@..
    @....@.
    .......
    .......

u+039b:
Lambda:
    .......
    .......
    ..@@...
    ..@@...
    ..@@...
    .@..@..
    .@..@..
    .@..@..
    @....@.
    @....@.
    @....@.
    .......
    .......

u+039c:
Mu:
    .......
    .......
    @....@.
    @@..@@.
    @@..@@.
    @.@@.@.
    @.@@.@.
    @....@.
    @....@.
    @....@.
    @....@.
    .......
    .......

u+039d:
Nu:
    .......
    .......
    @....@.
    @....@.
    @@...@.
    @.@..@.
    @..@.@.
    @...@@.
    @....@.
    @....@.
    @....@.
    .......
    .......

u+039e:
Xi:
    .......
    .......
    @@@@@@.
    .......
    .......
    .......
    .@@@@..
    .......
    .......
    .......
    @@@@@@.
    .......
    .......

u+039f:
Omicron:
    .......
    .......
    .@@@@..
    @....@.
    @....@.
    @....@.
    @....@.
    @....@.
    @....@.
    @....@.
    .@@@@..
    .......
    .......

u+03a0:
Pi:
    .......
    .......
    @@@@@@.
    .@..@..
    .@..@..
    .@..@..
    .@..@..
    .@..@..
    .@..@..
    .@..@..
    .@..@..
    .......
    .......

u+03a1:
Rho:
    .......
    .......
    @@@@@..
    @....@.
    @....@.
    @....@.
    @@@@@..
    @......
    @......
    @......
    @......
    .......
    .......

u+03a3:
Sigma:
    .......
    .......
    @@@@@@.
    @......
    .@.....
    ..@....
    ...@...
    ..@....
    .@.....
    @......
    @@@@@@.
    .......
    .......

u+03a4:
Tau:
    .......
    .......
    .@@@@@.
    ...@...
    ...@...
    ...@...
    ...@...
    ...@...
    ...@...
    ...@...
    ...@...
    .......
    .......

u+03a5:
Upsilon:
    .......
    .......
    .@...@.
    .@...@.
    ..@.@..
    ..@.@..
    ...@...
    ...@...
    ...@...
    ...@...
    ...@...
    .......
    .......

u+03a6:
Phi:
    .......
    .......
    ...@...
    ..@@@..
    .@.@.@.
    .@.@.@.
    .@.@.@.
    .@.@.@.
    .@.@.@.
    ..@@@..
    ...@...
    .......
    .......

u+03a7:
Chi:
    .......
    .......
    @....@.
    @....@.
    .@..@..
    .@..@..
    ..@@...
    .@..@..
    .@..@..
    @....@.
    @....@.
    .......
    .......

u+03a8:
Psi:
    .......
    .......
    .@.@.@.
    .@.@.@.
    .@.@.@.
    .@.@.@.
    .@.@.@.
    .@.@.@.
    ..@@@..
    ...@...
    ...@...
    .......
    .......

u+03a9:
Omega:
    .......
    .......
    .@@@@..
    @....@.
    @....@.
    @....@.
    @....@.
    @....@.
    .@..@..
    .@..@..
    @@..@@.
    .......
    .......

u+03aa:
Iotadieresis:
    .......
    .@...@.
    .@...@.
    .......
    .@@@@@.
    ...@...
    ...@...
    ...@...
    ...@...
    ...@...
    .@@@@@.
    .......
    .......

u+03ab:
Upsilondieresis:
    .......
    .@...@.
    .@...@.
    .......
    .@...@.
    .@...@.
    ..@.@..
    ...@...
    ...@...
    ...@...
    ...@...
    .......
    .......

u+03ac:
alphatonos:
    .......
    .......
    ....@..
    ...@...
    .......
    .@@@.@.
    @...@@.
    @....@.
    @...@@.
    @..@.@.
    .@@..@.
    .......
    .......

u+03ad:
epsilontonos:
    .......
    .......
    ....@..
    ...@...
    .......
    .@@@@..
    @....@.
    .@@@...
    @......
    @....@.
    .@@@@..
    .......
    .......

u+03ae:
etatonos:
    .......
    .......
    ....@..
    ...@...
    .......
    @.@@@..
    @@...@.
    @....@.
    @....@.
    @....@.
    @....@.
    .....@.
    .....@.

u+03af:
iotatonos:
    .......
    .......
    ..@....
    .@.....
    .......
    .@.....
    .@.....
    .@.....
    .@.....
    .@..@..
    ..@@...
    .......
    .......

u+03b0:
upsilondieresistonos:
    .......
    ...@...
    @.@..@.
    @....@.
    .......
    @....@.
    @....@.
    @....@.
    @....@.
    @....@.
    .@@@@..
    .......
    .......

u+03b1:
alpha:
    .......
    .......
    .......
    .......
    .......
    .@@@.@.
    @...@@.
    @....@.
    @...@@.
    @..@.@.
    .@@..@.
    .......
    .......

u+03b2:
beta:
    .......
    .......
    .@@@...
    @...@..
    @...@..
    @@@@@..
    @....@.
    @....@.
    @....@.
    @@...@.
    @.@@@..
    @......
    @......

u+03b3:
gamma:
    .......
    .......
    .......
    .......
    .......
    .@...@.
    .@...@.
    ..@.@..
    ..@.@..
    ...@...
    ...@...
    ...@...
    ...@...

u+03b4:
delta:
    .......
    .......
    .@@@@..
    @....@.
    .@.....
    .@@@@..
    @....@.
    @....@.
    @....@.
    @....@.
    .@@@@..
    .......
    .......

u+03b5:
epsilon:
    .......
    .......
    .......
    .......
    .......
    .@@@@..
    @....@.
    .@@@...
    @......
    @....@.
    .@@@@..
    .......
    .......

u+03b6:
zeta:
    .......
    .......
    @@@@@@.
    ..@....
    .@.....
    .@.....
    @......
    @......
    @......
    @......
    .@@@@..
    .....@.
    ...@@..

u+03b7:
eta:
    .......
    .......
    .......
    .......
    .......
    @.@@@..
    @@...@.
    @....@.
    @....@.
    @....@.
    @....@.
    .....@.
    .....@.

u+03b8:
theta:
    .......
    .......
    ..@@@..
    .@...@.
    .@...@.
    .@...@.
    .@@@@@.
    .@...@.
    .@...@.
    .@...@.
    ..@@@..
    .......
    .......

u+03b9:
iota:
    .......
    .......
    .......
    .......
    .......
    .@.....
    .@.....
    .@.....
    .@.....
    .@..@..
    ..@@...
    .......
    .......

u+03ba:
kappa:
    .......
    .......
    .......
    .......
    .......
    .@...@.
    .@..@..
    .@.@...
    .@@@...
    .@..@..
    .@...@.
    .......
    .......

u+03bb:
lambda:
    .......
    .......
    .@@@@..
    @....@.
    .....@.
    .@@@.@.
    @...@@.
    @....@.
    @....@.
    @....@.
    @....@.
    .......
    .......

u+03bc:
mu:
    .......
    .......
    .......
    .......
    .......
    @....@.
    @....@.
    @....@.
    @....@.
    @@..@@.
    @.@@.@.
    @......
    @......

u+03bd:
nu:
    .......
    .......
    .......
    .......
    .......
    .@...@.
    .@...@.
    .@...@.
    ..@.@..
    ..@.@..
    ...@...
    .......
    .......

u+03be:
xi:
    .......
    .......
    @@@@@@.
    ..@....
    .@.....
    .@.....
    ..@@@..
    .@.....
    @......
    @......
    .@@@@..
    .....@.
    ...@@..

u+03bf:
omicron:
    .......
    .......
    .......
    .......
    .......
    .@@@@..
    @....@.
    @....@.
    @....@.
    @....@.
    .@@@@..
    .......
    .......

u+03c0:
pi:
    .......
    .......
    .......
    .......
    .......
    @@@@@@.
    .@..@..
    .@..@..
    .@..@..
    .@..@..
    .@..@..
    .......
    .......

u+03c1:
rho:
    .......
    .......
    .......
    .......
    .......
    .@@@@..
    @....@.
    @....@.
    @....@.
    @@...@.
    @.@@@..
    @......
    @......

u+03c2:
sigma1:
    .......
    .......
    .......
    .......
    .......
    .@@@@..
    @....@.
    @......
    @......
    @......
    .@@@@..
    .....@.
    ...@@..

u+03c3:
sigma:
    .......
    .......
    .......
    .......
    .......
    .@@@@@.
    @..@...
    @...@..
    @....@.
    @....@.
    .@@@@..
    .......
    .......

u+03c4:
tau:
    .......
    .......
    .......
    .......
    .......
    @@@@@..
    ..@....
    ..@....
    ..@....
    ..@.@..
    ...@...
    .......
    .......

u+03c5:
upsilon:
    .......
    .......
    .......
    .......
    .......
    @....@.
    @....@.
    @....@.
    @....@.
    @....@.
    .@@@@..
    .......
    .......

u+03c6:
phi:
    .......
    .......
    .......
    .......
    .......
    ..@.@..
    .@.@.@.
    .@.@.@.
    .@.@.@.
    .@.@.@.
    ..@@@..
    ...@...
    ...@...

u+03c7:
chi:
    .......
    .......
    .......
    .......
    .......
    .@...@.
    ..@.@..
    ..@.@..
    ...@...
    ...@...
    ..@.@..
    ..@.@..
    .@...@.

u+03c8:
psi:
    .......
    .......
    .......
    .......
    .......
    .@.@.@.
    .@.@.@.
    .@.@.@.
    .@.@.@.
    .@.@.@.
    ..@@@..
    ...@...
    ...@...

u+03c9:
omega:
    .......
    .......
    .......
    .......
    .......
    .@...@.
    .@.@.@.
    .@.@.@.
    .@.@.@.
    .@.@.@.
    ..@.@..
    .......
    .......

u+03ca:
iotadieresis:
    .......
    .......
    @....@.
    @....@.
    .......
    ..@....
    ..@....
    ..@....
    ..@....
    ..@..@.
    ...@@..
    .......
    .......

u+03cb:
upsilondieresis:
    .......
    .......
    @....@.
    @....@.
    .......
    @....@.
    @....@.
    @....@.
    @....@.
    @....@.
    .@@@@..
    .......
    .......

u+03cc:
omicrontonos:
    .......
    .......
    ....@..
    ...@...
    .......
    .@@@@..
    @....@.
    @....@.
    @....@.
    @....@.
    .@@@@..
    .......
    .......

u+03cd:
upsilontonos:
    .......
    .......
    ....@..
    ...@...
    .......
    @....@.
    @....@.
    @....@.
    @....@.
    @....@.
    .@@@@..
    .......
    .......

u+03ce:
omegatonos:
    .......
    .......
    ....@..
    ...@...
    .......
    .@...@.
    .@.@.@.
    .@.@.@.
    .@.@.@.
    .@.@.@.
    ..@.@..
    .......
    .......

u+03d0:
uni03D0:
    .......
    .......
    ..@@...
    .@..@..
    @...@..
    @.@@...
    @@..@..
    @....@.
    @....@.
    .@..@..
    ..@@...
    .......
    .......

u+03d1:
theta1:
    .......
    .......
    .@@@...
    @...@..
    @...@..
    .@@@@@.
    ....@..
    @...@..
    @...@..
    @...@..
    .@@@...
    .......
    .......

u+03d2:
Upsilon1:
    .......
    .......
    ..@.@..
    .@.@.@.
    ...@...
    ...@...
    ...@...
    ...@...
    ...@...
    ...@...
    ...@...
    .......
    .......

u+03d3:
uni03D3:
    .......
    .......
    ..@.@..
    .@.@.@.
    ...@...
    .@.@...
    .@.@...
    ...@...
    ...@...
    ...@...
    ...@...
    .......
    .......

u+03d4:
uni03D4:
    .......
    .@...@.
    .@...@.
    .......
    ..@.@..
    .@.@.@.
    ...@...
    ...@...
    ...@...
    ...@...
    ...@...
    .......
    .......

u+03d5:
phi1:
    .......
    .......
    .......
    ...@...
    ...@...
    ..@@@..
    .@.@.@.
    .@.@.@.
    .@.@.@.
    .@.@.@.
    ..@@@..
    ...@...
    ...@...

u+03d6:
omega1:
    .......
    .......
    .......
    .......
    .......
    .@@@@@.
    .@...@.
    .@.@.@.
    .@.@.@.
    .@.@.@.
    ..@.@..
    .......
    .......

u+03d7:
uni03D7:
    .......
    .......
    ....@..
    ...@...
    .......
    @....@.
    .@..@..
    .@.@...
    .@@@...
    .@..@..
    @....@.
    .....@.
    ..@@@..

u+03da:
uni03DA:
    .......
    .......
    ..@@@..
    .@...@.
    @......
    @......
    @......
    @......
    @......
    .@@@@..
    .....@.
    ....@..
    .......

u+03db:
uni03DB:
    .......
    .......
    .......
    .......
    .....@.
    .@@@@..
    @......
    @......
    @......
    @......
    .@@@@..
    .....@.
    ...@@..

u+03dc:
uni03DC:
    .......
    .......
    @@@@@@.
    @......
    @......
    @......
    @@@@...
    @......
    @......
    @......
    @......
    .......
    .......

u+03dd:
uni03DD:
    .......
    .......
    .......
    .......
    .......
    @@@@@..
    @......
    @......
    @@@@...
    @......
    @......
    @......
    @......

u+03de:
uni03DE:
    .......
    .......
    @......
    @....@.
    @...@@.
    @..@.@.
    @.@..@.
    @.@..@.
    @@...@.
    @....@.
    .....@.
    .......
    .......

u+03df:
uni03DF:
    .......
    .......
    ..@....
    ..@....
    .@.....
    .@.....
    @......
    @@@@@@.
    .....@.
    ....@..
    ....@..
    ...@...
    ...@...

u+03e0:
uni03E0:
    .......
    .......
    ..@@...
    ..@@...
    ..@@...
    .@..@..
    .@..@..
    .@..@..
    @..@.@.
    @..@.@.
    @.@..@.
    .......
    .......

u+03e1:
uni03E1:
    .......
    .......
    .@@....
    ...@...
    ....@..
    ...@@..
    ..@..@.
    .@..@@.
    ...@.@.
    ..@..@.
    .....@.
    .....@.
    .....@.

u+03e2:
uni03E2:
    .......
    .......
    .@.@.@.
    .@.@.@.
    .@.@.@.
    .@.@.@.
    .@.@.@.
    .@.@.@.
    ..@.@@.
    .....@.
    .@@@@..
    .......
    .......

u+03e3:
uni03E3:
    .......
    .......
    .......
    .......
    .......
    .@.@.@.
    .@.@.@.
    .@.@.@.
    ..@.@@.
    .....@.
    .@@@@..
    .......
    .......

u+03e4:
uni03E4:
    .......
    .......
    .@...@.
    @....@.
    @....@.
    @....@.
    @....@.
    @....@.
    .@@@@@.
    .....@.
    .....@.
    .......
    .......

u+03e5:
uni03E5:
    .......
    .......
    ..@..@.
    .@...@.
    .@...@.
    .@...@.
    .@...@.
    .@...@.
    ..@@@@.
    .....@.
    .....@.
    .......
    .......

u+03e6:
uni03E6:
    .......
    .......
    @@@....
    .@.....
    .@.....
    .@.....
    .@@@@..
    .@...@.
    .@...@.
    .@...@.
    @@@..@.
    ....@..
    ...@...

u+03e7:
uni03E7:
    .......
    .......
    .......
    ..@....
    ..@....
    .@@@@..
    @.@..@.
    .@...@.
    .....@.
    @....@.
    .@@@@..
    .......
    .......

u+03e8:
uni03E8:
    .......
    .......
    .@@@@..
    @....@.
    .@...@.
    .....@.
    .@@@@..
    @......
    @....@.
    @....@.
    .@@@@..
    .......
    .......

u+03e9:
uni03E9:
    .......
    .......
    .@@@@..
    @....@.
    @...@..
    .@.@...
    ..@....
    .@.....
    @......
    @......
    .@@@@@.
    .......
    .......

u+03ea:
uni03EA:
    .......
    .......
    .@@.@@.
    ...@...
    ...@...
    ..@.@..
    ..@.@..
    ..@.@..
    .@...@.
    .@...@.
    .@@@@@.
    .......
    .......

u+03eb:
uni03EB:
    .......
    .......
    .......
    .......
    .......
    .@@.@@.
    ...@...
    ...@...
    ..@.@..
    ..@.@..
    ..@@@..
    .......
    .......

u+03ec:
uni03EC:
    .......
    .......
    ..@@@..
    .@.....
    .@@@@..
    .@...@.
    .@...@.
    .@...@.
    .@...@.
    .@...@.
    ..@@@..
    .......
    .......

u+03ed:
uni03ED:
    .......
    .......
    .......
    .......
    .@@@@..
    @......
    @.@@@..
    @....@.
    @....@.
    @....@.
    .@@@@..
    .......
    .......

u+03ee:
uni03EE:
    .......
    .......
    ..@@@..
    ...@...
    .@@@@@.
    .@.@.@.
    ...@...
    ...@...
    ...@...
    ...@...
    ...@...
    .......
    .......

u+03ef:
uni03EF:
    .......
    .......
    .......
    .......
    ...@...
    ...@...
    ...@.@.
    .@@@@@.
    .@.@...
    ...@...
    ...@...
    .......
    .......

u+03f0:
uni03F0:
    .......
    .......
    .......
    .......
    .......
    @....@.
    .@..@..
    .@.@...
    .@@@...
    .@..@..
    @....@.
    .......
    .......

u+03f1:
uni03F1:
    .......
    .......
    .......
    .......
    .......
    .@@@@..
    @....@.
    @....@.
    @....@.
    @@...@.
    @.@@@..
    @......
    .@@@@..

u+03f2:
uni03F2:
    .......
    .......
    .......
    .......
    .......
    .@@@@..
    @....@.
    @......
    @......
    @....@.
    .@@@@..
    .......
    .......

u+03f3:
uni03F3:
    .......
    .......
    .......
    .....@.
    .......
    ....@@.
    .....@.
    .....@.
    .....@.
    .....@.
    .@...@.
    .@...@.
    ..@@@..

u+03f4:
uni03F4:
    .......
    .......
    .@@@@..
    @....@.
    @....@.
    @....@.
    @@@@@@.
    @....@.
    @....@.
    @....@.
    .@@@@..
    .......
    .......

u+03f5:
uni03F5:
    .......
    .......
    .......
    .......
    .......
    ..@@@@.
    .@.....
    .@@@@..
    .@.....
    .@.....
    ..@@@@.
    .......
    .......

u+0400:
uni0400:
    .......
    ..@....
    ...@...
    .......
    @@@@@@.
    @......
    @......
    @@@@...
    @......
    @......
    @@@@@@.
    .......
    .......

u+0401:
afii10023:
    .......
    .@..@..
    .@..@..
    .......
    @@@@@@.
    @......
    @......
    @@@@...
    @......
    @......
    @@@@@@.
    .......
    .......

u+0402:
afii10051:
    .......
    .......
    @@@@@..
    ..@....
    ..@....
    ..@....
    ..@@@..
    ..@..@.
    ..@..@.
    ..@..@.
    ..@..@.
    .....@.
    ...@@..

u+0403:
afii10052:
    ...@...
    ..@....
    .......
    @@@@@@.
    @......
    @......
    @......
    @......
    @......
    @......
    @......
    .......
    .......

u+0404:
afii10053:
    .......
    .......
    ..@@@..
    .@...@.
    @......
    @......
    @@@@...
    @......
    @......
    .@...@.
    ..@@@..
    .......
    .......

u+0405:
afii10054:
    .......
    .......
    .@@@@..
    @....@.
    @......
    @......
    .@@@@..
    .....@.
    .....@.
    @....@.
    .@@@@..
    .......
    .......

u+0406:
afii10055:
    .......
    .......
    .@@@@@.
    ...@...
    ...@...
    ...@...
    ...@...
    ...@...
    ...@...
    ...@...
    .@@@@@.
    .......
    .......

u+0407:
afii10056:
    .......
    .@...@.
    .@...@.
    .......
    .@@@@@.
    ...@...
    ...@...
    ...@...
    ...@...
    ...@...
    .@@@@@.
    .......
    .......

u+0408:
afii10057:
    .......
    .......
    ...@@@.
    ....@..
    ....@..
    ....@..
    ....@..
    ....@..
    ....@..
    @...@..
    .@@@...
    .......
    .......

u+0409:
afii10058:
    .......
    .......
    .@@@...
    .@.@...
    .@.@...
    .@.@...
    .@.@@..
    .@.@.@.
    .@.@.@.
    .@.@.@.
    @..@@..
    .......
    .......

u+040a:
afii10059:
    .......
    .......
    @..@...
    @..@...
    @..@...
    @..@...
    @@@@@..
    @..@.@.
    @..@.@.
    @..@.@.
    @..@@..
    .......
    .......

u+040b:
afii10060:
    .......
    .......
    @@@@@..
    ..@....
    ..@....
    ..@....
    ..@@@..
    ..@..@.
    ..@..@.
    ..@..@.
    ..@..@.
    .......
    .......

u+040c:
afii10061:
    ...@...
    ..@....
    @....@.
    @...@..
    @..@...
    @.@....
    @@.....
    @.@....
    @..@...
    @...@..
    @....@.
    .......
    .......

u+040d:
uni040D:
    ..@....
    ...@...
    @....@.
    @....@.
    @...@@.
    @..@.@.
    @.@..@.
    @@...@.
    @....@.
    @....@.
    @....@.
    .......
    .......

u+040e:
afii10062:
    .@..@..
    ..@@...
    .......
    @....@.
    @....@.
    @....@.
    .@@@@@.
    .....@.
    .....@.
    @....@.
    .@@@@..
    .......
    .......

u+040f:
afii10145:
    .......
    .......
    @...@..
    @...@..
    @...@..
    @...@..
    @...@..
    @...@..
    @...@..
    @...@..
    @@@@@..
    ..@....
    ..@....

u+0410:
afii10017:
    .......
    .......
    ..@@...
    .@..@..
    @....@.
    @....@.
    @....@.
    @@@@@@.
    @....@.
    @....@.
    @....@.
    .......
    .......

u+0411:
afii10018:
    .......
    .......
    @@@@@..
    @......
    @......
    @......
    @@@@@..
    @....@.
    @....@.
    @....@.
    @@@@@..
    .......
    .......

u+0412:
afii10019:
    .......
    .......
    @@@@@..
    @....@.
    @....@.
    @....@.
    @@@@@..
    @....@.
    @....@.
    @....@.
    @@@@@..
    .......
    .......

u+0413:
afii10020:
    .......
    .......
    @@@@@@.
    @......
    @......
    @......
    @......
    @......
    @......
    @......
    @......
    .......
    .......

u+0414:
afii10021:
    .......
    .......
    ..@@@..
    ..@.@..
    ..@.@..
    ..@.@..
    .@..@..
    .@..@..
    .@..@..
    .@..@..
    @@@@@@.
    @....@.
    .......

u+0415:
afii10022:
    .......
    .......
    @@@@@@.
    @......
    @......
    @......
    @@@@...
    @......
    @......
    @......
    @@@@@@.
    .......
    .......

u+0416:
afii10024:
    .......
    .......
    .@.@.@.
    .@.@.@.
    .@.@.@.
    .@.@.@.
    ..@@@..
    .@.@.@.
    .@.@.@.
    .@.@.@.
    .@.@.@.
    .......
    .......

u+0417:
afii10025:
    .......
    .......
    .@@@@..
    @....@.
    .....@.
    .....@.
    ..@@@..
    .....@.
    .....@.
    @....@.
    .@@@@..
    .......
    .......

u+0418:
afii10026:
    .......
    .......
    @....@.
    @....@.
    @...@@.
    @..@.@.
    @.@..@.
    @@...@.
    @....@.
    @....@.
    @....@.
    .......
    .......

u+0419:
afii10027:
    .@..@..
    ..@@...
    @....@.
    @....@.
    @...@@.
    @..@.@.
    @.@..@.
    @@...@.
    @....@.
    @....@.
    @....@.
    .......
    .......

u+041a:
afii10028:
    .......
    .......
    @....@.
    @...@..
    @..@...
    @.@....
    @@.....
    @.@....
    @..@...
    @...@..
    @....@.
    .......
    .......

u+041b:
afii10029:
    .......
    .......
    .@@@@@.
    .@...@.
    .@...@.
    .@...@.
    .@...@.
    .@...@.
    .@...@.
    .@...@.
    @....@.
    .......
    .......

u+041c:
afii10030:
    .......
    .......
    @....@.
    @@..@@.
    @@..@@.
    @.@@.@.
    @.@@.@.
    @....@.
    @....@.
    @....@.
    @....@.
    .......
    .......

u+041d:
afii10031:
    .......
    .......
    @....@.
    @....@.
    @....@.
    @....@.
    @@@@@@.
    @....@.
    @....@.
    @....@.
    @....@.
    .......
    .......

u+041e:
afii10032:
    .......
    .......
    .@@@@..
    @....@.
    @....@.
    @....@.
    @....@.
    @....@.
    @....@.
    @....@.
    .@@@@..
    .......
    .......

u+041f:
afii10033:
    .......
    .......
    @@@@@@.
    @....@.
    @....@.
    @....@.
    @....@.
    @....@.
    @....@.
    @....@.
    @....@.
    .......
    .......

u+0420:
afii10034:
    .......
    .......
    @@@@@..
    @....@.
    @....@.
    @....@.
    @@@@@..
    @......
    @......
    @......
    @......
    .......
    .......

u+0421:
afii10035:
    .......
    .......
    .@@@@..
    @....@.
    @......
    @......
    @......
    @......
    @......
    @....@.
    .@@@@..
    .......
    .......

u+0422:
afii10036:
    .......
    .......
    .@@@@@.
    ...@...
    ...@...
    ...@...
    ...@...
    ...@...
    ...@...
    ...@...
    ...@...
    .......
    .......

u+0423:
afii10037:
    .......
    .......
    @....@.
    @....@.
    @....@.
    @....@.
    .@@@@@.
    .....@.
    .....@.
    @....@.
    .@@@@..
    .......
    .......

u+0424:
afii10038:
    .......
    ...@...
    ..@@@..
    .@.@.@.
    .@.@.@.
    .@.@.@.
    .@.@.@.
    .@.@.@.
    .@.@.@.
    .@.@.@.
    ..@@@..
    ...@...
    .......

u+0425:
afii10039:
    .......
    .......
    @....@.
    @....@.
    .@..@..
    .@..@..
    ..@@...
    .@..@..
    .@..@..
    @....@.
    @....@.
    .......
    .......

u+0426:
afii10040:
    .......
    .......
    @...@..
    @...@..
    @...@..
    @...@..
    @...@..
    @...@..
    @...@..
    @...@..
    @@@@@@.
    .....@.
    .....@.

u+0427:
afii10041:
    .......
    .......
    @....@.
    @....@.
    @....@.
    @....@.
    .@@@@@.
    .....@.
    .....@.
    .....@.
    .....@.
    .......
    .......

u+0428:
afii10042:
    .......
    .......
    .@.@.@.
    .@.@.@.
    .@.@.@.
    .@.@.@.
    .@.@.@.
    .@.@.@.
    .@.@.@.
    .@.@.@.
    .@@@@@.
    .......
    .......

u+0429:
afii10043:
    .......
    .......
    @.@.@..
    @.@.@..
    @.@.@..
    @.@.@..
    @.@.@..
    @.@.@..
    @.@.@..
    @.@.@..
    @@@@@@.
    .....@.
    .....@.

u+042a:
afii10044:
    .......
    .......
    @@@....
    ..@....
    ..@....
    ..@....
    ..@@@..
    ..@..@.
    ..@..@.
    ..@..@.
    ..@@@..
    .......
    .......

u+042b:
afii10045:
    .......
    .......
    @....@.
    @....@.
    @....@.
    @....@.
    @@@..@.
    @..@.@.
    @..@.@.
    @..@.@.
    @@@..@.
    .......
    .......

u+042c:
afii10046:
    .......
    .......
    .@.....
    .@.....
    .@.....
    .@.....
    .@@@@..
    .@...@.
    .@...@.
    .@...@.
    .@@@@..
    .......
    .......

u+042d:
afii10047:
    .......
    .......
    .@@@...
    @...@..
    .....@.
    .....@.
    ..@@@@.
    .....@.
    .....@.
    @...@..
    .@@@...
    .......
    .......

u+042e:
afii10048:
    .......
    .......
    @..@@..
    @.@..@.
    @.@..@.
    @.@..@.
    @@@..@.
    @.@..@.
    @.@..@.
    @.@..@.
    @..@@..
    .......
    .......

u+042f:
afii10049:
    .......
    .......
    .@@@@@.
    @....@.
    @....@.
    @....@.
    .@@@@@.
    ...@.@.
    ..@..@.
    .@...@.
    @....@.
    .......
    .......

u+0430:
afii10065:
    .......
    .......
    .......
    .......
    .......
    .@@@@..
    .....@.
    .@@@@@.
    @....@.
    @...@@.
    .@@@.@.
    .......
    .......

u+0431:
afii10066:
    .......
    .......
    .....@.
    .@@@@..
    @......
    @.@@@..
    @@...@.
    @....@.
    @....@.
    @....@.
    .@@@@..
    .......
    .......

u+0432:
afii10067:
    .......
    .......
    .......
    .......
    .......
    @@@@@..
    @....@.
    @@@@@..
    @....@.
    @....@.
    @@@@@..
    .......
    .......

u+0433:
afii10068:
    .......
    .......
    .......
    .......
    .......
    @@@@@@.
    @......
    @......
    @......
    @......
    @......
    .......
    .......

u+0434:
afii10069:
    .......
    .......
    .......
    .......
    .......
    ..@@@..
    .@..@..
    .@..@..
    .@..@..
    .@..@..
    @@@@@@.
    @....@.
    .......

u+0435:
afii10070:
    .......
    .......
    .......
    .......
    .......
    .@@@@..
    @....@.
    @@@@@@.
    @......
    @....@.
    .@@@@..
    .......
    .......

u+0436:
afii10072:
    .......
    .......
    .......
    .......
    .......
    .@.@.@.
    .@.@.@.
    ..@@@..
    .@.@.@.
    .@.@.@.
    .@.@.@.
    .......
    .......

u+0437:
afii10073:
    .......
    .......
    .......
    .......
    .......
    .@@@@..
    @....@.
    ..@@@..
    .....@.
    @....@.
    .@@@@..
    .......
    .......

u+0438:
afii10074:
    .......
    .......
    .......
    .......
    .......
    @....@.
    @...@@.
    @..@.@.
    @.@..@.
    @@...@.
    @....@.
    .......
    .......

u+0439:
afii10075:
    .......
    .......
    .@..@..
    ..@@...
    .......
    @....@.
    @...@@.
    @..@.@.
    @.@..@.
    @@...@.
    @....@.
    .......
    .......

u+043a:
afii10076:
    .......
    .......
    .......
    .......
    .......
    @....@.
    @...@..
    @@@@...
    @...@..
    @....@.
    @....@.
    .......
    .......

u+043b:
afii10077:
    .......
    .......
    .......
    .......
    .......
    ..@@@@.
    .@...@.
    .@...@.
    .@...@.
    .@...@.
    @....@.
    .......
    .......

u+043c:
afii10078:
    .......
    .......
    .......
    .......
    .......
    .@...@.
    .@@.@@.
    .@.@.@.
    .@...@.
    .@...@.
    .@...@.
    .......
    .......

u+043d:
afii10079:
    .......
    .......
    .......
    .......
    .......
    @....@.
    @....@.
    @@@@@@.
    @....@.
    @....@.
    @....@.
    .......
    .......

u+043e:
afii10080:
    .......
    .......
    .......
    .......
    .......
    .@@@@..
    @....@.
    @....@.
    @....@.
    @....@.
    .@@@@..
    .......
    .......

u+043f:
afii10081:
    .......
    .......
    .......
    .......
    .......
    @@@@@@.
    @....@.
    @....@.
    @....@.
    @....@.
    @....@.
    .......
    .......

u+0440:
afii10082:
    .......
    .......
    .......
    .......
    .......
    @.@@@..
    @@...@.
    @....@.
    @....@.
    @@...@.
    @.@@@..
    @......
    @......

u+0441:
afii10083:
    .......
    .......
    .......
    .......
    .......
    .@@@@..
    @....@.
    @......
    @......
    @....@.
    .@@@@..
    .......
    .......

u+0442:
afii10084:
    .......
    .......
    .......
    .......
    .......
    .@@@@@.
    ...@...
    ...@...
    ...@...
    ...@...
    ...@...
    .......
    .......

u+0443:
afii10085:
    .......
    .......
    .......
    .......
    .......
    @....@.
    @....@.
    @....@.
    @...@@.
    .@@@.@.
    .....@.
    @....@.
    .@@@@..

u+0444:
afii10086:
    .......
    .......
    .......
    ...@...
    ...@...
    ..@@@..
    .@.@.@.
    .@.@.@.
    .@.@.@.
    .@.@.@.
    ..@@@..
    ...@...
    ...@...

u+0445:
afii10087:
    .......
    .......
    .......
    .......
    .......
    @....@.
    .@..@..
    ..@@...
    ..@@...
    .@..@..
    @....@.
    .......
    .......

u+0446:
afii10088:
    .......
    .......
    .......
    .......
    .......
    @...@..
    @...@..
    @...@..
    @...@..
    @...@..
    @@@@@@.
    .....@.
    .....@.

u+0447:
afii10089:
    .......
    .......
    .......
    .......
    .......
    @....@.
    @....@.
    @....@.
    .@@@@@.
    .....@.
    .....@.
    .......
    .......

u+0448:
afii10090:
    .......
    .......
    .......
    .......
    .......
    .@.@.@.
    .@.@.@.
    .@.@.@.
    .@.@.@.
    .@.@.@.
    .@@@@@.
    .......
    .......

u+0449:
afii10091:
    .......
    .......
    .......
    .......
    .......
    @.@.@..
    @.@.@..
    @.@.@..
    @.@.@..
    @.@.@..
    @@@@@@.
    .....@.
    .....@.

u+044a:
afii10092:
    .......
    .......
    .......
    .......
    .......
    @@@....
    ..@....
    ..@@@..
    ..@..@.
    ..@..@.
    ..@@@..
    .......
    .......

u+044b:
afii10093:
    .......
    .......
    .......
    .......
    .......
    @....@.
    @....@.
    @@@..@.
    @..@.@.
    @..@.@.
    @@@..@.
    .......
    .......

u+044c:
afii10094:
    .......
    .......
    .......
    .......
    .......
    .@.....
    .@.....
    .@@@@..
    .@...@.
    .@...@.
    .@@@@..
    .......
    .......

u+044d:
afii10095:
    .......
    .......
    .......
    .......
    .......
    .@@@@..
    @....@.
    ...@@@.
    .....@.
    @....@.
    .@@@@..
    .......
    .......

u+044e:
afii10096:
    .......
    .......
    .......
    .......
    .......
    @..@@..
    @.@..@.
    @@@..@.
    @.@..@.
    @.@..@.
    @..@@..
    .......
    .......

u+044f:
afii10097:
    .......
    .......
    .......
    .......
    .......
    .@@@@@.
    @....@.
    @....@.
    .@@@@@.
    .@...@.
    @....@.
    .......
    .......

u+0450:
uni0450:
    .......
    .......
    ..@....
    ...@...
    .......
    .@@@@..
    @....@.
    @@@@@@.
    @......
    @....@.
    .@@@@..
    .......
    .......

u+0451:
afii10071:
    .......
    .......
    .@..@..
    .@..@..
    .......
    .@@@@..
    @....@.
    @@@@@@.
    @......
    @....@.
    .@@@@..
    .......
    .......

u+0452:
afii10099:
    .......
    .......
    .......
    .@.....
    .@.....
    @@@@...
    .@.....
    .@@@@..
    .@...@.
    .@...@.
    .@...@.
    .....@.
    ...@@..

u+0453:
afii10100:
    .......
    .......
    ...@...
    ..@....
    .......
    @@@@@@.
    @......
    @......
    @......
    @......
    @......
    .......
    .......

u+0454:
afii10101:
    .......
    .......
    .......
    .......
    .......
    .@@@@..
    @....@.
    @@@....
    @......
    @....@.
    .@@@@..
    .......
    .......

u+0455:
afii10102:
    .......
    .......
    .......
    .......
    .......
    .@@@@..
    @....@.
    .@@....
    ...@@..
    @....@.
    .@@@@..
    .......
    .......

u+0456:
afii10103:
    .......
    .......
    .......
    ...@...
    .......
    ..@@...
    ...@...
    ...@...
    ...@...
    ...@...
    .@@@@@.
    .......
    .......

u+0457:
afii10104:
    .......
    .......
    .@..@..
    .@..@..
    .......
    ..@@...
    ...@...
    ...@...
    ...@...
    ...@...
    .@@@@@.
    .......
    .......

u+0458:
afii10105:
    .......
    .......
    .......
    .....@.
    .......
    ....@@.
    .....@.
    .....@.
    .....@.
    .....@.
    .@...@.
    .@...@.
    ..@@@..

u+0459:
afii10106:
    .......
    .......
    .......
    .......
    .......
    .@@@...
    .@.@...
    .@.@@@.
    .@.@..@
    .@.@..@
    @..@@@.
    .......
    .......

u+045a:
afii10107:
    .......
    .......
    .......
    .......
    .......
    @..@...
    @..@...
    @@@@@..
    @..@.@.
    @..@.@.
    @..@@..
    .......
    .......

u+045b:
afii10108:
    .......
    .......
    .......
    .@.....
    .@.....
    @@@@...
    .@.....
    .@@@@..
    .@...@.
    .@...@.
    .@...@.
    .......
    .......

u+045c:
afii10109:
    .......
    .......
    ...@...
    ..@....
    .......
    @....@.
    @...@..
    @@@@...
    @...@..
    @....@.
    @....@.
    .......
    .......

u+045d:
uni045D:
    .......
    .......
    ..@....
    ...@...
    .......
    @....@.
    @...@@.
    @..@.@.
    @.@..@.
    @@...@.
    @....@.
    .......
    .......

u+045e:
afii10110:
    .......
    .......
    .@..@..
    ..@@...
    .......
    @....@.
    @....@.
    @....@.
    @...@@.
    .@@@.@.
    .....@.
    @....@.
    .@@@@..

u+045f:
afii10193:
    .......
    .......
    .......
    .......
    .......
    .@...@.
    .@...@.
    .@...@.
    .@...@.
    .@...@.
    .@@@@@.
    ...@...
    ...@...

u+0460:
uni0460:
    .......
    .......
    .@..@..
    @....@.
    @....@.
    @....@.
    @....@.
    @....@.
    @....@.
    @.@@.@.
    .@..@..
    .......
    .......

u+0461:
uni0461:
    .......
    .......
    .......
    .......
    .......
    ..@.@..
    .@...@.
    .@.@.@.
    .@.@.@.
    .@.@.@.
    ..@.@..
    .......
    .......

u+0462:
afii10146:
    .......
    .......
    .@.....
    @@@@...
    .@.....
    .@.....
    .@@@@..
    .@...@.
    .@...@.
    .@...@.
    .@@@@..
    .......
    .......

u+0463:
afii10194:
    .......
    .......
    .......
    .@.....
    .@.....
    @@@@...
    .@.....
    .@@@@..
    .@...@.
    .@...@.
    .@@@@..
    .......
    .......

u+0464:
uni0464:
    .......
    .......
    @..@@..
    @.@..@.
    @.@....
    @.@....
    @@@@@..
    @.@....
    @.@....
    @.@..@.
    @..@@..
    .......
    .......

u+0465:
uni0465:
    .......
    .......
    .......
    .......
    .......
    @..@@..
    @.@..@.
    @@@@...
    @.@....
    @.@..@.
    @..@@..
    .......
    .......

u+0466:
uni0466:
    .......
    .......
    ...@...
    ...@...
    ...@...
    ..@.@..
    ..@.@..
    ..@.@..
    .@@@@@.
    .@.@.@.
    .@.@.@.
    .......
    .......

u+0467:
uni0467:
    .......
    .......
    .......
    .......
    .......
    ...@...
    ...@...
    ..@.@..
    ..@.@..
    .@@@@@.
    .@.@.@.
    .......
    .......

u+0468:
uni0468:
    .......
    .......
    @..@...
    @..@...
    @..@...
    @.@.@..
    @@@.@..
    @.@.@..
    @@@@@@.
    @@.@.@.
    @@.@.@.
    .......
    .......

u+0469:
uni0469:
    .......
    .......
    .......
    .......
    .......
    @..@...
    @..@...
    @@@.@..
    @.@.@..
    @@@@@@.
    @@.@.@.
    .......
    .......

u+046a:
uni046A:
    .......
    .......
    .@@@@@.
    .@...@.
    .@...@.
    ..@.@..
    ...@...
    ..@@@..
    .@.@.@.
    .@.@.@.
    .@.@.@.
    .......
    .......

u+046b:
uni046B:
    .......
    .......
    .......
    .......
    .......
    .@@@@@.
    .@...@.
    ..@.@..
    ..@@@..
    .@.@.@.
    .@.@.@.
    .......
    .......

u+046c:
uni046C:
    .......
    .......
    @@@@@@.
    @@...@.
    @@...@.
    @.@.@..
    @@@@...
    @.@@@..
    @@.@.@.
    @@.@.@.
    @@.@.@.
    .......
    .......

u+046d:
uni046D:
    .......
    .......
    .......
    .......
    .......
    @@@@@@.
    @@...@.
    @.@.@..
    @@@@@..
    @@.@.@.
    @@.@.@.
    .......
    .......

u+046e:
uni046E:
    .@..@..
    ..@@...
    .......
    .@@@@..
    @....@.
    .....@.
    ..@@@..
    .....@.
    .....@.
    .....@.
    .@@@@..
    @......
    .@@@@..

u+046f:
uni046F:
    .......
    .......
    .@..@..
    ..@@...
    .......
    .@@@@..
    @....@.
    ..@@@..
    .....@.
    .....@.
    .@@@@..
    @......
    .@@@@..

u+0470:
uni0470:
    .......
    .......
    .@.@.@.
    .@.@.@.
    .@.@.@.
    .@.@.@.
    .@.@.@.
    .@.@.@.
    ..@@@..
    ...@...
    ...@...
    .......
    .......

u+0471:
uni0471:
    .......
    .......
    .......
    .......
    .......
    .@.@.@.
    .@.@.@.
    .@.@.@.
    .@.@.@.
    .@.@.@.
    ..@@@..
    ...@...
    ...@...

u+0472:
afii10147:
    .......
    .......
    .@@@@..
    @....@.
    @....@.
    @....@.
    @@@@@@.
    @....@.
    @....@.
    @....@.
    .@@@@..
    .......
    .......

u+0473:
afii10195:
    .......
    .......
    .......
    .......
    .......
    .@@@@..
    @....@.
    @@@@@@.
    @....@.
    @....@.
    .@@@@..
    .......
    .......

u+0474:
afii10148:
    .......
    .......
    @....@.
    @...@..
    @..@...
    .@.@...
    .@.@...
    .@.@...
    ..@....
    ..@....
    ..@....
    .......
    .......

u+0475:
afii10196:
    .......
    .......
    .......
    .......
    .......
    .@...@.
    .@..@..
    .@..@..
    ..@.@..
    ..@.@..
    ...@...
    .......
    .......

u+0476:
uni0476:
    @..@...
    .@..@..
    .......
    @....@.
    @...@..
    @..@...
    .@.@...
    .@.@...
    .@.@...
    ..@....
    ..@....
    .......
    .......

u+0477:
uni0477:
    .......
    .......
    .@..@..
    ..@..@.
    .......
    .@...@.
    .@..@..
    .@..@..
    ..@.@..
    ..@.@..
    ...@...
    .......
    .......

u+0478:
uni0478:
    .......
    .......
    .@.....
    @.@....
    @.@....
    @.@....
    @.@@.@.
    @.@@.@.
    @.@@.@.
    @.@@.@.
    .@..@..
    ....@..
    ...@...

u+0479:
uni0479:
    .......
    .......
    .......
    .......
    .......
    .......
    .@.@.@.
    @.@@.@.
    @.@@.@.
    @.@@.@.
    .@..@..
    ....@..
    ...@...

u+047a:
uni047A:
    .......
    ...@...
    ..@@@..
    .@...@.
    .@...@.
    .@...@.
    .@...@.
    .@...@.
    .@...@.
    .@...@.
    ..@@@..
    ...@...
    .......

u+047b:
uni047B:
    .......
    .......
    .......
    .......
    ...@...
    ..@@@..
    .@...@.
    .@...@.
    .@...@.
    .@...@.
    ..@@@..
    .......
    .......

u+047c:
uni047C:
    ...@...
    ..@....
    .......
    .@..@..
    @....@.
    @....@.
    @....@.
    @....@.
    @....@.
    @.@@.@.
    .@..@..
    .......
    .......

u+047d:
uni047D:
    .......
    .......
    ....@..
    ...@...
    .......
    ..@.@..
    .@...@.
    .@.@.@.
    .@.@.@.
    .@.@.@.
    ..@.@..
    .......
    .......

u+047e:
uni047E:
    .......
    .@@@@..
    .......
    .@..@..
    @....@.
    @....@.
    @....@.
    @....@.
    @....@.
    @.@@.@.
    .@..@..
    .......
    .......

u+047f:
uni047F:
    .......
    .......
    .......
    ..@@@..
    .......
    ..@.@..
    .@...@.
    .@.@.@.
    .@.@.@.
    .@.@.@.
    ..@.@..
    .......
    .......

u+0480:
uni0480:
    .......
    .......
    ..@@@..
    .@...@.
    @......
    @......
    @......
    @......
    @......
    .@@@@..
    ....@..
    ....@..
    .......

u+0481:
uni0481:
    .......
    .......
    .......
    .......
    .......
    .@@@@..
    @....@.
    @......
    @......
    @......
    .@@@...
    ...@...
    ...@...

u+0482:
uni0482:
    .......
    .......
    .......
    ....@..
    .@..@..
    ..@@...
    @..@@..
    .@@..@.
    ..@@...
    .@..@..
    .@.....
    .......
    .......

u+0483:
uni0483:
    ....@..
    ..@@@..
    ..@....
    .......
    .......
    .......
    .......
    .......
    .......
    .......
    .......
    .......
    .......

u+0484:
uni0484:
    ...@...
    ..@.@..
    .@.....
    .......
    .......
    .......
    .......
    .......
    .......
    .......
    .......
    .......
    .......

u+0485:
uni0485:
    ..@....
    ..@@@..
    ..@....
    .......
    .......
    .......
    .......
    .......
    .......
    .......
    .......
    .......
    .......

u+0486:
uni0486:
    ....@..
    ..@@@..
    ....@..
    .......
    .......
    .......
    .......
    .......
    .......
    .......
    .......
    .......
    .......

u+0488:
uni0488:
    .@.....
    @.@..@.
    ....@.@
    .......
    .......
    .......
    .......
    .......
    .......
    .......
    .@.....
    @.@..@.
    ....@.@

u+0489:
uni0489:
    ..@....
    .@...@.
    .@@.@..
    ....@@.
    .......
    .......
    .......
    .......
    .......
    ..@....
    .@...@.
    .@@.@..
    ....@@.

u+048c:
uni048C:
    .......
    .......
    .@.....
    @@@@...
    .@.....
    .@.....
    .@@@...
    .@..@..
    .@..@..
    .@..@..
    .@@@...
    .......
    .......

u+048d:
uni048D:
    .......
    .......
    .......
    .......
    .......
    .@.....
    @@@@...
    .@.....
    .@@@...
    .@..@..
    .@@@...
    .......
    .......

u+048e:
uni048E:
    .......
    .......
    @@@@@..
    @....@.
    @..@.@.
    @...@..
    @@@@.@.
    @......
    @......
    @......
    @......
    .......
    .......

u+048f:
uni048F:
    .......
    .......
    .......
    .......
    .......
    @.@@@..
    @@...@.
    @..@.@.
    @@..@..
    @.@@.@.
    @......
    @......
    @......

u+0490:
afii10050:
    .....@.
    .....@.
    @@@@@@.
    @......
    @......
    @......
    @......
    @......
    @......
    @......
    @......
    .......
    .......

u+0491:
afii10098:
    .......
    .......
    .......
    .....@.
    .....@.
    @@@@@@.
    @......
    @......
    @......
    @......
    @......
    .......
    .......

u+0492:
uni0492:
    .......
    .......
    @@@@@@.
    @......
    @......
    @......
    @@@@...
    @......
    @......
    @......
    @......
    .......
    .......

u+0493:
uni0493:
    .......
    .......
    .......
    .......
    .......
    .@@@@@.
    .@.....
    .@.....
    .@@@...
    .@.....
    .@.....
    .......
    .......

u+0494:
uni0494:
    .......
    .......
    @@@@@..
    @......
    @......
    @@@....
    @..@...
    @...@..
    @...@..
    @...@..
    @...@..
    ...@...
    .@@....

u+0495:
uni0495:
    .......
    .......
    .......
    .......
    .......
    .@@@@@.
    .@.....
    .@@@...
    .@..@..
    .@...@.
    .@...@.
    ....@..
    ..@@...

u+0496:
uni0496:
    .......
    .......
    @.@.@..
    @.@.@..
    @.@.@..
    @.@.@..
    .@@@...
    @.@.@..
    @.@.@..
    @.@.@..
    @.@.@@.
    .....@.
    .....@.

u+0497:
uni0497:
    .......
    .......
    .......
    .......
    .......
    @.@.@..
    @.@.@..
    .@@@...
    @.@.@..
    @.@.@..
    @.@.@@.
    .....@.
    .....@.

u+0498:
uni0498:
    .......
    .......
    .@@@@..
    @....@.
    .....@.
    .....@.
    ..@@@..
    .....@.
    .....@.
    @....@.
    .@@@@..
    ...@...
    ..@....

u+0499:
uni0499:
    .......
    .......
    .......
    .......
    .......
    .@@@@..
    @....@.
    ..@@@..
    .....@.
    @....@.
    .@@@@..
    ...@...
    ..@....

u+049a:
uni049A:
    .......
    .......
    @....@.
    @...@..
    @..@...
    @.@....
    @@.....
    @.@....
    @..@...
    @...@..
    @....@.
    .....@.
    .....@.

u+049b:
uni049B:
    .......
    .......
    .......
    .......
    .......
    @....@.
    @...@..
    @@@@...
    @...@..
    @....@.
    @....@.
    .....@.
    .....@.

u+049c:
uni049C:
    .......
    .......
    @....@.
    @.@.@..
    @.@@...
    @.@....
    @@@....
    @.@....
    @.@@...
    @.@.@..
    @....@.
    .......
    .......

u+049d:
uni049D:
    .......
    .......
    .......
    .......
    .......
    @....@.
    @.@.@..
    @@@@...
    @.@.@..
    @....@.
    @....@.
    .......
    .......

u+049e:
uni049E:
    .......
    .......
    .@...@.
    @@@..@.
    .@..@..
    .@.@...
    .@@....
    .@.@...
    .@..@..
    .@...@.
    .@...@.
    .......
    .......

u+049f:
uni049F:
    .......
    .......
    .......
    .......
    .......
    .@...@.
    @@@..@.
    .@..@..
    .@@@...
    .@..@..
    .@...@.
    .......
    .......

u+04a0:
uni04A0:
    .......
    .......
    @@...@.
    .@..@..
    .@.@...
    .@@....
    .@.....
    .@@....
    .@.@...
    .@..@..
    .@...@.
    .......
    .......

u+04a1:
uni04A1:
    .......
    .......
    .......
    .......
    .......
    .@@..@.
    ..@.@..
    ..@@...
    ..@.@..
    ..@..@.
    ..@..@.
    .......
    .......

u+04a2:
uni04A2:
    .......
    .......
    @...@..
    @...@..
    @...@..
    @...@..
    @@@@@..
    @...@..
    @...@..
    @...@..
    @...@@.
    .....@.
    .....@.

u+04a3:
uni04A3:
    .......
    .......
    .......
    .......
    .......
    @...@..
    @...@..
    @@@@@..
    @...@..
    @...@..
    @...@@.
    .....@.
    .....@.

u+04a4:
uni04A4:
    .......
    .......
    @...@@@
    @...@..
    @...@..
    @...@..
    @@@@@..
    @...@..
    @...@..
    @...@..
    @...@..
    .......
    .......

u+04a5:
uni04A5:
    .......
    .......
    .......
    .......
    .......
    @...@@@
    @...@..
    @@@@@..
    @...@..
    @...@..
    @...@..
    .......
    .......

u+04a6:
uni04A6:
    .......
    .......
    .@@@...
    .@.@...
    .@.@...
    .@.@@..
    .@.@.@.
    .@.@.@.
    .@.@.@.
    .@.@.@.
    .@.@.@.
    .....@.
    ....@..

u+04a7:
uni04A7:
    .......
    .......
    .......
    .......
    .......
    .@@@...
    .@.@...
    .@.@@..
    .@.@.@.
    .@.@.@.
    .@.@.@.
    .....@.
    ....@..

u+04a8:
uni04A8:
    .......
    .......
    ..@@@..
    .@...@.
    @......
    @......
    @..@@..
    @.@..@.
    @.@..@.
    .@@@@..
    ..@....
    ...@@@.
    .......

u+04a9:
uni04A9:
    .......
    .......
    .......
    .......
    .......
    .@@@@..
    @....@.
    @......
    @..@@..
    @.@..@.
    .@@@@..
    ..@....
    ...@@@.

u+04aa:
uni04AA:
    .......
    .......
    .@@@@..
    @....@.
    @......
    @......
    @......
    @......
    @......
    @....@.
    .@@@@..
    ..@....
    ...@@..

u+04ab:
uni04AB:
    .......
    .......
    .......
    .......
    .......
    .@@@@..
    @....@.
    @......
    @......
    @....@.
    .@@@@..
    ..@....
    ...@@..

u+04ac:
uni04AC:
    .......
    .......
    .@@@@@.
    ...@...
    ...@...
    ...@...
    ...@...
    ...@...
    ...@...
    ...@...
    ...@@..
    ....@..
    ....@..

u+04ad:
uni04AD:
    .......
    .......
    .......
    .......
    .......
    .@@@@@.
    ...@...
    ...@...
    ...@...
    ...@...
    ...@@..
    ....@..
    ....@..

u+04ae:
uni04AE:
    .......
    .......
    .@...@.
    .@...@.
    ..@.@..
    ..@.@..
    ...@...
    ...@...
    ...@...
    ...@...
    ...@...
    ...@...
    ...@...

u+04af:
uni04AF:
    .......
    .......
    .......
    .......
    .......
    .@...@.
    ..@.@..
    ...@...
    ...@...
    ...@...
    ...@...
    ...@...
    ...@...

u+04b0:
uni04B0:
    .......
    .......
    .@...@.
    .@...@.
    ..@.@..
    ..@.@..
    ...@...
    ...@...
    ...@...
    .@@@@@.
    ...@...
    ...@...
    ...@...

u+04b1:
uni04B1:
    .......
    .......
    .......
    .......
    .......
    .@...@.
    ..@.@..
    ...@...
    ...@...
    ...@...
    .@@@@@.
    ...@...
    ...@...

u+04b2:
uni04B2:
    .......
    .......
    @....@.
    @....@.
    .@..@..
    .@..@..
    ..@@...
    .@..@..
    .@..@..
    @....@.
    @....@@
    ......@
    ......@

u+04b3:
uni04B3:
    .......
    .......
    .......
    .......
    .......
    @....@.
    .@..@..
    ..@@...
    ..@@...
    .@..@..
    @....@@
    ......@
    ......@

u+04b4:
uni04B4:
    .......
    .......
    @@@.@..
    .@..@..
    .@..@..
    .@..@..
    .@..@..
    .@..@..
    .@..@..
    .@..@..
    .@@@@@.
    .....@.
    .....@.

u+04b5:
uni04B5:
    .......
    .......
    .......
    .......
    .......
    @@@.@..
    .@..@..
    .@..@..
    .@..@..
    .@..@..
    .@@@@@.
    .....@.
    .....@.

u+04b6:
uni04B6:
    .......
    .......
    @...@..
    @...@..
    @...@..
    @...@..
    .@@@@..
    ....@..
    ....@..
    ....@..
    ....@@.
    .....@.
    .....@.

u+04b7:
uni04B7:
    .......
    .......
    .......
    .......
    .......
    @...@..
    @...@..
    @...@..
    .@@@@..
    ....@..
    ....@@.
    .....@.
    .....@.

u+04b8:
uni04B8:
    .......
    .......
    .@...@.
    .@...@.
    .@.@.@.
    .@.@.@.
    ..@@@@.
    ...@.@.
    ...@.@.
    .....@.
    .....@.
    .......
    .......

u+04b9:
uni04B9:
    .......
    .......
    .......
    .......
    .......
    .@...@.
    .@...@.
    .@.@.@.
    ..@@@@.
    ...@.@.
    .....@.
    .......
    .......

u+04ba:
uni04BA:
    .......
    .......
    @......
    @......
    @......
    @......
    @@@@@..
    @....@.
    @....@.
    @....@.
    @....@.
    .......
    .......

u+04bb:
uni04BB:
    .......
    .......
    .......
    .......
    .......
    @......
    @......
    @@@@@..
    @....@.
    @....@.
    @....@.
    .......
    .......

u+04bc:
uni04BC:
    .......
    .......
    ...@@..
    ..@..@.
    .@@..@.
    @.@..@.
    .@@@@..
    ..@....
    ..@....
    ..@..@.
    ...@@..
    .......
    .......

u+04bd:
uni04BD:
    .......
    .......
    .......
    .......
    .......
    ...@@..
    @.@..@.
    .@@@@@.
    ..@....
    ..@..@.
    ...@@..
    .......
    .......

u+04be:
uni04BE:
    .......
    .......
    ...@@..
    ..@..@.
    .@@..@.
    @.@..@.
    .@@@@..
    ..@....
    ..@....
    ..@..@.
    ...@@..
    ...@...
    ....@@.

u+04bf:
uni04BF:
    .......
    .......
    .......
    .......
    .......
    ...@@..
    @.@..@.
    .@@@@@.
    ..@....
    ..@..@.
    ...@@..
    ...@...
    ....@@.

u+04c0:
uni04C0:
    .......
    .......
    .@@@@@.
    ...@...
    ...@...
    ...@...
    ...@...
    ...@...
    ...@...
    ...@...
    .@@@@@.
    .......
    .......

u+04c1:
uni04C1:
    .@...@.
    ..@@@..
    .......
    .@.@.@.
    .@.@.@.
    .@.@.@.
    ..@@@..
    .@.@.@.
    .@.@.@.
    .@.@.@.
    .@.@.@.
    .......
    .......

u+04c2:
uni04C2:
    .......
    .......
    .@...@.
    ..@@@..
    .......
    .@.@.@.
    .@.@.@.
    ..@@@..
    .@.@.@.
    .@.@.@.
    .@.@.@.
    .......
    .......

u+04c3:
uni04C3:
    .......
    .......
    @....@.
    @...@..
    @..@...
    @.@....
    @@.....
    @.@....
    @..@...
    @...@..
    @....@.
    .....@.
    ..@@@..

u+04c4:
uni04C4:
    .......
    .......
    .......
    .......
    .......
    @....@.
    @...@..
    @@@@...
    @...@..
    @....@.
    @....@.
    .....@.
    ..@@@..

u+04c7:
uni04C7:
    .......
    .......
    @....@.
    @....@.
    @....@.
    @....@.
    @@@@@@.
    @....@.
    @....@.
    @....@.
    @....@.
    ..@..@.
    ...@@..

u+04c8:
uni04C8:
    .......
    .......
    .......
    .......
    .......
    @....@.
    @....@.
    @@@@@@.
    @....@.
    @....@.
    @....@.
    ..@..@.
    ...@@..

u+04cb:
uni04CB:
    .......
    .......
    @....@.
    @....@.
    @....@.
    @....@.
    .@@@@@.
    .....@.
    .....@.
    .....@.
    ....@@.
    ....@..
    ....@..

u+04cc:
uni04CC:
    .......
    .......
    .......
    .......
    .......
    @....@.
    @....@.
    @....@.
    .@@@@@.
    .....@.
    ....@@.
    ....@..
    ....@..

u+04d0:
uni04D0:
    .......
    @....@.
    .@@@@..
    .......
    ..@@...
    .@..@..
    @....@.
    @....@.
    @@@@@@.
    @....@.
    @....@.
    .......
    .......

u+04d1:
uni04D1:
    .......
    .......
    @....@.
    .@@@@..
    .......
    .@@@@..
    .....@.
    .@@@@@.
    @....@.
    @...@@.
    .@@@.@.
    .......
    .......

u+04d2:
uni04D2:
    .......
    .@..@..
    .@..@..
    .......
    ..@@...
    .@..@..
    @....@.
    @....@.
    @@@@@@.
    @....@.
    @....@.
    .......
    .......

u+04d3:
uni04D3:
    .......
    .......
    .@..@..
    .@..@..
    .......
    .@@@@..
    .....@.
    .@@@@@.
    @....@.
    @...@@.
    .@@@.@.
    .......
    .......

u+04d4:
uni04D4:
    .......
    .......
    .@.@@@.
    @.@....
    @.@....
    @.@....
    @.@@@..
    @@@....
    @.@....
    @.@....
    @.@@@@.
    .......
    .......

u+04d5:
uni04D5:
    .......
    .......
    .......
    .......
    .......
    .@@.@..
    ...@.@.
    .@@@@@.
    @..@...
    @..@.@.
    .@@.@..
    .......
    .......

u+04d6:
uni04D6:
    .......
    @....@.
    .@@@@..
    .......
    @@@@@@.
    @......
    @......
    @@@@...
    @......
    @......
    @@@@@@.
    .......
    .......

u+04d7:
uni04D7:
    .......
    .......
    @....@.
    .@@@@..
    .......
    .@@@@..
    @....@.
    @@@@@@.
    @......
    @....@.
    .@@@@..
    .......
    .......

u+04d8:
uni04D8:
    .......
    .......
    .@@@@..
    @....@.
    .....@.
    .....@.
    @@@@@@.
    @....@.
    @....@.
    @....@.
    .@@@@..
    .......
    .......

u+04d9:
afii10846:
    .......
    .......
    .......
    .......
    .......
    .@@@@..
    @....@.
    .....@.
    @@@@@@.
    @....@.
    .@@@@..
    .......
    .......

u+04da:
uni04DA:
    .......
    .@..@..
    .@..@..
    .......
    .@@@@..
    @....@.
    .....@.
    @@@@@@.
    @....@.
    @....@.
    .@@@@..
    .......
    .......

u+04db:
uni04DB:
    .......
    .......
    .@..@..
    .@..@..
    .......
    .@@@@..
    @....@.
    .....@.
    @@@@@@.
    @....@.
    .@@@@..
    .......
    .......

u+04dc:
uni04DC:
    ..@.@..
    ..@.@..
    .......
    .@.@.@.
    .@.@.@.
    .@.@.@.
    ..@@@..
    .@.@.@.
    .@.@.@.
    .@.@.@.
    .@.@.@.
    .......
    .......

u+04dd:
uni04DD:
    .......
    .......
    ..@.@..
    ..@.@..
    .......
    .@.@.@.
    .@.@.@.
    ..@@@..
    .@.@.@.
    .@.@.@.
    .@.@.@.
    .......
    .......

u+04de:
uni04DE:
    .@..@..
    .@..@..
    .......
    .@@@@..
    @....@.
    .....@.
    ..@@@..
    .....@.
    .....@.
    @....@.
    .@@@@..
    .......
    .......

u+04df:
uni04DF:
    .......
    .......
    .@..@..
    .@..@..
    .......
    .@@@@..
    @....@.
    ..@@@..
    .....@.
    @....@.
    .@@@@..
    .......
    .......

u+04e0:
uni04E0:
    .......
    .......
    @@@@@..
    ...@...
    ..@....
    .@@@...
    ....@..
    .....@.
    .....@.
    @....@.
    .@@@@..
    .......
    .......

u+04e1:
uni04E1:
    .......
    .......
    .......
    .......
    .......
    @@@@@@.
    ....@..
    ...@...
    ..@@@..
    .....@.
    .....@.
    @....@.
    .@@@@..

u+04e2:
uni04E2:
    .@@@@..
    .......
    @....@.
    @....@.
    @...@@.
    @..@.@.
    @.@..@.
    @@...@.
    @....@.
    @....@.
    @....@.
    .......
    .......

u+04e3:
uni04E3:
    .......
    .......
    .......
    .@@@@..
    .......
    @....@.
    @...@@.
    @..@.@.
    @.@..@.
    @@...@.
    @....@.
    .......
    .......

u+04e4:
uni04E4:
    .@..@..
    .@..@..
    .......
    @....@.
    @...@@.
    @..@.@.
    @.@..@.
    @@...@.
    @....@.
    @....@.
    @....@.
    .......
    .......

u+04e5:
uni04E5:
    .......
    .......
    .@..@..
    .@..@..
    .......
    @....@.
    @...@@.
    @..@.@.
    @.@..@.
    @@...@.
    @....@.
    .......
    .......

u+04e6:
uni04E6:
    .......
    .@..@..
    .@..@..
    .......
    .@@@@..
    @....@.
    @....@.
    @....@.
    @....@.
    @....@.
    .@@@@..
    .......
    .......

u+04e7:
uni04E7:
    .......
    .......
    .@..@..
    .@..@..
    .......
    .@@@@..
    @....@.
    @....@.
    @....@.
    @....@.
    .@@@@..
    .......
    .......

u+04e8:
uni04E8:
    .......
    .......
    .@@@@..
    @....@.
    @....@.
    @....@.
    @@@@@@.
    @....@.
    @....@.
    @....@.
    .@@@@..
    .......
    .......

u+04e9:
uni04E9:
    .......
    .......
    .......
    .......
    .......
    .@@@@..
    @....@.
    @@@@@@.
    @....@.
    @....@.
    .@@@@..
    .......
    .......

u+04ea:
uni04EA:
    .@..@..
    .@..@..
    .......
    .@@@@..
    @....@.
    @....@.
    @@@@@@.
    @....@.
    @....@.
    @....@.
    .@@@@..
    .......
    .......

u+04eb:
uni04EB:
    .......
    .......
    .@..@..
    .@..@..
    .......
    .@@@@..
    @....@.
    @@@@@@.
    @....@.
    @....@.
    .@@@@..
    .......
    .......

u+04ec:
uni04EC:
    .@..@..
    .@..@..
    .......
    .@@@...
    @...@..
    .....@.
    ..@@@@.
    .....@.
    .....@.
    @...@..
    .@@@...
    .......
    .......

u+04ed:
uni04ED:
    .......
    .......
    .@..@..
    .@..@..
    .......
    .@@@@..
    @....@.
    ..@@@@.
    .....@.
    @....@.
    .@@@@..
    .......
    .......

u+04ee:
uni04EE:
    .@@@@..
    .......
    @....@.
    @....@.
    @....@.
    @....@.
    .@@@@@.
    .....@.
    .....@.
    @....@.
    .@@@@..
    .......
    .......

u+04ef:
uni04EF:
    .......
    .......
    .......
    .@@@@..
    .......
    @....@.
    @....@.
    @....@.
    @...@@.
    .@@@.@.
    .....@.
    @....@.
    .@@@@..

u+04f0:
uni04F0:
    .@..@..
    .@..@..
    .......
    @....@.
    @....@.
    @....@.
    .@@@@@.
    .....@.
    .....@.
    @....@.
    .@@@@..
    .......
    .......

u+04f1:
uni04F1:
    .......
    .......
    .@..@..
    .@..@..
    .......
    @....@.
    @....@.
    @....@.
    @...@@.
    .@@@.@.
    .....@.
    @....@.
    .@@@@..

u+04f2:
uni04F2:
    ..@..@.
    .@..@..
    .......
    @....@.
    @....@.
    @....@.
    .@@@@@.
    .....@.
    .....@.
    @....@.
    .@@@@..
    .......
    .......

u+04f3:
uni04F3:
    .......
    .......
    ..@..@.
    .@..@..
    .......
    @....@.
    @....@.
    @....@.
    @...@@.
    .@@@.@.
    .....@.
    @....@.
    .@@@@..

u+04f4:
uni04F4:
    .@..@..
    .@..@..
    .......
    @....@.
    @....@.
    @....@.
    .@@@@@.
    .....@.
    .....@.
    .....@.
    .....@.
    .......
    .......

u+04f5:
uni04F5:
    .......
    .......
    .@..@..
    .@..@..
    .......
    @....@.
    @....@.
    @....@.
    .@@@@@.
    .....@.
    .....@.
    .......
    .......

u+04f8:
uni04F8:
    ..@.@..
    ..@.@..
    .......
    @....@.
    @....@.
    @....@.
    @@@..@.
    @..@.@.
    @..@.@.
    @..@.@.
    @@@..@.
    .......
    .......

u+04f9:
uni04F9:
    .......
    .......
    ..@.@..
    ..@.@..
    .......
    @....@.
    @....@.
    @@@..@.
    @..@.@.
    @..@.@.
    @@@..@.
    .......
    .......

u+0531:
uni0531:
    .......
    .......
    @..@...
    @..@...
    @..@...
    @..@...
    @..@...
    @..@...
    @.@@@..
    @..@.@.
    .@@..@.
    .......
    .......

u+0532:
uni0532:
    .......
    .......
    .@@@@..
    @....@.
    @....@.
    @......
    @......
    @@@@@..
    @....@.
    @......
    @......
    .......
    .......

u+0533:
uni0533:
    .......
    .......
    .@@@...
    @...@..
    @...@..
    @...@..
    @...@..
    .@@@@@.
    ....@..
    ....@..
    ....@..
    .......
    .......

u+0534:
uni0534:
    .......
    .......
    .@@@...
    @...@..
    @...@..
    ....@..
    ....@@.
    ....@..
    ....@..
    ....@..
    ....@..
    .......
    .......

u+0535:
uni0535:
    .......
    .......
    @......
    @......
    @@@@@..
    @....@.
    @......
    @......
    @....@.
    @....@.
    .@@@@..
    .......
    .......

u+0536:
uni0536:
    .......
    .......
    .@@@@..
    @....@.
    @....@.
    @....@.
    .@@@@..
    ....@..
    ...@...
    @@@@@..
    @....@.
    .......
    .......

u+0537:
uni0537:
    .......
    .......
    @......
    @......
    @......
    @@@@@..
    @....@.
    @......
    @......
    @......
    @@@@@..
    .....@.
    .......

u+0538:
uni0538:
    .......
    .......
    .@@@@..
    @....@.
    @....@.
    @....@.
    @......
    @......
    @......
    @......
    @@@@@..
    .....@.
    .......

u+0539:
uni0539:
    .......
    .......
    .@@@@..
    @....@.
    @....@.
    @....@.
    @..@@@.
    @.@..@.
    @.@..@.
    @.@..@.
    @..@@..
    .......
    .......

u+053a:
uni053A:
    .......
    .......
    .....@.
    .....@.
    .....@.
    .@@@@@.
    @....@.
    @....@.
    @....@.
    @....@.
    .@@@@..
    .......
    .......

u+053b:
uni053B:
    .......
    .......
    @......
    @......
    @......
    @@@@@..
    @....@.
    @....@.
    @......
    @......
    @......
    .......
    .......

u+053c:
uni053C:
    .......
    .......
    @......
    @......
    @......
    @......
    @......
    @......
    @......
    @......
    @@@@@..
    .....@.
    ....@..

u+053d:
uni053D:
    .......
    .......
    @......
    @......
    @......
    @@@..@.
    @.@..@.
    @.@..@.
    @.@..@.
    @.@..@.
    @..@@..
    .......
    .......

u+053e:
uni053E:
    .......
    .......
    @@@@@@.
    ..@@...
    .@..@..
    @....@.
    @....@.
    @....@.
    @....@.
    @....@.
    .@@@@..
    .......
    .......

u+053f:
uni053F:
    .......
    .......
    @......
    @......
    @....@.
    @....@.
    @....@.
    @...@@.
    .@@@.@.
    .....@.
    .....@.
    .......
    .......

u+0540:
uni0540:
    .......
    .......
    ...@...
    ..@....
    ...@...
    ..@....
    .@.....
    @......
    @@.....
    ..@@...
    ....@@.
    .......
    .......

u+0541:
uni0541:
    .......
    .......
    .@@@@..
    @....@.
    @....@.
    @....@.
    .....@.
    .....@.
    .@@@@..
    @...@..
    .@@@.@.
    .......
    .......

u+0542:
uni0542:
    .......
    .......
    .@@@...
    @...@..
    @...@..
    @...@..
    ....@..
    ....@..
    ....@..
    ....@..
    ....@@.
    .....@.
    .......

u+0543:
uni0543:
    .......
    .......
    ....@..
    @@.@.@.
    ..@@...
    ..@@...
    .@..@..
    .@..@..
    @....@.
    @....@.
    @@@@@@.
    .......
    .......

u+0544:
uni0544:
    .......
    .......
    @..@@..
    @..@.@.
    @..@.@.
    @..@...
    @..@...
    @..@...
    @..@...
    @..@...
    .@@....
    .......
    .......

u+0545:
uni0545:
    .......
    .......
    ..@@...
    .@..@..
    ....@..
    .@@@...
    @...@..
    .....@.
    .....@.
    @...@..
    .@@@...
    .......
    .......

u+0546:
uni0546:
    .......
    .......
    @@.....
    .@.....
    .@.....
    .@.....
    .@.....
    .@...@.
    .@...@.
    .@...@.
    ..@@@..
    .......
    .......

u+0547:
uni0547:
    .......
    .......
    @@.....
    ..@@...
    .@..@@.
    @......
    @......
    @....@.
    @....@.
    @....@.
    .@@@@..
    .......
    .......

u+0548:
uni0548:
    .......
    .......
    .@@@@..
    @....@.
    @....@.
    @....@.
    @....@.
    @....@.
    @....@.
    @....@.
    @....@.
    .......
    .......

u+0549:
uni0549:
    .......
    .......
    .@@@@..
    @....@.
    @....@.
    @....@.
    .....@.
    .....@.
    @@..@..
    ..@@...
    ....@@.
    .......
    .......

u+054a:
uni054A:
    .......
    .......
    ..@@@..
    .@.@.@.
    .@.@.@.
    .@.@.@.
    ...@.@.
    ...@.@.
    .....@.
    .....@.
    .....@.
    .......
    .......

u+054b:
uni054B:
    .......
    .......
    .@@@...
    @...@..
    @....@.
    .@...@.
    ..@..@.
    ...@@..
    ...@...
    @@@@@..
    .@...@.
    .......
    .......

u+054c:
uni054C:
    .......
    .......
    .@@....
    @..@...
    @..@...
    @..@@..
    @..@.@.
    @..@.@.
    @..@...
    @..@...
    @..@...
    .......
    .......

u+054d:
uni054D:
    .......
    .......
    @....@.
    @....@.
    @....@.
    @....@.
    @....@.
    @....@.
    @....@.
    @....@.
    .@@@@..
    .......
    .......

u+054e:
uni054E:
    .......
    .......
    ....@..
    ....@..
    @...@..
    @...@..
    @...@..
    .@@@@..
    ....@..
    ....@..
    ....@@.
    .....@.
    .....@.

u+054f:
uni054F:
    .......
    .......
    .@@@@..
    @....@.
    @......
    @......
    .@@@@..
    .....@.
    .....@.
    @....@.
    .@@@@..
    .......
    .......

u+0550:
uni0550:
    .......
    .......
    .@@@@..
    @....@.
    @....@.
    @......
    @......
    @......
    @......
    @......
    @......
    .......
    .......

u+0551:
uni0551:
    .......
    .......
    ..@@...
    .@..@..
    .@..@..
    ..@@...
    @@..@..
    .....@.
    .....@.
    @....@.
    .@@@@..
    .......
    .......

u+0552:
uni0552:
    .......
    .......
    .@.....
    .@.....
    .@.....
    .@@@@..
    .@...@.
    .@.....
    .@.....
    .@.....
    .@.....
    .......
    .......

u+0553:
uni0553:
    .......
    .......
    ...@...
    ..@@@..
    .@.@.@.
    .@.@.@.
    .@.@.@.
    .@.@.@.
    .@.@.@.
    ..@@@..
    ...@...
    .......
    .......

